<svg xmlns="http://www.w3.org/2000/svg" width="100" height="100" viewBox="0 0 100 100" fill="none"><path d="M24.0885 52.3958C24.1406 51.875 23.8541 51.5625 23.7239 51.224C23.5677 50.8333 23.5937 50.4948 23.9583 50.2865C24.375 50.0521 24.7395 50.2083 24.9218 50.625C25.1822 51.1719 25.4166 51.7448 25.677 52.3437C34.375 52.3437 43.0729 52.3437 51.7968 52.3437C52.0052 52.0312 51.901 51.6667 51.901 51.3281C51.901 45.7552 51.901 40.2083 51.901 34.6354C51.901 34.0365 52.0573 33.5156 52.3698 32.9948C54.8958 28.9323 57.3958 24.8698 59.9218 20.8073C60.2864 20.2344 60.4948 19.6615 60.4427 18.9844C60.3906 18.0469 60.4166 17.1094 60.4427 16.1458C60.4687 14.4531 61.5104 13.3333 63.2291 13.2552C64.9218 13.1771 66.6145 13.2292 68.3072 13.2292C70.5729 13.2292 72.8645 13.2292 75.1302 13.2292C77.4218 13.2292 78.6197 14.2969 78.4635 16.5625C78.2812 18.9583 78.9583 20.9375 80.2864 22.9167C82.526 26.1979 84.5052 29.6354 86.6406 32.9687C86.9531 33.4635 87.0833 33.9323 87.0833 34.5312C87.0833 51.1198 87.0833 67.7344 87.0833 84.3229C87.0833 86.4583 86.25 87.2917 84.1406 87.2917C61.9531 87.2917 39.7395 87.2917 17.552 87.2656C14.6093 87.2656 13.151 85.7812 13.151 82.8125C13.151 74.1667 13.151 65.4948 13.151 56.849C13.151 53.8802 14.6354 52.4219 17.6041 52.4219C19.7395 52.3958 21.901 52.3958 24.0885 52.3958ZM53.6197 55.3125C53.151 54.0365 52.1354 53.75 50.9114 53.75C39.8958 53.75 28.8802 53.75 17.8385 53.75C15.3385 53.75 14.5312 54.5573 14.5312 57.1094C14.5312 64.6094 14.5312 72.1354 14.5312 79.6354C14.5312 80.9115 14.5052 82.1615 14.5573 83.4375C14.5833 84.5052 15.052 85.3125 16.1458 85.625C16.6145 85.9635 17.1354 85.8594 17.6562 85.8594C21.1979 85.8594 24.7395 85.8594 28.2812 85.8594C35.7291 85.8594 43.177 85.8594 50.625 85.8594C53.0468 85.8594 53.8541 85.0521 53.8541 82.6562C53.8541 80.3906 53.8541 78.099 53.8541 75.8333C53.8541 75.5208 53.9583 75.1823 53.6979 74.8698C49.8177 74.8698 45.9114 74.8698 42.0312 74.8698C40 74.8698 38.8541 73.6979 38.8281 71.6667C38.8281 70.4687 38.8281 69.2708 38.8281 68.0469C38.8281 65.8854 39.9739 64.7135 42.1354 64.7135C45.052 64.7135 47.9947 64.7135 50.9114 64.7135C51.875 64.7135 52.8385 64.7135 53.8541 64.7135C53.8541 61.6927 53.8541 58.776 53.8541 55.8594C53.8281 55.6771 53.6979 55.4948 53.6197 55.3125ZM70.3125 59.974C75.2604 59.5052 78.6718 61.4844 80.1562 65.7031C81.0677 68.2552 81.0156 70.8854 80.5729 73.5156C79.7916 78.4375 77.9427 82.7604 73.6198 85.6771C73.5937 85.7031 73.6198 85.7812 73.6198 85.9115C77.0573 85.9115 80.5208 85.9115 83.9583 85.9115C85.5208 85.9115 85.677 85.7552 85.677 84.1667C85.677 67.9948 85.677 51.8229 85.677 35.625C85.677 35.3125 85.7812 34.974 85.5729 34.6875C80.4687 34.6875 75.3906 34.6875 70.2604 34.6875C70.3125 43.125 70.3125 51.5104 70.3125 59.974ZM55.2343 78.099C55.2343 78.8021 55.2864 79.5313 55.2083 80.2344C55.1041 81.1198 55.4427 81.7969 56.0416 82.3958C57.526 83.8542 59.1927 85 61.2239 85.5729C62.4739 85.9375 63.7239 85.9896 64.9218 85.3646C65.5208 85.0521 66.1198 85.0781 66.6927 85.3646C67.9948 86.0417 69.3229 85.9375 70.677 85.4948C72.8906 84.7917 74.6614 83.4375 75.9895 81.5885C78.8541 77.6042 79.8698 73.0729 79.3489 68.2812C78.802 63.1771 74.401 59.8958 69.6614 61.6927C67.0312 62.6823 64.5052 62.7344 61.901 61.7187C59.9479 60.9635 57.9427 61.1198 55.9635 61.6927C55.7031 61.7708 55.2864 61.7448 55.2604 62.1094C55.2083 62.8906 55.2343 63.6719 55.2083 64.4531C55.2083 64.9479 55.677 64.9479 55.9114 65.1823C56.2239 65.4948 56.4062 65.8594 56.4062 66.3021C56.4062 68.6719 56.4062 71.0417 56.4062 73.4115C56.4062 73.8021 56.302 74.2187 55.9895 74.349C55.052 74.7917 55.2083 75.5729 55.2083 76.3281C55.2343 76.9271 55.2343 77.5 55.2343 78.099ZM65.1562 61.224C65.3125 58.5677 64.5573 56.4062 62.6562 54.7135C62.2916 54.375 61.9791 54.0104 62.3697 53.5677C62.7604 53.125 63.2031 53.3594 63.5677 53.6979C64.2708 54.3229 64.8958 55.0521 65.3645 55.8594C66.276 57.4479 66.6145 59.1927 66.5625 60.9896C66.875 61.1198 67.1354 61.0156 67.3698 60.9635C68.9062 60.5729 68.9062 60.5729 68.9062 58.9844C68.9062 51.25 68.9062 43.4896 68.9062 35.7552C68.9062 35.4167 68.9062 35.0521 68.9062 34.6875C63.6718 34.6875 58.5156 34.6875 53.3072 34.6875C53.3072 40.651 53.3072 46.5365 53.3072 52.4219C53.3072 52.8646 53.5416 53.0469 53.8281 53.2812C54.7656 54.0885 55.2343 55.1042 55.2343 56.3542C55.2083 57.6823 55.2343 59.0104 55.2343 60.4948C58.6718 59.1406 61.875 60.1823 65.1562 61.224ZM85.1302 33.2292C85.026 32.9948 84.9739 32.8385 84.8958 32.7083C82.552 28.9323 80.1822 25.1823 77.8385 21.3802C77.552 20.9115 77.1875 20.8333 76.6927 20.8594C72.2656 20.8594 67.8645 20.8594 63.4375 20.8594C63.151 20.8594 62.8645 20.7812 62.552 21.0156C62.6041 21.1458 62.6562 21.3021 62.7343 21.4323C65.052 25.1823 67.3698 28.9323 69.6875 32.7083C69.9739 33.1771 70.3385 33.2292 70.8333 33.2292C73.6718 33.2292 76.4843 33.2292 79.3229 33.2292C81.1979 33.2292 83.0989 33.2292 85.1302 33.2292ZM55 66.0937C50.4947 66.0937 46.0937 66.0677 41.7187 66.0937C40.7552 66.0937 40.2083 66.7187 40.1823 67.7344C40.1562 69.0104 40.1823 70.2604 40.1823 71.5365C40.1823 72.9687 40.677 73.4635 42.1093 73.4635C45.9114 73.4635 49.7135 73.4635 53.5156 73.4635C53.9843 73.4635 54.4791 73.5677 54.9739 73.3594C55 70.9896 55 68.6198 55 66.0937ZM61.1197 21.4844C58.6979 25.4167 56.3281 29.2708 53.8802 33.2031C58.802 33.2031 63.4895 33.2031 68.3333 33.2031C65.9375 29.2708 63.5937 25.4427 61.1197 21.4844ZM77.0572 19.4271C77.0833 19.2448 77.1354 19.1667 77.1354 19.0625C77.1354 18.151 77.1614 17.2396 77.1354 16.3281C77.1093 15.1042 76.6406 14.6094 75.4166 14.6094C73.9323 14.5833 72.4218 14.6094 70.9375 14.6094C68.4895 14.6094 66.0677 14.6094 63.6197 14.6094C62.526 14.6094 61.901 15.026 61.875 15.8854C61.8229 17.0573 61.8489 18.2031 61.8489 19.4271C66.9531 19.4271 71.9791 19.4271 77.0572 19.4271ZM55.2343 83.5677C55.1823 84.4531 54.7656 85.1042 54.5052 85.7812C55.7031 85.7812 56.875 85.7812 58.151 85.7812C57.1093 85.026 56.1718 84.4531 55.2343 83.5677Z" fill="#333133"></path><path d="M36.7968 22.8646C37.9165 22.6042 38.0988 21.875 37.9947 20.9115C37.9426 20.3386 37.6301 19.4011 38.5936 19.349C39.5572 19.2969 39.2707 20.2604 39.3488 20.8594C39.4009 21.1979 39.3488 21.5625 39.3488 21.9011C39.9478 22.1875 40.4947 22.4219 40.6249 23.099C40.703 23.4375 41.0415 23.3334 41.2759 23.3594C41.7968 23.3854 42.3176 23.3854 42.8384 23.4636C43.203 23.5157 43.4113 23.7761 43.3593 24.1667C43.3332 24.5313 43.0988 24.7657 42.7343 24.7657C42.3697 24.7657 42.0051 24.8177 41.6665 24.7396C40.7551 24.5834 40.078 24.8438 39.8176 25.9115C40.677 26.9271 41.6145 27.9948 42.3957 29.2188C43.3853 30.7552 44.1926 32.3698 44.5832 34.1667C44.9218 35.7032 43.9843 36.875 42.3957 36.849C40.9374 36.8229 39.6093 36.3021 38.3593 35.5729C38.0728 35.4167 37.8384 35.1823 37.4738 35.2865C35.6509 35.8073 34.1145 35.0521 33.2811 33.5938C32.2395 31.7969 30.8853 30.4948 29.1145 29.4271C27.6561 28.5417 26.927 27.0313 27.4478 25.2084C27.552 24.8177 27.3176 24.6094 27.1613 24.3229C26.4582 23.099 25.9634 21.7969 25.9113 20.3646C25.8593 18.6719 27.0311 17.7084 28.6978 18.125C31.5624 18.8282 33.9843 20.3907 36.1978 22.3177C36.3801 22.5 36.5884 22.6823 36.7968 22.8646ZM38.229 25.2865C38.3853 25.2865 38.4374 25.1823 38.4634 25.0521C38.8801 24.5834 39.3749 24.1407 39.1665 23.3594C38.5155 23.4636 38.0207 23.724 37.604 24.1407C37.0311 24.7136 36.5624 24.6094 36.0155 24.0886C35.3905 23.4896 34.7134 22.9167 34.0363 22.3698C32.3697 21.0677 30.5207 20.0521 28.4634 19.5052C27.8124 19.349 27.1874 19.3229 27.2655 20.2084C27.3957 22.4479 28.2811 24.3229 30.2082 25.599C30.5728 25.7813 30.9634 25.7292 31.354 25.7032C32.3697 25.625 33.3593 25.5729 34.3749 25.5209C34.7915 25.4948 35.1822 25.6511 35.2343 26.1198C35.2863 26.5365 35.052 26.8229 34.6093 26.849C32.6301 26.9271 30.6249 27.6042 28.7238 26.4323C28.9322 27.5782 29.5832 28.3073 30.8593 29.0365C31.6405 29.4792 32.3176 29.6875 32.9426 28.7761C33.229 28.3854 33.6718 27.9688 34.1665 28.4375C34.7134 28.9323 34.2968 29.4271 33.8801 29.7396C33.0468 30.3386 33.1249 30.9636 33.5936 31.7448C33.9843 32.4219 34.427 33.0729 35.078 33.5417C35.3384 33.724 35.6249 34.0365 36.1197 33.7761C35.1301 32.0313 35.8072 30.1823 35.8072 28.3594C35.8072 27.8907 35.9634 27.3959 36.5884 27.474C37.1353 27.5521 37.1613 27.9948 37.1353 28.4636C37.0572 29.4792 37.0311 30.4688 36.927 31.4844C36.8749 32.1094 36.979 32.6563 37.4218 33.099C38.6718 34.349 40.1561 35.2084 41.927 35.4427C43.203 35.599 43.4895 35.2604 43.1249 34.0365C42.3436 31.25 40.729 28.9323 38.7759 26.849C38.3593 26.3802 37.9686 25.9375 38.229 25.2865Z" fill="#333133"></path><path d="M21.6929 42.8645C21.2241 42.7863 20.9897 42.4999 21.146 41.927C21.4585 40.9634 21.9533 40.104 22.6043 39.3228C22.8647 39.0103 23.2033 38.9322 23.5418 39.1665C23.9064 39.4009 23.9324 39.7915 23.6981 40.104C23.1512 40.8332 22.7085 41.6145 22.3699 42.4478C22.2918 42.7343 22.0574 42.8645 21.6929 42.8645Z" fill="#333133"></path><path d="M20.8332 45.8852C20.8072 45.3383 21.0155 45.0779 21.3541 44.9998C21.7187 44.9217 22.0312 45.13 22.1093 45.4685C22.3176 46.38 22.6301 47.2654 23.0468 48.1248C23.2291 48.4894 23.0728 48.7498 22.7864 48.9581C22.4478 49.1925 22.1353 49.0883 21.927 48.8019C21.302 47.8644 20.9374 46.8488 20.8332 45.8852Z" fill="#333133"></path><path d="M25.3905 38.1249C24.8176 38.1249 24.453 37.4999 24.8176 37.0572C25.4165 36.328 26.0936 35.677 26.7707 35.0259C26.979 34.8176 27.3436 34.8697 27.578 35.078C27.8124 35.2864 27.9165 35.5728 27.7082 35.8593C27.1092 36.6666 26.3801 37.3697 25.6249 38.0207C25.5728 38.0989 25.4426 38.1249 25.3905 38.1249Z" fill="#333133"></path><path d="M30.8072 32.3958C30.8333 32.9427 29.7655 34.0625 29.2968 34.0625C28.8801 34.0365 28.6458 33.8021 28.6458 33.3854C28.6458 32.9427 29.6614 31.875 30.1041 31.875C30.5207 31.849 30.7551 32.0313 30.8072 32.3958Z" fill="#333133"></path><path d="M53.6199 55.3125C53.698 55.4948 53.8282 55.6771 53.8282 55.8594C53.8282 58.776 53.8282 61.6927 53.8282 64.7135C52.8126 64.7135 51.849 64.7135 50.8855 64.7135C47.9688 64.7135 45.0261 64.7135 42.1095 64.7135C39.948 64.7135 38.8282 65.8594 38.8022 68.0469C38.8022 69.2448 38.8022 70.4427 38.8022 71.6667C38.8022 73.724 39.948 74.8698 42.0053 74.8698C45.9115 74.8698 49.8178 74.8698 53.672 74.8698C53.9584 75.1823 53.8282 75.5208 53.8282 75.8333C53.8282 78.099 53.8282 80.3906 53.8282 82.6562C53.8282 85.0521 53.0209 85.8594 50.599 85.8594C43.1511 85.8594 35.7032 85.8594 28.2553 85.8594C24.7136 85.8594 21.172 85.8594 17.6303 85.8594C17.1355 85.8594 16.5886 85.9635 16.1199 85.625C16.3542 85.2083 16.3282 84.7396 16.3282 84.2969C16.3282 79.1667 16.3282 74.0104 16.3282 68.8802C16.3282 65.2604 16.3542 61.6667 16.3542 58.0469C16.7449 58.4115 17.2397 58.3594 17.7345 58.3594C28.5678 58.3594 39.4011 58.3594 50.2084 58.3594C50.5209 58.3594 50.8595 58.3594 51.172 58.3073C51.5105 58.2552 51.6668 58.0208 51.6668 57.6823C51.6668 57.3438 51.4845 57.1354 51.172 57.0573C50.9115 57.0052 50.6511 57.0052 50.3907 57.0052C39.4272 57.0052 28.4636 57.0052 17.5261 57.0052C17.0834 57.0052 16.6928 57.0052 16.3542 57.3438C16.3803 56.0156 16.849 55.5729 18.3074 55.5729C29.5574 55.5729 40.8074 55.5729 52.0574 55.5729C52.6043 55.5208 53.1251 55.5208 53.6199 55.3125Z" fill="#FAF5F0"></path><path d="M55.2343 78.099C55.2343 77.5261 55.2343 76.9271 55.2343 76.3542C55.2343 75.599 55.078 74.7917 56.0155 74.375C56.328 74.2448 56.4322 73.8021 56.4322 73.4375C56.4322 71.0677 56.4322 68.698 56.4322 66.3282C56.4322 65.8855 56.2499 65.5209 55.9374 65.2084C55.703 64.974 55.2343 64.948 55.2343 64.4792C55.2603 63.698 55.2082 62.9167 55.2863 62.1355C55.3124 61.7709 55.7291 61.7969 55.9895 61.7188C57.9686 61.1459 59.9738 60.9896 61.927 61.7448C64.5311 62.7605 67.0572 62.7084 69.6874 61.7188C74.427 59.9219 78.828 63.2032 79.3749 68.3073C79.8957 73.099 78.8801 77.6302 76.0155 81.6146C74.6613 83.4896 72.9166 84.8177 70.703 85.5209C69.3488 85.9375 68.0468 86.0417 66.7186 85.3907C66.1457 85.1042 65.5207 85.0782 64.9478 85.3907C63.7499 86.0157 62.4999 85.9636 61.2499 85.599C59.2447 85.0261 57.552 83.8802 56.0676 82.4219C55.4686 81.823 55.1301 81.1459 55.2343 80.2605C55.2864 79.5313 55.2343 78.8021 55.2343 78.099ZM75.4947 70.4948C75.5207 69.2188 75.3645 68.099 74.9218 67.0313C74.4791 65.9636 73.7499 65.1563 72.552 64.9219C72.1613 64.8438 71.8228 64.948 71.6926 65.3646C71.5363 65.8073 71.7968 66.0678 72.1613 66.1719C73.3853 66.5365 73.802 67.474 73.9582 68.5938C74.4009 72.1094 73.6718 75.3646 71.8228 78.3855C71.6926 78.5938 71.5103 78.8021 71.4061 79.0365C71.2499 79.323 71.2759 79.6094 71.5363 79.8438C71.8228 80.0782 72.1613 80.0782 72.4218 79.8438C72.6561 79.6355 72.8384 79.349 73.0207 79.0886C74.7395 76.4063 75.3384 73.4375 75.4947 70.4948Z" fill="#FAF5F0"></path><path d="M38.2292 25.2604C37.9688 25.9375 38.3334 26.3541 38.75 26.7969C40.7032 28.8802 42.3177 31.1719 43.099 33.9844C43.4375 35.2083 43.1771 35.5468 41.9011 35.3906C40.1302 35.1562 38.6459 34.2969 37.3959 33.0469C36.9532 32.6041 36.849 32.0312 36.9011 31.4323C36.9792 30.4166 37.0313 29.4271 37.1094 28.4114C37.1355 27.9687 37.1094 27.5 36.5625 27.4219C35.9375 27.3437 35.7813 27.8385 35.7813 28.3073C35.7813 30.1302 35.1042 31.9791 36.0938 33.7239C35.599 33.9844 35.3386 33.6979 35.0521 33.4896C34.4011 33.0208 33.9844 32.3698 33.5677 31.6927C33.125 30.9375 33.0209 30.2864 33.8542 29.6875C34.2969 29.375 34.6875 28.9062 34.1407 28.3854C33.6459 27.9166 33.2032 28.3333 32.9167 28.7239C32.2917 29.6094 31.6146 29.401 30.8334 28.9844C29.5573 28.2552 28.9063 27.526 28.698 26.3802C30.599 27.5521 32.6042 26.8489 34.5834 26.7969C35 26.7708 35.2605 26.4844 35.2084 26.0677C35.1563 25.5989 34.7657 25.4427 34.349 25.4687C33.3334 25.5208 32.3438 25.5989 31.3282 25.651C30.9375 25.6771 30.5469 25.7291 30.1823 25.5469C30.2605 25.1302 29.974 24.8177 29.7917 24.4791C29.2188 23.3594 28.698 22.2396 28.4896 20.9635C28.9063 20.8333 29.1667 20.9375 29.4792 21.0937C31.0677 21.9531 32.5 22.9948 33.8802 24.1146C34.2969 24.4791 34.7396 24.8177 35.1302 25.1823C36.1719 26.1198 37.2136 25.651 38.2292 25.2604Z" fill="#FAF5F0"></path><path d="M38.2292 25.2864C38.2292 25.1301 38.3334 25.078 38.4636 25.052C38.4376 25.1822 38.3855 25.2864 38.2292 25.2864Z" fill="#FAF5F0"></path><path d="M16.3802 58.047C16.3802 57.8126 16.3802 57.5522 16.3802 57.3178C16.7188 57.0053 17.1355 56.9792 17.5521 56.9792C28.5157 56.9792 39.4792 56.9792 50.4167 56.9792C50.6771 56.9792 50.9375 56.9792 51.198 57.0313C51.5105 57.0834 51.6927 57.3178 51.6927 57.6563C51.6927 57.9949 51.5365 58.2292 51.198 58.2813C50.8855 58.3334 50.5469 58.3334 50.2344 58.3334C39.4011 58.3334 28.5677 58.3334 17.7605 58.3334C17.2657 58.3595 16.7709 58.4115 16.3802 58.047Z" fill="#333133"></path><path d="M75.4949 70.4947C75.3387 73.4635 74.7397 76.4062 73.021 79.0624C72.8387 79.3229 72.6564 79.6093 72.422 79.8176C72.1616 80.0781 71.823 80.052 71.5366 79.8176C71.2762 79.6093 71.2501 79.3229 71.4064 79.0104C71.5366 78.776 71.6928 78.5937 71.823 78.3593C73.672 75.3385 74.4012 72.0833 73.9585 68.5677C73.8282 67.4479 73.3855 66.5104 72.1616 66.1458C71.797 66.0416 71.5366 65.7552 71.6928 65.3385C71.823 64.9218 72.1616 64.8177 72.5522 64.8958C73.7501 65.1562 74.4793 65.9374 74.922 67.0052C75.3647 68.0729 75.521 69.2187 75.4949 70.4947Z" fill="#333133"></path><path d="M43.9061 72.1873C42.604 72.1613 41.5624 71.1457 41.5624 69.8436C41.5624 68.5154 42.6561 67.4217 43.9843 67.4477C45.2863 67.4738 46.328 68.4894 46.328 69.8175C46.328 71.1457 45.2603 72.1873 43.9061 72.1873ZM43.9322 70.8071C44.5572 70.755 44.9218 70.4165 44.9218 69.7654C44.9218 69.1665 44.5572 68.8019 43.9582 68.8019C43.3072 68.8019 42.9426 69.1665 42.9426 69.8175C42.9165 70.4425 43.3072 70.755 43.9322 70.8071Z" fill="#333133"></path><path d="M43.9324 70.8072C43.3074 70.7551 42.9167 70.4166 42.9167 69.8176C42.9167 69.1666 43.2813 68.802 43.9324 68.802C44.5574 68.802 44.8959 69.1666 44.8959 69.7655C44.922 70.4426 44.5574 70.7812 43.9324 70.8072Z" fill="#FAF5F0"></path></svg>