<svg xmlns="http://www.w3.org/2000/svg" width="100" height="100" viewBox="0 0 100 100" fill="none"><path d="M40.4427 41.6146C41.9532 40.5729 43.2813 39.401 44.349 37.9427C44.6355 37.5521 44.6094 37.1615 44.6094 36.7448C44.5834 32.0052 44.5573 27.2396 44.5313 22.5C44.5313 18.2031 47.0313 15.7031 51.3021 15.7031C60.1563 15.7031 69.0105 15.7031 77.8646 15.7031C82.0313 15.7031 84.5313 18.2031 84.5313 22.3698C84.5313 41.1719 84.5313 60 84.5313 78.8021C84.5313 82.9167 82.0053 85.4427 77.9167 85.4427C69.1407 85.4427 60.3386 85.4427 51.5625 85.4427C47.2657 85.4427 45.2865 83.5938 45.0521 79.3229C44.7657 79.2448 44.6615 79.5313 44.5313 79.6615C42.2396 82.0313 39.5834 83.8542 36.6407 85.3125C35.4688 85.9115 34.323 85.9115 33.2292 85.2084C32.8907 85 32.6302 84.974 32.2657 85.1563C31.25 85.625 30.1823 85.6511 29.1667 85.1042C21.4584 80.8333 16.1459 74.6094 14.0625 65.9375C12.1615 57.9688 14.4532 51.0677 20.0261 45.2604C22.1094 43.0729 24.4532 41.1458 26.6667 39.0885C27.5 38.3073 28.2813 37.474 29.0365 36.6146C30.9115 34.5313 32.1615 32.1615 32.474 29.349C32.5261 28.9844 32.474 28.5156 32.9688 28.3854C33.5157 28.2552 33.698 28.6719 33.9323 29.0365C36.25 32.7344 38.2552 36.5885 40 40.5729C40.1302 40.9115 40.2605 41.224 40.4427 41.6146ZM49.9219 71.7188C48.9844 73.4896 48.3334 74.9479 47.3177 76.1719C46.3802 77.2656 46.224 78.4375 46.3282 79.7656C46.5105 82.5781 48.1511 84.1927 50.9636 84.1927C60 84.2188 69.0625 84.2188 78.099 84.1927C81.2761 84.1927 83.3334 82.1094 83.3334 78.9063C83.3334 60 83.3334 41.0938 83.3334 22.1875C83.3334 18.9323 81.2761 16.901 78.0209 16.901C69.0365 16.901 60.0521 16.901 51.0677 16.901C47.8386 16.901 45.8073 18.9323 45.8073 22.1094C45.8073 25.8854 45.8073 29.6615 45.8073 33.4375C45.8073 33.75 45.8073 34.0625 45.8073 34.4531C46.6146 33.8802 46.9792 34.1406 47.2136 34.8438C47.448 35.5729 47.7605 36.3021 47.9948 37.0313C48.6459 38.9844 49.2709 40.9375 49.8959 42.9427C51.7188 42.0833 53.4896 42.0573 54.948 43.4375C57.6823 46.0417 60.3646 48.6979 62.9688 51.4323C64.6615 53.2031 64.323 56.0417 62.4219 57.5781C60.7292 58.9583 58.2813 58.8281 56.6407 57.2396C55.0782 55.7031 53.5417 54.1146 51.9792 52.5521C52.2396 56.3802 52.448 60.1042 52.1094 63.8802C53.3334 63.8802 54.2969 64.2969 55.0782 65.1042C57.7344 67.7344 60.4427 70.3386 63.0209 73.0469C65.0521 75.1823 64.323 78.4636 61.6667 79.7136C59.8177 80.5729 58.1511 80.3386 56.6927 78.8281C54.4532 76.5625 52.2657 74.1927 49.9219 71.7188ZM33.4896 30.7552C32.3959 35.5729 29.0625 38.5417 25.7813 41.5885C25.1042 42.2135 24.4271 42.8125 23.75 43.4115C22.3698 44.6094 21.0417 45.8333 19.8438 47.2396C15.8594 51.9792 13.9063 57.4219 14.8438 63.5938C16.25 72.8386 21.5105 79.4011 29.5313 83.9583C30.4427 84.4792 31.3542 84.4271 32.1615 83.7761C32.9948 83.099 33.8542 82.4479 34.6094 81.6927C41.7188 74.7917 44.948 66.4844 43.4896 56.5625C42.5 49.7917 40.0521 43.4635 37.0834 37.3177C36.0417 35.1042 34.8959 32.9688 33.4896 30.7552ZM33.9063 84.1146C34.6875 84.5833 35.1823 84.6354 35.9896 84.2188C45.3386 79.349 50.625 71.7708 51.0417 61.1198C51.2761 55.3385 50.2605 49.6615 48.8542 44.0625C48.2292 41.5625 47.5 39.1146 46.5105 36.5365C45.3125 39.375 43.2292 41.224 40.9375 42.8385C42.1875 46.0156 43.2552 49.1406 44.0105 52.3698C45.0782 56.9271 45.7032 61.4844 44.6875 66.1719C43.1511 73.1771 39.8438 79.0886 34.2969 83.6719C34.1146 83.8021 33.9063 83.8802 33.9063 84.1146ZM54.2448 53.2031C55.2605 54.1927 56.2761 55.2083 57.2917 56.1979C57.3959 56.3021 57.5261 56.4323 57.6563 56.5365C58.8542 57.5781 60.599 57.5781 61.7448 56.5625C62.9167 55.5469 63.2552 53.75 62.2657 52.6042C61.1198 51.276 59.7136 50.1563 58.4375 48.9844C57.1355 50.3125 55.7292 51.7188 54.2448 53.2031ZM58.9323 70.7292C57.448 72.2136 56.0157 73.6198 54.6094 75.0521C55.5209 75.9636 56.5365 76.9792 57.5782 78.0208C57.6823 78.125 57.7605 78.2031 57.8646 78.2813C59.1146 79.3229 60.8855 79.2448 62.0313 78.125C63.1771 76.9792 63.2813 75.1823 62.1875 73.9844C61.0938 72.7865 59.8959 71.6927 58.9323 70.7292ZM53.1771 52.0313C54.6355 50.5469 56.0677 49.1406 57.5 47.7083C56.4844 46.6927 55.3907 45.5729 54.2709 44.5052C53.2813 43.5677 52.0052 43.4115 50.8594 43.9323C50.3646 44.1667 50.1823 44.4531 50.3386 45C50.625 46.0938 50.9896 47.1875 51.0677 48.3073C51.1719 50 52.0313 51.1719 53.1771 52.0313ZM52.5 65.0521C52.1094 67.1875 51.6407 69.0625 50.7813 70.8073C50.6511 71.0677 50.7552 71.25 50.9375 71.4063C51.7969 72.2396 52.6302 73.0469 53.3073 73.6979C54.8177 72.2136 56.224 70.8073 57.6823 69.349C55.9896 68.0729 54.8698 65.9375 52.5 65.0521Z" fill="#333133"></path><path d="M33.4897 30.7551C34.8959 32.9947 36.0418 35.1301 37.1095 37.2916C40.1043 43.4114 42.5261 49.7395 43.5157 56.5364C44.9741 66.4583 41.7709 74.7655 34.6355 81.6666C33.8543 82.4218 33.0209 83.0728 32.1876 83.7499C31.3543 84.401 30.4688 84.453 29.5574 83.9322C21.5626 79.401 16.3022 72.8124 14.8699 63.5676C13.9324 57.3958 15.8595 51.953 19.8699 47.2135C21.0418 45.8072 22.3959 44.5833 23.7761 43.3853C24.4532 42.7864 25.1563 42.1874 25.8074 41.5624C29.0626 38.5416 32.422 35.5728 33.4897 30.7551ZM25.9636 54.4791C26.0418 54.2968 26.0938 54.1405 26.172 53.9843C27.4741 51.1458 29.1407 48.5155 30.7032 45.8072C31.5366 44.3749 32.2918 42.8905 32.7084 41.276C32.8126 40.8853 32.9428 40.3645 32.3699 40.2083C31.823 40.052 31.6668 40.4947 31.5366 40.9114C31.172 42.2135 30.5991 43.4114 29.9741 44.5833C28.4897 47.2916 26.797 49.8697 25.4428 52.6562C23.0991 57.526 21.9793 62.578 22.7866 67.9687C23.4636 72.4218 25.3647 76.4062 27.9168 80.052C28.2553 80.5207 28.4636 81.5624 29.297 81.0416C30.1563 80.4947 29.2709 79.8697 28.9324 79.453C28.3855 78.776 28.5418 78.3332 29.0366 77.7082C31.823 74.2187 34.948 71.0416 38.2293 68.0208C38.5678 67.7083 39.1147 67.3697 38.5938 66.8228C38.0991 66.302 37.7345 66.8228 37.3699 67.1353C34.4793 69.7655 31.7188 72.526 29.2188 75.5468C28.7241 76.1458 28.2032 76.7707 27.6563 77.4478C26.2761 75.1041 25.2084 72.7864 24.5313 70.2864C24.4011 69.8437 24.4793 69.5832 24.7918 69.2707C28.0991 65.8853 31.6668 62.8124 35.573 60.1562C36.0418 59.8437 37.2397 59.7395 36.6668 58.828C36.0938 57.9426 35.3907 58.8801 34.8699 59.2187C31.3022 61.5364 28.1251 64.2968 25.0782 67.2395C24.7918 67.526 24.5834 67.9166 24.1407 68.0208C23.3334 65.026 23.9324 60.4426 24.7657 57.8385C24.8438 57.578 25.0522 57.4218 25.2605 57.2395C27.7084 54.9999 30.1824 52.7864 32.8386 50.7812C33.2293 50.4947 33.7501 50.1562 33.2813 49.6093C32.8907 49.1405 32.4741 49.5051 32.1095 49.7916C30.3126 51.1197 28.6199 52.6041 26.9272 54.0624C26.6407 54.2968 26.4584 54.6874 25.9636 54.4791Z" fill="#FAF5F0"></path><path d="M33.9063 84.1145C33.8802 83.8801 34.0886 83.7759 34.2448 83.6718C39.8177 79.0884 43.125 73.177 44.6354 66.1718C45.6511 61.4843 45.0261 56.927 43.9584 52.3697C43.2032 49.1405 42.1354 46.0155 40.8854 42.8385C43.1771 41.2239 45.2604 39.3749 46.4584 36.5364C47.4479 39.1145 48.1771 41.5624 48.8021 44.0624C50.2344 49.6614 51.224 55.3385 50.9896 61.1197C50.5729 71.7707 45.2865 79.3489 35.9375 84.2187C35.2084 84.6353 34.6875 84.5832 33.9063 84.1145Z" fill="#FAF5F0"></path><path d="M54.245 53.2032C55.7294 51.7188 57.1356 50.3126 58.4377 49.0105C59.7137 50.1824 61.12 51.3022 62.2658 52.6303C63.2554 53.7761 62.9169 55.547 61.745 56.5886C60.5992 57.6042 58.8283 57.6042 57.6564 56.5626C57.5262 56.4584 57.4221 56.3282 57.2919 56.224C56.2762 55.2084 55.2606 54.1928 54.245 53.2032Z" fill="#CCDA95"></path><path d="M58.9325 70.729C59.8961 71.6925 61.094 72.7863 62.1877 73.9842C63.2815 75.1821 63.1513 77.005 62.0315 78.1248C60.9117 79.2446 59.1409 79.3227 57.8648 78.2811C57.7607 78.2029 57.6565 78.1248 57.5784 78.0207C56.5367 76.979 55.5211 75.9634 54.6096 75.0519C56.0419 73.6196 57.4742 72.2134 58.9325 70.729Z" fill="#CCDA95"></path><path d="M53.1772 52.0312C52.0053 51.1979 51.1459 50.026 51.0418 48.3073C50.9636 47.1875 50.5991 46.0937 50.3126 45C50.1824 44.4531 50.3386 44.1666 50.8334 43.9323C51.9793 43.4114 53.2813 43.5677 54.2449 44.5052C55.3647 45.5729 56.4584 46.6927 57.4741 47.7083C56.0678 49.1406 54.6616 50.5468 53.1772 52.0312Z" fill="#FAF5F0"></path><path d="M52.5 65.052C54.8959 65.9114 55.9896 68.0728 57.6823 69.3749C56.224 70.8072 54.8177 72.2135 53.3073 73.7239C52.6302 73.0728 51.7969 72.2656 50.9375 71.4322C50.7552 71.2499 50.6771 71.0676 50.7813 70.8333C51.6406 69.0624 52.1094 67.1874 52.5 65.052Z" fill="#FAF5F0"></path><path d="M60.3385 37.0051C58.6979 37.0051 57.6823 36.6145 56.8489 35.7812C54.2969 33.2291 51.7187 30.7031 49.1927 28.1249C47.5 26.3801 47.5781 23.7499 49.2708 22.0833C50.9375 20.4426 53.5417 20.3906 55.2344 22.0572C57.8385 24.6093 60.4166 27.1614 62.9687 29.7916C64.2708 31.1197 64.5312 32.7864 63.776 34.4791C63.0468 36.1458 61.6666 36.9531 60.3385 37.0051ZM58.7239 27.3958C57.3437 28.776 55.9375 30.1822 54.401 31.6926C55.3385 32.6041 56.3541 33.5676 57.3437 34.5312C57.526 34.7135 57.7083 34.8958 57.9166 35.052C59.1666 36.0416 60.8594 35.9895 62.0052 34.8697C63.125 33.802 63.3073 31.9531 62.2396 30.8072C61.1198 29.6093 59.8437 28.4895 58.7239 27.3958ZM53.3594 30.4947C54.8177 29.0104 56.25 27.6041 57.6562 26.1718C56.6146 25.1301 55.5208 23.9583 54.3489 22.8906C53.125 21.7447 51.3021 21.8228 50.1302 22.9687C49.0104 24.0885 48.8802 25.9374 49.9739 27.1093C51.0677 28.3333 52.2656 29.427 53.3594 30.4947Z" fill="#333133"></path><path d="M64.9217 68.3596C64.9737 66.6148 65.755 65.2866 67.3175 64.5314C68.906 63.7502 70.5727 63.8283 71.8748 65.0262C74.7133 67.7085 77.4738 70.4429 80.1561 73.3075C81.6404 74.896 81.38 77.4481 79.8436 78.9845C78.2811 80.547 75.7029 80.7814 74.0883 79.271C71.2758 76.6148 68.5675 73.8283 65.8852 71.0679C65.1821 70.3648 64.8956 69.4012 64.9217 68.3596ZM70.2602 73.8543C71.7706 72.3439 73.2029 70.9116 74.6873 69.4273C73.6196 68.3596 72.4998 67.2137 71.354 66.12C70.104 64.9481 68.255 65.0002 67.0571 66.1721C65.8331 67.37 65.8071 69.271 67.005 70.5471C68.0727 71.6668 69.1925 72.7606 70.2602 73.8543ZM75.729 70.4689C74.2185 71.9793 72.7863 73.4377 71.3279 74.896C72.3956 75.9637 73.5154 77.1096 74.6613 78.2033C75.8852 79.3491 77.8123 79.2971 78.9581 78.1512C80.1561 76.9793 80.1821 75.0262 78.9842 73.7762C77.9165 72.6304 76.8227 71.5627 75.729 70.4689Z" fill="#333133"></path><path d="M68.9325 42.448C70.3908 42.448 71.4325 42.8907 72.2658 43.724C74.7919 46.224 77.2919 48.724 79.7919 51.2501C81.5366 53.047 81.5366 55.6772 79.8179 57.3699C78.1252 59.0626 75.4689 59.0626 73.6981 57.3178C71.1721 54.8438 68.6721 52.3178 66.1721 49.7917C64.87 48.4636 64.5314 46.6407 65.2866 45.0261C66.0418 43.3334 67.396 42.5261 68.9325 42.448ZM74.7137 47.8647C73.5679 46.7188 72.5002 45.547 71.3283 44.4792C70.0523 43.3074 68.3075 43.3595 67.1096 44.5053C65.9898 45.573 65.7293 47.3959 66.745 48.5417C67.8908 49.8438 69.245 50.9636 70.4689 52.1355C71.8231 50.7292 73.2554 49.323 74.7137 47.8647ZM75.6773 48.8803C74.245 50.3126 72.8127 51.7449 71.3543 53.2032C71.3804 53.2293 71.4585 53.3334 71.5627 53.4376C72.6043 54.4792 73.62 55.5209 74.6616 56.5365C75.8856 57.6824 77.6825 57.7084 78.8804 56.6147C80.1044 55.4949 80.2866 53.5678 79.1669 52.3178C78.0471 51.0938 76.7971 49.974 75.6773 48.8803Z" fill="#333133"></path><path d="M76.7189 37.0052C75.547 37.0052 74.5574 36.5625 73.7502 35.7552C71.2241 33.2292 68.672 30.7292 66.172 28.151C64.4793 26.4063 64.5053 23.776 66.172 22.1094C67.8387 20.4427 70.4949 20.3906 72.2137 22.0833C74.7918 24.6094 77.3439 27.1615 79.8699 29.7396C81.172 31.0677 81.4064 32.7083 80.7293 34.4271C80.1043 36.0417 78.4897 37.0313 76.7189 37.0052ZM74.6616 26.1719C73.6199 25.1563 72.5522 24.0625 71.4585 23.0208C70.1564 21.7708 68.2033 21.7708 67.0053 22.9688C65.8074 24.1927 65.8335 26.0938 67.0835 27.4219C68.1251 28.5156 69.2189 29.5833 70.2345 30.625C71.7189 29.1406 73.1512 27.6823 74.6616 26.1719ZM71.3283 31.6667C72.396 32.7344 73.4897 33.8802 74.6616 34.9479C75.9637 36.1458 77.8908 36.0677 79.0366 34.8698C80.1824 33.6719 80.2085 31.7969 79.0366 30.5729C77.9429 29.4271 76.797 28.3333 75.7554 27.2656C74.2449 28.75 72.7866 30.1823 71.3283 31.6667Z" fill="#333133"></path><path d="M25.9638 54.4792C26.4585 54.6876 26.6408 54.2969 26.9013 54.0886C28.594 52.6303 30.2867 51.1459 32.0835 49.8178C32.4481 49.5313 32.8648 49.1667 33.2554 49.6355C33.6981 50.1824 33.2033 50.4949 32.8127 50.8074C30.1565 52.8126 27.6825 55.0261 25.2346 57.2657C25.0523 57.448 24.844 57.5782 24.7398 57.8646C23.9065 60.4949 23.3075 65.0521 24.1148 68.0469C24.5575 67.9428 24.7658 67.5521 25.0523 67.2657C28.0992 64.323 31.3023 61.5626 34.844 59.2449C35.3648 58.9063 36.0679 57.9688 36.6408 58.8542C37.2138 59.7657 36.0158 59.8699 35.5471 60.1824C31.6408 62.8646 28.0731 65.9376 24.7658 69.2969C24.4533 69.6094 24.3752 69.8959 24.5054 70.3126C25.1825 72.8126 26.2502 75.1303 27.6304 77.474C28.1773 76.7969 28.6721 76.198 29.1929 75.573C31.6929 72.5782 34.4533 69.7917 37.344 67.1615C37.6825 66.849 38.0471 66.3282 38.5679 66.849C39.0888 67.3699 38.5419 67.7344 38.2033 68.0469C34.9221 71.0678 31.7971 74.2449 29.0106 77.7344C28.5158 78.3594 28.3856 78.8021 28.9065 79.4792C29.245 79.8959 30.1304 80.5209 29.271 81.0678C28.4638 81.5886 28.2294 80.5469 27.8908 80.0782C25.3388 76.4063 23.4377 72.448 22.7606 67.9949C21.9533 62.6042 23.0731 57.5261 25.4169 52.6824C26.771 49.8959 28.4638 47.3178 29.9481 44.6094C30.5992 43.4376 31.1721 42.2396 31.5106 40.9376C31.6408 40.4948 31.771 40.0782 32.344 40.2344C32.9169 40.3907 32.7867 40.8855 32.6825 41.3021C32.2398 42.9167 31.4846 44.4011 30.6773 45.8334C29.1148 48.5417 27.4481 51.1719 26.146 54.0105C26.094 54.1407 26.0419 54.323 25.9638 54.4792Z" fill="#333133"></path><path d="M58.7239 27.396C59.8437 28.4897 61.1458 29.5835 62.2656 30.8335C63.3072 31.9793 63.1249 33.8283 62.0312 34.896C60.8853 35.9897 59.1926 36.0679 57.9426 35.0783C57.7343 34.922 57.552 34.7397 57.3697 34.5575C56.3541 33.5939 55.3645 32.6304 54.427 31.7189C55.9114 30.2085 57.3437 28.7762 58.7239 27.396Z" fill="#CCDA95"></path><path d="M53.3595 30.4948C52.2657 29.4271 51.0678 28.3334 49.974 27.1354C48.8803 25.9375 49.0105 24.1146 50.1303 22.9948C51.3022 21.823 53.1251 21.7709 54.3491 22.9167C55.5209 24.0105 56.6147 25.1563 57.6563 26.198C56.2241 27.6042 54.8178 29.0365 53.3595 30.4948Z" fill="#FAF5F0"></path><path d="M70.2604 73.8542C69.1927 72.7605 68.0729 71.6668 67.0052 70.547C65.8073 69.2709 65.8333 67.3699 67.0573 66.172C68.2552 65.0001 70.1042 64.948 71.3542 66.1199C72.526 67.2136 73.6198 68.3595 74.6875 69.4272C73.2292 70.9115 71.7708 72.3438 70.2604 73.8542Z" fill="#FAF5F0"></path><path d="M75.7291 70.4688C76.7968 71.5625 77.9166 72.6562 79.0104 73.776C80.2083 75.0521 80.1822 76.9792 78.9843 78.151C77.8124 79.2969 75.9114 79.3489 74.6874 78.2031C73.5156 77.1094 72.4218 75.9635 71.3541 74.8958C72.7864 73.4115 74.2187 71.9792 75.7291 70.4688Z" fill="#CCDA95"></path><path d="M74.7135 47.8646C73.2552 49.3229 71.8229 50.7552 70.4427 52.1354C69.2187 50.9635 67.8906 49.8437 66.7187 48.5417C65.7031 47.3958 65.9635 45.5729 67.0833 44.5052C68.2812 43.3854 70.026 43.3333 71.3021 44.4792C72.5 45.5469 73.5677 46.7188 74.7135 47.8646Z" fill="#FAF5F0"></path><path d="M75.677 48.8804C76.8229 50.0002 78.0468 51.0939 79.1666 52.3179C80.2864 53.5679 80.1041 55.495 78.8802 56.6148C77.6822 57.7085 75.8593 57.7085 74.6614 56.5366C73.5937 55.521 72.5781 54.4793 71.5625 53.4377C71.4843 53.3595 71.4062 53.2293 71.3541 53.2033C72.7864 51.745 74.2447 50.3127 75.677 48.8804Z" fill="#CCDA95"></path><path d="M74.6614 26.1718C73.151 27.6822 71.7187 29.1406 70.2344 30.6249C69.2187 29.5833 68.125 28.5156 67.0833 27.4218C65.8333 26.0937 65.8073 24.1926 67.0052 22.9687C68.2031 21.7708 70.1302 21.7708 71.4583 23.0208C72.5781 24.0624 73.6458 25.1562 74.6614 26.1718Z" fill="#FAF5F0"></path><path d="M71.3281 31.6667C72.8125 30.1823 74.2448 28.75 75.7292 27.2656C76.7969 28.3333 77.9427 29.4271 79.0104 30.5729C80.1823 31.7969 80.1563 33.6719 79.0104 34.8698C77.8646 36.0937 75.9375 36.1458 74.6354 34.9479C73.4896 33.8802 72.3958 32.7344 71.3281 31.6667Z" fill="#CCDA95"></path></svg>