<svg xmlns="http://www.w3.org/2000/svg" width="100" height="100" viewBox="0 0 100 100" fill="none"><path d="M65.453 68.7958C65.0553 72.5623 64.0961 76.1417 61.8268 79.2533C59.113 82.9964 55.3465 85.2423 51.0184 86.646C44.8188 88.658 38.4086 88.9621 31.9516 88.658C27.5768 88.4474 23.2955 87.8158 19.178 86.2717C10.9899 83.207 6.49804 77.3349 5.91317 68.5618C5.3283 59.7654 7.87834 51.9515 13.6335 45.2372C14.0078 44.7927 13.961 44.4885 13.727 44.0206C12.3468 41.4706 10.8261 38.9673 10.1008 36.0898C8.86092 31.0833 9.02469 26.1236 11.6683 21.6552C15.1541 15.7597 20.2776 12.0867 27.3428 11.5486C32.981 11.1041 38.6192 11.1743 44.2573 11.5486C52.0478 12.0633 59.3704 17.912 61.1016 25.2112C62.1076 29.4222 61.5227 33.5631 60.4231 37.6806C59.8149 39.9733 58.7387 42.0321 57.569 44.044C57.3116 44.4651 57.2882 44.7693 57.6625 45.1904C61.9906 50.1501 64.5172 55.9286 65.2893 62.4558C65.3127 62.6195 65.3828 62.7833 65.4062 62.9704C65.4998 64.9122 65.5934 66.854 65.453 68.7958ZM24.1845 86.1079C24.5822 86.3653 25.0735 86.3887 25.518 86.4823C28.6062 87.0437 31.7177 87.2543 34.8526 87.2777C40.6077 87.3245 46.2927 86.9268 51.7671 84.8914C57.4286 82.7859 61.6631 79.1363 63.1369 73.1004C65.5934 62.9938 63.1135 53.9868 56.4928 46.056C55.4868 44.8628 55.3932 44.8628 56.2355 43.5059C58.2708 40.2307 59.4406 36.6512 59.9085 32.8379C60.1658 30.709 60.3296 28.6034 59.8149 26.4745C59.5575 24.135 58.5749 22.1231 57.1479 20.2983C54.1065 16.4147 50.3166 13.7243 45.3335 13.1862C39.1338 12.5078 32.9108 12.4844 26.6878 13.116C20.301 13.7711 15.8092 17.3271 12.7679 22.7079C10.405 26.919 10.3348 31.5278 11.6215 36.16C12.4169 39.0141 14.0078 41.4706 15.3881 44.044C15.7156 44.6757 15.7156 45.1202 15.2243 45.6817C9.46919 52.0451 6.91915 59.5782 7.34026 68.1173C7.71457 75.6504 11.1536 81.2184 18.1721 84.3299C20.1138 85.1721 22.079 85.9208 24.1845 86.1079Z" fill="#333133"></path><path d="M75.3957 62.9478C75.3957 61.7079 75.3957 60.4445 75.3957 59.111C73.2668 59.111 71.2081 59.111 69.1259 59.111C68.2603 59.111 67.3713 59.111 66.5057 59.111C66.0144 59.111 65.6167 58.9707 65.5699 58.4092C65.5465 57.7775 65.9676 57.6372 66.5057 57.6372C69.2429 57.6372 72.0035 57.6372 74.7407 57.6372C74.9044 57.6372 75.0916 57.6138 75.2554 57.6138C75.5127 57.3096 75.3957 56.9821 75.3957 56.678C75.3957 52.5605 75.3957 48.443 75.4191 44.3021C75.4425 41.8223 77.2439 39.8805 79.6536 39.6465C82.6248 39.3658 84.8941 40.8163 85.3386 43.3897C85.5023 44.3255 85.362 45.2847 85.362 46.5246C86.7189 45.3783 88.0758 45.2145 89.5496 45.2379C92.24 45.3081 94.135 47.1329 94.1584 49.8233C94.1818 53.2389 94.1584 56.6546 94.1584 60.0936C94.1584 65.7318 94.1584 71.3699 94.1584 77.0315C94.1584 80.1898 92.3804 81.921 89.1987 81.9678C87.8418 81.9912 86.6019 81.7572 85.4087 80.7513C85.4087 81.6871 85.4321 82.3889 85.4087 83.1141C85.3386 85.5472 83.3968 87.4656 80.9637 87.5592C77.9926 87.6761 76.0976 86.4128 75.4893 83.9798C75.3723 83.5119 75.3723 83.044 75.3723 82.5761C75.3723 78.5989 75.3723 74.6218 75.3723 70.6447C75.3723 70.3406 75.3723 70.013 75.3723 69.5919C74.0622 69.5919 72.7989 69.5919 71.559 69.5919C70.1787 69.5919 68.7984 69.5685 67.4415 69.5919C66.8332 69.5919 66.4121 69.4282 66.2717 68.7965C66.4589 68.2584 66.8566 68.0713 67.4181 68.0713C68.6112 68.0947 69.8044 68.0713 70.9975 68.0713C72.448 68.0713 73.8985 68.0713 75.4191 68.0713C75.4425 66.3166 75.5361 64.6322 75.3957 62.9478ZM92.6378 52.116C92.6378 51.2036 92.7079 50.3146 92.6611 49.4022C92.5676 47.8347 91.3744 46.782 89.6666 46.6884C87.3973 46.5714 85.9702 47.3902 85.6427 49.0513C85.6193 49.1916 85.5959 49.332 85.5959 49.4958C85.5959 50.3614 85.6193 51.2504 85.6193 52.116C85.6193 60.6317 85.5959 69.1708 85.5959 77.6865C85.5959 78.6925 86.0872 79.5113 86.9528 80.0026C88.3097 80.7513 89.7836 80.7513 91.1639 80.0962C92.4272 79.488 92.7079 78.3182 92.6845 77.0081C92.6611 68.9837 92.6845 60.9358 92.6611 52.9114C92.6611 52.6541 92.6378 52.3733 92.6378 52.116ZM76.893 46.3141C76.893 51.8586 76.8696 57.4032 76.8696 62.9712C76.8696 69.5217 76.8696 76.0489 76.8696 82.5995C76.8696 84.7752 78.1797 86.1087 80.3554 86.1087C82.7183 86.1321 84.005 84.822 84.005 82.4123C84.005 70.6447 84.005 58.8537 84.005 47.0861C84.005 46.8288 83.9817 46.5714 83.9817 46.2907C83.9817 45.6122 84.0284 44.9572 84.005 44.2787C83.9349 42.5007 82.7183 41.2374 80.9169 41.097C78.7178 40.9333 77.2673 41.8924 76.9398 43.764C76.776 44.6062 76.8462 45.4719 76.893 46.3141Z" fill="#333133"></path><path d="M75.3964 62.9473C75.5368 64.6317 75.4432 66.3161 75.4432 68.0941C73.9225 68.0941 72.472 68.0941 71.0216 68.0941C69.8284 68.0941 68.6353 68.1175 67.4422 68.0941C66.8807 68.0707 66.483 68.2813 66.2958 68.8194C66.0151 68.8194 65.7343 68.8194 65.4536 68.8194C65.594 66.8776 65.5004 64.9358 65.4068 62.9941C68.7523 62.9473 72.0743 62.9473 75.3964 62.9473Z" fill="#FAF5F0"></path><path d="M59.8146 26.4749C60.3059 28.5805 60.1655 30.7094 59.9081 32.8383C59.4402 36.6517 58.2705 40.2311 56.2352 43.5064C55.3929 44.8633 55.4865 44.8633 56.4925 46.0564C63.1366 53.9873 65.6165 62.9943 63.1366 73.1008C61.6628 79.1367 57.4283 82.7629 51.7667 84.8918C46.3158 86.9272 40.6074 87.3015 34.8523 87.2781C31.7174 87.2547 28.6059 87.0442 25.5177 86.4827C25.0732 86.3891 24.5819 86.3891 24.1842 86.1084C24.0205 85.8744 23.7397 85.851 23.5058 85.7574C20.3709 84.5409 17.6337 82.7863 15.5515 80.0959C11.9487 75.4169 11.5276 70.0127 12.0423 64.398C13.9841 64.398 15.9259 64.4214 17.8676 64.4214C18.0314 65.3104 18.2887 66.1526 18.78 66.9246C18.2653 67.2755 18.3121 67.72 18.5695 68.2347C19.4819 70.0595 20.6282 71.6972 22.0319 73.171C25.7517 77.0546 30.4307 79.3005 35.4138 80.9849C35.6243 81.0551 35.8115 81.0317 35.9986 80.9615C39.6014 79.745 43.0639 78.2243 46.152 75.955C48.9126 73.9197 51.1585 71.4164 52.7259 68.3283C52.9833 67.8136 53.264 67.2755 52.4218 66.9948C53.0301 65.9654 53.381 64.8425 53.498 63.6493C55.276 63.6259 57.054 63.6025 58.832 63.6025C59.2765 63.6025 59.7678 63.5791 59.8146 62.9943C59.8848 62.3392 59.4403 62.1521 58.8788 62.1521C57.2411 62.1521 55.6035 62.1287 53.9659 62.1287C54.036 61.5438 54.0828 60.9589 54.153 60.3741C54.8081 60.2337 55.042 59.8126 55.042 59.1809C55.042 58.3621 54.9952 57.5433 54.8783 56.7479C53.9893 50.478 47.7428 46.3138 41.707 47.9748C39.1335 48.6766 37.1684 50.2441 35.6477 52.4666C35.4138 52.1391 35.2032 51.8583 34.9926 51.601C33.0275 49.1913 30.5242 47.7642 27.3893 47.6239C20.9557 47.3665 15.7153 52.9813 16.2768 59.4149C16.3236 59.9763 16.5575 60.2805 17.0956 60.3741C17.1658 61.2631 17.2828 62.1521 17.4933 63.0177C15.7387 63.0177 13.9841 63.0177 12.2295 63.0177C12.2295 62.8773 12.2295 62.7135 12.2529 62.5732C13.1887 57.3795 15.2708 52.7239 18.6631 48.6766C19.5053 47.6473 19.5287 47.6707 18.8034 46.3839C17.0254 43.2256 15.458 39.9738 15.1772 36.254C14.8731 32.0663 15.5749 28.1828 18.125 24.7671C20.1135 22.0065 22.453 19.8074 25.5645 18.4739C28.3251 17.3042 31.2261 17.1404 34.127 17.0234C37.917 16.883 41.707 16.9064 45.4969 17.1872C48.4681 17.3977 51.2287 18.1698 53.7085 19.8308C56.2819 21.562 58.2705 23.8313 59.8146 26.4749ZM35.6945 19.7138C32.7233 19.7138 29.7288 19.7138 26.7577 19.7138C26.0558 19.7138 25.354 19.784 24.6989 20.0414C19.903 21.9597 15.5515 27.7616 16.9318 34.242C17.4465 36.6517 18.78 38.6169 20.1837 40.582C20.6984 41.3073 21.1663 41.4476 22.0085 41.1201C26.0792 39.4591 30.3371 38.6636 34.7353 38.5701C39.9056 38.4765 44.9121 39.2485 49.7314 41.2137C50.2929 41.4476 50.6672 41.3774 50.9947 40.8394C51.369 40.2311 51.8369 39.6462 52.2346 39.038C56.165 33.3764 55.2058 26.4047 49.9186 22.0065C48.047 20.4625 46.035 19.5501 43.5084 19.667C40.9115 19.8074 38.2913 19.7138 35.6945 19.7138Z" fill="#FAF5F0"></path><path d="M83.9817 46.2904C83.9817 46.5477 84.0051 46.8051 84.0051 47.0858C84.0051 58.8534 84.0051 70.6444 84.0051 82.412C84.0051 84.8217 82.7183 86.1318 80.3555 86.1084C78.1797 86.085 76.8696 84.7749 76.8696 82.5992C76.8696 76.0486 76.8696 69.5215 76.8696 62.9709C76.8696 57.4263 76.893 51.8818 76.893 46.3138C78.3903 44.372 82.4376 44.3486 83.9817 46.2904Z" fill="#FAF5F0"></path><path d="M92.6373 52.1153C92.6607 52.3726 92.6841 52.6299 92.6841 52.9107C92.6841 60.9351 92.6841 68.9829 92.7075 77.0074C92.7075 78.3409 92.4267 79.5106 91.1868 80.0955C89.8065 80.7506 88.3326 80.7505 86.9757 80.0019C86.1101 79.5106 85.6188 78.6918 85.6188 77.6858C85.6188 69.1701 85.6422 60.631 85.6422 52.1153C87.7244 50.5244 90.6721 50.5244 92.6373 52.1153Z" fill="#FAF5F0"></path><path d="M35.6954 19.7136C38.2923 19.7136 40.9125 19.8306 43.5093 19.6902C46.036 19.5498 48.0479 20.4622 49.9195 22.0297C55.2301 26.4279 56.1893 33.4229 52.2356 39.0611C51.8145 39.6694 51.37 40.2308 50.9957 40.8625C50.6681 41.3772 50.2938 41.4708 49.7323 41.2368C44.9364 39.2717 39.9065 38.4762 34.7363 38.5932C30.338 38.6868 26.0802 39.4822 22.0095 41.1432C21.1672 41.4942 20.6994 41.3304 20.1847 40.6052C18.781 38.6634 17.4475 36.6982 16.9328 34.2652C15.5291 27.7614 19.9039 21.9595 24.6999 20.0411C25.3549 19.7838 26.0568 19.6902 26.7586 19.7136C29.7298 19.7136 32.7243 19.7136 35.6954 19.7136ZM49.9429 39.6928C50.247 39.2951 50.5044 38.9441 50.7617 38.5932C54.8792 33.2358 53.5925 26.5683 48.3053 22.6379C47.0419 21.6787 45.6616 21.1641 44.024 21.1875C38.2689 21.2576 32.5137 21.2108 26.7352 21.2108C26.1737 21.2108 25.6123 21.2108 25.0976 21.4682C21.2374 23.3398 18.781 26.3109 18.2195 30.639C17.8218 33.6101 18.781 36.2303 20.5356 38.5932C21.4246 39.7629 21.4012 39.7629 22.7347 39.2951C25.9632 38.1253 29.3087 37.4469 32.7243 37.2129C38.6432 36.7684 44.3515 37.5404 49.9429 39.6928Z" fill="#333133"></path><path d="M33.8461 58.409C33.9631 58.526 34.0801 58.643 34.1971 58.7599C34.1971 58.8535 34.2205 58.9471 34.3374 58.9705C34.3374 59.5086 34.5948 59.9765 34.7351 60.4678C35.6242 63.2049 36.5132 65.9188 37.4723 68.8431C38.1976 66.8078 38.876 64.983 39.4843 63.1348C39.7416 62.3393 40.1861 62.0586 41.005 62.0586C45.1225 62.082 49.2399 62.0586 53.334 62.0352C53.5446 62.0352 53.7785 62.0352 53.9891 62.0352C55.6267 62.0586 57.2644 62.0586 58.902 62.0586C59.4869 62.0586 59.908 62.2458 59.8378 62.9008C59.791 63.4857 59.2997 63.5091 58.8552 63.5091C57.0772 63.5325 55.2992 63.5559 53.5212 63.5559C53.4042 63.5559 53.2639 63.5793 53.1469 63.5793C49.2399 63.5559 45.3096 63.5559 41.4027 63.5325C40.888 63.5325 40.7944 63.8366 40.654 64.2109C39.8586 66.5036 39.0398 68.7729 38.2444 71.0656C38.104 71.4399 37.9168 71.7908 37.4723 71.8142C36.9811 71.8376 36.7939 71.4633 36.6535 71.0422C36.2558 69.8023 35.8347 68.539 35.437 67.299C34.7351 65.1467 34.0333 62.9944 33.2613 60.7017C32.6062 61.6843 31.998 62.5031 31.5067 63.3921C31.0856 64.1641 30.5241 64.3747 29.6585 64.3747C26.2428 64.3513 22.8272 64.3981 19.4115 64.3981C18.8968 64.3981 18.4056 64.3747 17.8909 64.3747C15.9491 64.3747 14.0073 64.3513 12.0656 64.3513C11.3871 63.6261 11.4105 63.3687 12.2527 62.8774C14.0073 62.8774 15.7619 62.8774 17.5166 62.8774C18.0546 62.8774 18.5693 62.8774 19.1074 62.8774C22.5932 62.8774 26.0557 62.9008 29.5415 62.9242C29.9626 62.9242 30.1732 62.7137 30.3603 62.4095C31.1089 61.2632 31.881 60.1402 32.6296 58.9705C32.9337 58.526 33.2847 58.2686 33.8461 58.409Z" fill="#333133"></path><path d="M54.1776 60.3275C53.6161 60.0468 53.5459 59.6023 53.5693 59.0174C53.7799 54.3852 50.8321 50.3379 46.5275 49.2618C42.7141 48.3026 38.737 50.0806 36.6782 53.6366C35.9062 54.9701 35.4383 54.9701 34.6429 53.6132C32.6309 50.1742 28.841 48.4195 25.1212 49.1916C21.4014 49.9636 18.3601 53.2857 17.8688 57.0756C17.7752 57.8009 17.6582 58.5261 17.7518 59.2514C17.822 59.7894 17.6348 60.1638 17.0968 60.3275C16.5587 60.2339 16.3247 59.9298 16.2779 59.3683C15.7165 52.9581 20.9803 47.32 27.3905 47.5773C30.502 47.6943 33.0287 49.1448 34.9938 51.5545C35.2044 51.8352 35.4149 52.1159 35.6489 52.4201C37.1695 50.1975 39.1347 48.6301 41.7081 47.9282C47.744 46.2906 53.967 50.4549 54.8794 56.7013C54.9964 57.5201 55.0432 58.3156 55.0432 59.1344C55.0666 59.766 54.8326 60.1871 54.1776 60.3275Z" fill="#333133"></path><path d="M52.4457 66.9706C53.2646 67.2514 53.0072 67.7895 52.7499 68.3041C51.2058 71.3923 48.9599 73.8955 46.1759 75.9309C43.0878 78.2002 39.6254 79.7208 36.0226 80.9374C35.812 81.0076 35.6482 81.031 35.4377 80.9608C30.4312 79.2763 25.7522 77.0304 22.0558 73.1469C20.6521 71.673 19.5058 70.0354 18.5934 68.2106C18.3361 67.6959 18.2893 67.2748 18.804 66.9005C19.4122 66.7133 19.6462 67.1812 19.9971 67.5087C20.231 68.2574 20.6288 68.9124 21.0733 69.5675C23.8806 73.6616 27.811 76.3286 32.3262 78.1534C36.5372 79.8612 34.923 79.8612 39.1107 78.1534C44.4213 75.9777 48.9131 72.7492 51.5567 67.4151C51.7205 67.0876 51.931 66.9005 52.3054 66.9005C52.3288 66.9472 52.3755 66.9706 52.4457 66.9706Z" fill="#333133"></path><path d="M53.3339 62.0823C49.2164 62.0823 45.0989 62.1291 41.0048 62.1057C40.1626 62.1057 39.7415 62.3631 39.4842 63.1819C38.8759 65.0301 38.1975 66.8549 37.4722 68.8902C36.513 65.9659 35.624 63.2521 34.735 60.5149C34.5713 60.0236 34.3139 59.5557 34.3373 59.0176C35.858 59.6727 37.0511 59.2749 38.1039 58.0116C39.0631 56.8653 40.303 56.0465 41.5663 55.2276C44.865 53.0753 51.0646 54.2919 52.7725 58.7135C53.1702 59.7428 53.3573 60.8892 53.3339 62.0823Z" fill="#CCDA95"></path><path d="M33.8464 58.4089C33.2849 58.2919 32.934 58.5259 32.6299 59.0172C31.9046 60.1869 31.1092 61.3099 30.3606 62.4562C30.15 62.7603 29.9629 62.9709 29.5418 62.9709C26.0559 62.9475 22.5935 62.9475 19.1077 62.9241C18.9439 59.9764 19.8797 57.4497 22.3128 55.7419C25.6816 53.379 28.3954 53.6831 31.6473 56.3034C32.4193 56.935 33.2148 57.5901 33.8464 58.4089Z" fill="#CCDA95"></path><path d="M34.3149 58.9703C34.1979 58.9469 34.1745 58.8533 34.1745 58.7598C34.2915 58.8066 34.3383 58.8533 34.3149 58.9703Z" fill="#CCDA95"></path><path d="M53.1465 63.6483C52.9827 64.7713 52.5382 65.824 52.2809 66.947C51.9066 66.947 51.696 67.1575 51.5322 67.4617C48.8886 72.7723 44.3968 76.0242 39.0862 78.1999C34.8985 79.9077 36.5127 79.9077 32.3017 78.1999C27.7865 76.3751 23.8561 73.7081 21.0488 69.614C20.6043 68.9589 20.2299 68.3039 19.9726 67.5553C20.0194 66.4791 19.3877 65.5433 19.3877 64.4671C22.8034 64.4437 26.219 64.3969 29.6347 64.4437C30.5003 64.4437 31.0618 64.2332 31.4829 63.4612C31.9741 62.5722 32.5824 61.7533 33.2375 60.7708C33.9861 63.0868 34.6879 65.2158 35.4132 67.3681C35.8109 68.608 36.232 69.8713 36.6297 71.1113C36.7701 71.5324 36.9572 71.9067 37.4485 71.8833C37.893 71.8599 38.0802 71.509 38.2206 71.1347C39.016 68.842 39.8348 66.5727 40.6302 64.28C40.7706 63.9057 40.8642 63.6015 41.3789 63.6015C45.3092 63.6249 49.2161 63.6249 53.1465 63.6483Z" fill="#CCDA95"></path></svg>