<svg xmlns="http://www.w3.org/2000/svg" width="100" height="100" viewBox="0 0 100 100" fill="none"><path d="M41.6667 63.8801C39.7657 64.7135 37.9948 64.5051 36.2761 63.7499C35.599 63.4635 35.4688 63.0468 35.7813 62.4478C36.9532 59.9999 38.4896 58.0468 41.5886 58.151C41.823 57.2395 41.823 56.5624 40.7813 56.0937C39.6615 55.5989 39.5053 55.1301 40.3386 54.3489C41.7188 53.0468 41.7448 51.4843 41.6928 49.8176C41.6407 48.4114 41.6667 47.0312 41.6928 45.6249C41.6928 44.8697 41.6928 44.1405 41.4584 43.4114C41.2761 42.8645 41.2501 42.2135 41.4063 41.6666C41.9532 39.7655 41.6928 37.8645 41.6928 35.9374C41.7188 33.177 43.1511 31.5624 45.9115 31.328C47.7605 31.1718 48.8021 29.9218 48.6459 27.9687C47.9167 27.9687 47.1615 27.9687 46.4323 27.9687C45.6511 27.9687 45.2084 27.578 45.2084 26.7708C45.2084 24.0103 45.1303 21.2239 45.2605 18.4635C45.3646 15.9635 47.2657 14.3489 49.9219 14.3489C56.7448 14.3489 63.5938 14.3489 70.4167 14.3489C71.9011 14.3489 73.4115 14.3489 74.8959 14.3489C77.6823 14.3749 79.4792 16.1718 79.5053 18.9322C79.5313 21.4583 79.5053 24.0103 79.5053 26.5364C79.5053 27.6041 79.1667 27.9166 78.1251 27.9426C77.448 27.9426 76.7709 27.9426 76.0938 27.9426C75.8594 29.7395 76.9271 31.1458 78.6459 31.302C81.6407 31.6145 82.9949 33.0728 82.9949 36.0676C82.9949 50.9114 82.9949 65.7551 82.9949 80.5728C82.9949 84.2447 80.8594 86.4062 77.2136 86.4062C67.2917 86.4062 57.3698 86.4062 47.448 86.4062C43.9063 86.4062 41.7188 84.2447 41.7188 80.703C41.6928 75.4687 41.7188 70.2343 41.7188 64.9739C41.6667 64.6874 41.6667 64.3228 41.6667 63.8801ZM47.8386 41.0416C47.5782 43.0468 46.5626 44.6093 45.3126 46.0416C45.0001 46.4062 44.7396 46.8749 44.2709 47.0312C43.6719 47.2655 43.4376 46.5364 42.9428 46.4322C42.9428 48.177 42.9428 49.8697 42.9428 51.6926C45.2865 50.5208 47.2657 51.1978 49.1146 52.7083C49.5053 53.0208 49.8178 53.3853 49.4271 53.8541C48.2813 55.3385 46.9271 56.6145 45.0001 57.0312C44.323 57.1614 43.5938 57.0572 42.9948 57.0572C42.6303 58.151 43.073 58.6197 43.9584 59.0103C45.1042 59.5312 45.1563 59.8176 44.5053 60.8593C44.1928 61.3541 43.8803 61.8749 43.4636 62.2655C42.9948 62.7083 42.8907 63.203 42.8907 63.828C42.9167 67.8385 42.8907 71.8228 42.8907 75.8333C42.8907 76.5624 42.8907 77.3176 42.8907 78.0728C55.8855 78.0728 68.7761 78.0728 81.6667 78.0728C81.6667 65.5728 81.6667 53.1249 81.6667 40.651C81.4844 40.6249 81.3542 40.5989 81.224 40.5989C73.1251 40.677 65.0261 40.7812 56.9271 40.8593C56.6407 40.8593 56.3542 40.8853 56.1198 41.1197C54.6094 42.6562 52.6563 43.0989 50.6251 43.3072C49.1146 43.4635 48.8542 43.151 49.1928 41.7187C49.2448 41.5103 49.4011 41.302 49.2448 41.0416C48.8282 41.0416 48.3855 41.0416 47.8386 41.0416ZM49.974 28.0208C49.7136 31.0937 48.5417 32.2916 45.4428 32.6562C44.1407 32.8124 43.0469 33.828 42.9167 35.1301C42.8386 36.0937 42.8907 37.0572 42.8907 38.177C43.099 37.9947 43.2032 37.9426 43.2813 37.8645C45.5209 35.8593 45.9636 35.8853 47.3959 38.8801C47.4219 38.9062 47.4219 38.9322 47.4219 38.9583C47.6042 39.2447 47.474 39.8437 48.073 39.7395C48.7761 39.6093 49.6876 40.1822 50.1823 39.2447C51.6407 36.5103 55.2605 35.677 57.7344 36.1458C58.4115 36.276 58.6459 36.5885 58.3855 37.2395C58.073 38.0468 57.7344 38.828 57.448 39.4791C65.4688 39.4791 73.5417 39.4791 81.5105 39.4791C81.6407 39.2187 81.6928 39.1666 81.6928 39.1145C81.6928 38.0208 81.7188 36.901 81.7188 35.8072C81.6928 33.9583 80.6771 32.8385 78.8021 32.6822C77.0313 32.552 75.7292 31.7447 74.974 30.078C74.6876 29.453 74.6876 28.7499 74.6615 28.0468C66.4324 28.0208 58.2553 28.0208 49.974 28.0208ZM62.9428 26.6405C65.7553 26.6405 68.4636 26.6405 71.224 26.6405C71.224 25.3124 71.224 24.0364 71.224 22.7603C71.224 22.3176 71.3542 21.953 71.849 21.953C72.2396 21.927 72.4219 22.2135 72.4219 22.578C72.4219 22.8385 72.4219 23.0989 72.4219 23.3593C72.4219 24.453 72.4219 25.5468 72.4219 26.6666C74.4271 26.6666 76.2761 26.6666 78.1771 26.6666C78.1771 23.828 78.2813 21.0416 78.1511 18.2551C78.073 16.6926 76.6667 15.651 75.0001 15.651C66.5365 15.651 58.099 15.651 49.6355 15.651C47.6823 15.651 46.4323 16.927 46.4063 18.9062C46.3803 21.0416 46.4063 23.203 46.4063 25.3385C46.4063 25.7812 46.2761 26.2499 46.5105 26.6145C48.3855 26.6145 50.2344 26.6145 52.1355 26.6145C52.1355 25.3645 52.1355 24.2187 52.1355 23.0468C52.1355 22.552 52.0834 21.953 52.7605 21.953C53.4376 21.953 53.3855 22.578 53.3855 23.0468C53.3855 24.2447 53.3855 25.4426 53.3855 26.6145C56.198 26.6145 58.8803 26.6145 61.6407 26.6145C61.6407 24.4791 61.6146 22.3958 61.6407 20.3385C61.6407 19.7655 61.3803 18.8541 62.2657 18.8801C63.1511 18.8801 62.8646 19.7916 62.8646 20.3645C62.9688 22.4739 62.9428 24.5312 62.9428 26.6405ZM42.9167 79.427C42.9167 79.8176 42.9167 80.1301 42.9167 80.4426C42.9167 83.6718 44.4532 85.2083 47.7084 85.2083C57.5261 85.2083 67.3438 85.2083 77.1876 85.2083C77.6823 85.2083 78.1511 85.2343 78.6459 85.1041C81.0157 84.4791 82.1615 82.3697 81.6667 79.427C68.7761 79.427 55.9115 79.427 42.9167 79.427ZM45.3907 37.9166C42.8386 39.0103 41.1719 43.1249 44.0626 45.4947C46.823 42.8385 47.3178 40.052 45.3907 37.9166ZM57.0053 37.2916C53.698 36.8749 50.573 39.2187 50.573 42.0572C53.698 42.1093 56.2761 40.2083 57.0053 37.2916ZM43.4636 60.1562C40.8073 58.5416 38.2292 59.6614 37.1094 62.7343C39.6355 63.9062 41.9011 62.9947 43.4636 60.1562ZM41.3803 55.052C44.0365 56.5364 46.7709 55.8593 47.9688 53.4635C45.599 51.5885 43.2032 52.1614 41.3803 55.052Z" fill="#333133"></path><path d="M30.7814 73.3592C31.2762 71.3801 31.7189 69.5311 32.3439 67.7342C32.6564 66.8228 32.9949 65.9113 33.3074 64.9738C33.4637 64.5051 33.672 64.0884 34.271 64.3228C34.8178 64.5572 34.6355 64.9999 34.4793 65.3905C33.3595 68.2811 32.5001 71.2238 31.8751 74.2447C31.7709 74.7655 31.797 75.1561 32.1355 75.5988C32.6564 76.3019 33.1251 77.0311 33.6459 77.7603C33.9324 78.1509 34.1928 78.5936 33.672 78.9322C33.2032 79.2447 32.8907 78.9061 32.6303 78.5155C32.2918 78.0207 31.9272 77.5259 31.4584 76.8749C31.0157 79.1926 30.8595 81.3801 30.7814 83.5676C30.7553 84.1926 30.7814 84.7915 30.7553 85.4165C30.7553 85.8853 30.7553 86.4061 30.1303 86.4322C29.4793 86.4582 29.4793 85.9113 29.4793 85.4426C29.5053 83.203 29.6095 80.9634 29.8699 78.7238C30.0001 77.7342 30.1564 76.7186 30.3387 75.729C30.4168 75.3384 30.2866 75.0519 30.0782 74.7394C26.2762 68.5415 23.698 61.8488 22.448 54.6613C22.422 54.5051 22.3699 54.3488 22.3699 54.1926C22.3178 53.802 22.3699 53.4634 22.8387 53.3592C23.3334 53.2551 23.5418 53.5676 23.6199 54.0103C23.9064 55.4686 24.1928 56.953 24.5314 58.3853C25.7814 63.3853 27.7084 68.1249 30.2605 72.604C30.4168 72.8124 30.573 73.0207 30.7814 73.3592Z" fill="#333133"></path><path d="M30.5989 19.9478C30.651 23.4895 28.9583 25.7031 25.8072 27.4478C25.2604 27.7603 24.9479 27.4739 24.7656 26.9791C23.5937 23.9583 23.9062 20.5728 27.0052 18.3853C27.6822 17.9166 28.3854 17.526 29.1406 17.2135C29.8697 16.901 30.2604 17.1093 30.3906 17.8906C30.4687 18.6197 30.651 19.3489 30.5989 19.9478ZM29.1927 18.6197C25.9635 19.9218 24.4531 23.2812 25.8854 25.9114C28.6979 24.2708 29.7395 22.0051 29.1927 18.6197Z" fill="#333133"></path><path d="M23.5415 29.8697C23.5155 30.703 23.3332 31.7968 23.0728 32.8905C22.9165 33.5155 22.604 33.7239 21.953 33.5937C18.7759 32.9687 17.0311 30.677 17.3436 27.4218C17.4478 26.3801 17.7082 25.3905 18.0207 24.401C18.3072 23.5155 18.7499 23.4114 19.5572 23.7239C22.2134 24.6614 23.5676 26.6405 23.5415 29.8697ZM21.9009 32.2135C22.8905 28.3332 21.8228 25.5468 19.1405 24.9739C17.8384 28.9843 18.7238 31.3801 21.9009 32.2135Z" fill="#333133"></path><path d="M20.2865 52.2397C17.1094 52.2657 15.0781 50.3126 14.6094 46.7449C14.5052 46.0157 14.4792 45.2605 14.4531 44.5053C14.4531 43.9324 14.7656 43.6199 15.3646 43.6199C17.6823 43.698 19.6094 44.4792 20.8073 46.6147C21.5104 47.9168 21.8229 49.349 21.9792 50.8074C22.1094 52.0313 21.9792 52.1615 20.7552 52.2136C20.599 52.2397 20.4427 52.2397 20.2865 52.2397ZM20.6771 50.9376C20.5208 47.2136 18.6458 44.948 15.8333 45.0001C15.5469 48.5157 17.3958 51.4063 20.6771 50.9376Z" fill="#333133"></path><path d="M21.7969 40.7292C21.823 43.0208 21.6146 43.2031 19.323 42.6562C16.7969 42.0573 15.3386 40.1562 15.1823 37.2135C15.1302 36.3542 15.2084 35.5208 15.3386 34.6875C15.5209 33.4375 15.7813 33.2552 17.0313 33.5937C19.974 34.3489 21.5625 36.3021 21.7969 39.4792C21.823 39.8698 21.7969 40.2864 21.7969 40.7292ZM20.5209 41.4844C21.0157 37.8646 19.2188 34.8698 16.6146 34.9219C16.0417 39.1146 17.3959 41.4323 20.5209 41.4844Z" fill="#333133"></path><path d="M35.8856 57.4218C35.8075 59.0624 35.2606 60.6509 34.5314 62.1874C34.245 62.8124 33.7762 62.6562 33.3075 62.4739C30.6773 61.4062 29.4533 59.1145 30.0523 56.2499C30.3127 54.9739 30.8856 53.802 31.5366 52.6822C31.8491 52.1353 32.2398 51.953 32.8127 52.3176C34.6877 53.4374 35.8856 54.9999 35.8856 57.4218ZM33.5679 61.1718C35.2866 57.6561 34.8439 54.8437 32.4221 53.6457C30.3648 57.1614 30.7554 59.7655 33.5679 61.1718Z" fill="#333133"></path><path d="M41.172 48.9061C41.0939 50.6248 40.1304 52.4217 38.9585 54.1144C38.646 54.5571 38.2814 54.479 37.8387 54.2446C35.5731 53.0206 34.5575 50.5727 35.2866 48.0988C35.7293 46.6144 36.5887 45.3383 37.5522 44.1665C37.9689 43.6456 38.3856 43.6456 38.8804 44.0363C40.2085 45.0258 41.172 46.8748 41.172 48.9061ZM38.3075 45.2602C35.6512 48.4633 35.5991 51.1456 38.1512 52.9165C40.4429 49.8436 40.495 47.1092 38.3075 45.2602Z" fill="#333133"></path><path d="M26.849 34.4532C24.1667 34.4271 23.8803 33.9844 24.8959 31.4844C26.2761 28.0729 28.9844 26.875 32.3438 28.125C33.0469 28.3854 33.2553 28.724 32.9688 29.4271C32.6303 30.2865 32.2917 31.1198 31.7709 31.875C30.573 33.6719 29.0365 34.4532 26.849 34.4532ZM25.7032 32.9948C28.5157 33.724 30.9376 32.1875 31.5886 29.2448C28.724 28.2032 26.6667 29.4792 25.7032 32.9948Z" fill="#333133"></path><path d="M30.2346 45.3643C30.1564 49.2966 28.0731 51.5883 24.4794 51.8747C23.6721 51.9529 23.3856 51.6664 23.3075 50.8852C23.2033 49.9216 23.2554 48.9841 23.4377 48.0727C24.0106 45.2341 26.7189 43.4373 29.5835 43.9581C30.5471 44.1404 30.1044 44.8956 30.2346 45.3643ZM28.9585 45.2341C25.8075 45.0779 24.1148 47.2133 24.6096 50.5727C27.5783 50.182 28.9846 48.4633 28.9585 45.2341Z" fill="#333133"></path><path d="M28.698 35.7812C31.1199 35.7812 31.3282 36.0677 30.6512 38.3854C29.6876 41.6667 27.5522 43.1771 24.1407 43.0469C23.3335 43.0208 23.021 42.7083 23.0991 41.901C23.1772 41.0937 23.2814 40.2865 23.5418 39.5052C24.3751 36.9792 26.0418 35.7812 28.698 35.7812ZM29.6095 37.1615C26.6147 36.4844 24.4012 38.4896 24.4532 41.7187C27.2397 41.9792 29.1928 40.2865 29.6095 37.1615Z" fill="#333133"></path><path d="M49.974 28.0208C58.2292 28.0208 66.4324 28.0208 74.6876 28.0208C74.7397 28.7239 74.7136 29.401 75.0001 30.052C75.7553 31.6926 77.0313 32.4999 78.8282 32.6562C80.6772 32.8124 81.7188 33.9062 81.7449 35.7812C81.7709 36.8749 81.7449 37.9947 81.7188 39.0885C81.7188 39.1405 81.6667 39.1926 81.5365 39.453C73.5678 39.453 65.5209 39.453 57.474 39.453C57.7344 38.802 58.073 38.0208 58.4115 37.2135C58.6719 36.5624 58.4376 36.2499 57.7605 36.1197C55.3126 35.6249 51.6667 36.4843 50.2084 39.2187C49.7136 40.1562 48.8022 39.5833 48.099 39.7135C47.5001 39.8176 47.6303 39.2187 47.448 38.9322C47.4219 38.9062 47.4219 38.8801 47.4219 38.8541C45.9897 35.8593 45.5469 35.8333 43.3074 37.8385C43.2292 37.9166 43.1251 37.9947 42.9167 38.151C42.9167 37.0312 42.8386 36.0676 42.9428 35.1041C43.0469 33.802 44.1407 32.8124 45.4688 32.6301C48.5417 32.2916 49.7136 31.0937 49.974 28.0208Z" fill="#FAF5F0"></path><path d="M62.9428 26.6405C62.9428 24.5312 62.9689 22.4478 62.9428 20.3905C62.9428 19.8176 63.2293 18.9062 62.3439 18.9062C61.4324 18.9062 61.7189 19.7916 61.7189 20.3645C61.6928 22.4478 61.7189 24.5051 61.7189 26.6405C58.9585 26.6405 56.2762 26.6405 53.4637 26.6405C53.4637 25.4426 53.4637 24.2447 53.4637 23.0728C53.4637 22.578 53.5157 21.9791 52.8387 21.9791C52.1616 21.9791 52.2137 22.6041 52.2137 23.0728C52.2137 24.2447 52.2137 25.4166 52.2137 26.6405C50.3126 26.6405 48.4637 26.6405 46.5887 26.6405C46.3543 26.2499 46.4845 25.7812 46.4845 25.3645C46.4585 23.2291 46.4585 21.0676 46.4845 18.9322C46.5105 16.9791 47.7605 15.677 49.7137 15.677C58.1772 15.677 66.6147 15.677 75.0782 15.677C76.7189 15.677 78.1512 16.7187 78.2293 18.2812C78.3595 21.0676 78.2553 23.8541 78.2553 26.6926C76.3543 26.6926 74.5053 26.6926 72.5001 26.6926C72.5001 25.5728 72.5001 24.4791 72.5001 23.3853C72.5001 23.1249 72.5001 22.8645 72.5001 22.6041C72.4741 22.2395 72.3178 21.953 71.9272 21.9791C71.4324 22.0051 71.3022 22.3437 71.3022 22.7864C71.3022 24.0624 71.3022 25.3124 71.3022 26.6666C68.4637 26.6405 65.7553 26.6405 62.9428 26.6405Z" fill="#FAF5F0"></path><path d="M42.9165 79.427C55.9113 79.427 68.7759 79.427 81.6405 79.427C82.1353 82.3697 80.9895 84.453 78.6197 85.1041C78.1249 85.2343 77.6561 85.2083 77.1613 85.2083C67.3436 85.2083 57.5259 85.2083 47.6822 85.2083C44.453 85.2083 42.8905 83.6718 42.8905 80.4426C42.9165 80.1301 42.9165 79.8176 42.9165 79.427Z" fill="#FAF5F0"></path><path d="M45.3907 37.9165C47.2917 40.0519 46.823 42.8123 44.0626 45.4946C41.1719 43.1248 42.8386 39.0103 45.3907 37.9165Z" fill="#FAF5F0"></path><path d="M57.0051 37.2916C56.2759 40.2343 53.6978 42.1093 50.5728 42.0572C50.5728 39.1926 53.6978 36.8749 57.0051 37.2916Z" fill="#FAF5F0"></path><path d="M43.4635 60.1563C41.901 62.9948 39.6354 63.9062 37.1094 62.7344C38.2292 59.6354 40.8073 58.5417 43.4635 60.1563Z" fill="#FAF5F0"></path><path d="M41.3802 55.052C43.2032 52.1614 45.599 51.5885 47.9688 53.4635C46.7709 55.8593 44.0365 56.5364 41.3802 55.052Z" fill="#FAF5F0"></path><path d="M29.1925 18.6199C29.7394 22.0053 28.6978 24.2449 25.8853 25.9115C24.453 23.2813 25.9373 19.948 29.1925 18.6199Z" fill="#FAF5F0"></path><path d="M21.901 32.2135C18.7239 31.3801 17.8385 28.9843 19.1406 24.9739C21.8229 25.5728 22.8906 28.3593 21.901 32.2135Z" fill="#FAF5F0"></path><path d="M20.6771 50.9374C17.3959 51.4061 15.5469 48.5155 15.8334 44.9999C18.6459 44.9478 20.5209 47.2134 20.6771 50.9374Z" fill="#FAF5F0"></path><path d="M20.5207 41.4843C17.3957 41.4322 16.0416 39.1145 16.6145 34.9218C19.2186 34.8697 21.0155 37.8645 20.5207 41.4843Z" fill="#FAF5F0"></path><path d="M33.5676 61.1718C30.7551 59.7655 30.3644 57.1614 32.4217 53.6458C34.8436 54.8176 35.2863 57.6562 33.5676 61.1718Z" fill="#FAF5F0"></path><path d="M38.3074 45.2603C40.4949 47.1092 40.4428 49.8436 38.1512 52.9165C35.5991 51.1196 35.6512 48.4634 38.3074 45.2603Z" fill="#FAF5F0"></path><path d="M25.7029 32.9947C26.6665 29.5051 28.7238 28.203 31.5884 29.2447C30.9373 32.1874 28.5154 33.7239 25.7029 32.9947Z" fill="#FAF5F0"></path><path d="M28.9584 45.2343C29.0105 48.4634 27.5782 50.1822 24.6094 50.5728C24.0886 47.2395 25.8073 45.078 28.9584 45.2343Z" fill="#FAF5F0"></path><path d="M29.6094 37.1613C29.1928 40.2863 27.2396 41.979 24.4532 41.7186C24.4011 38.4894 26.6146 36.4842 29.6094 37.1613Z" fill="#FAF5F0"></path><path d="M62.7085 71.1979C56.3283 71.1718 51.1199 65.9114 51.146 59.5573C51.1981 53.1771 56.4324 48.0208 62.8387 48.0729C69.2189 48.125 74.3751 53.3333 74.323 59.7656C74.297 66.0937 69.0626 71.2239 62.7085 71.1979ZM52.4481 59.6354C52.4481 65.3385 57.0574 69.9479 62.7085 69.9739C68.4116 70 73.0991 65.3385 73.0991 59.6354C73.0991 53.9323 68.4376 49.2708 62.7085 49.2969C57.0314 49.3229 52.422 53.9583 52.4481 59.6354Z" fill="#333133"></path><path d="M49.9999 50.7292C48.2551 50.6771 46.8488 49.9219 45.6509 48.75C45.3645 48.4896 45.2343 48.2031 45.4426 47.8125C46.4061 45.9375 49.8436 44.4271 51.8488 44.974C53.203 45.3385 54.1926 46.1719 55.052 47.2396C55.3384 47.6042 55.3905 47.9427 55.052 48.2812C53.5936 49.6094 52.0051 50.651 49.9999 50.7292ZM53.6978 47.7604C51.8488 45.3906 48.9843 45.5729 46.9009 48.151C48.9322 50.026 51.2238 49.9219 53.6978 47.7604Z" fill="#333133"></path><path d="M52.448 59.6353C52.448 53.9582 57.0574 49.3228 62.7084 49.2967C68.4376 49.2707 73.099 53.9061 73.099 59.6353C73.099 65.3384 68.4376 69.9999 62.7084 69.9738C57.0313 69.9478 52.448 65.3384 52.448 59.6353ZM61.0417 59.5572C60.7813 59.2186 60.6251 58.9842 60.4428 58.7499C59.3751 57.2915 57.7865 56.927 56.4845 57.8384C55.1563 58.7759 54.948 60.3905 55.9636 61.8749C56.9532 63.3592 57.9688 64.8436 59.0105 66.302C60.4168 68.3072 62.8126 68.1509 63.9584 65.9634C64.8959 64.1926 65.7813 62.3697 66.6928 60.5988C67.5001 59.0363 68.3074 57.4999 69.0626 55.9113C69.7136 54.5311 69.1668 52.9947 67.8907 52.3176C66.5626 51.6144 65.0001 52.0832 64.2188 53.4634C63.9324 53.9582 63.672 54.5051 63.4115 55.0259C62.6042 56.5103 61.849 57.9947 61.0417 59.5572Z" fill="#FAF5F0"></path><path d="M53.6979 47.7604C51.1979 49.9218 48.9323 50.052 46.901 48.151C49.0104 45.5729 51.8489 45.3906 53.6979 47.7604Z" fill="#FAF5F0"></path><path d="M61.0415 59.5572C61.8488 57.9947 62.63 56.4843 63.3852 54.9999C63.6456 54.4791 63.9061 53.9583 64.1925 53.4374C64.9998 52.0572 66.5363 51.5885 67.8644 52.2916C69.1404 52.9687 69.6873 54.5051 69.0363 55.8853C68.2811 57.4739 67.4738 59.0103 66.6665 60.5728C65.755 62.3697 64.8696 64.1666 63.9321 65.9374C62.7863 68.0989 60.3904 68.2551 58.9842 66.276C57.9425 64.8176 56.9529 63.3332 55.9373 61.8489C54.9217 60.3385 55.13 58.7239 56.4581 57.8124C57.7863 56.8749 59.3488 57.2395 60.4165 58.7239C60.6248 58.9843 60.7811 59.2187 61.0415 59.5572ZM68.0727 54.5572C67.9946 54.0103 67.6821 53.4895 66.9529 53.2812C66.1196 53.0728 65.5467 53.4374 65.1821 54.1405C64.2706 55.8853 63.3071 57.6301 62.4998 59.427C61.5884 61.4843 60.7029 61.7447 59.479 59.6093C59.4529 59.5832 59.4529 59.5572 59.4269 59.5312C58.7498 58.5676 57.8644 58.3333 57.1092 58.8801C56.38 59.427 56.3019 60.2603 56.9529 61.1978C57.9425 62.6562 58.9321 64.0885 59.9477 65.5208C60.8592 66.8228 62.0831 66.7447 62.8123 65.3124C64.479 62.0833 66.1196 58.8541 67.7602 55.6249C67.9425 55.3645 68.0988 55.052 68.0727 54.5572Z" fill="#333133"></path></svg>