<svg xmlns="http://www.w3.org/2000/svg" width="80" height="80" viewBox="0 0 80 80" fill="none"><path d="M42.5906 12.1792C43.8783 12.1792 44.9319 12.5638 45.8851 13.2662C47.0892 14.1693 48.31 15.0556 49.4974 15.9587C50.8687 17.0122 52.4073 17.5307 54.1298 17.5976C55.7854 17.6477 57.4411 17.6979 59.0632 17.932C61.3711 18.2665 62.7758 19.7214 63.3612 21.9457C63.7625 23.5177 64.1137 25.1064 64.4816 26.6951C64.7994 28.0497 65.4683 29.2204 66.4717 30.1736C67.6256 31.2606 68.7796 32.3477 69.9335 33.4514C71.8734 35.3077 72.2915 37.5988 71.0874 40.007C70.5523 41.094 70.0505 42.1978 69.4318 43.2346C68.2444 45.2247 68.0103 47.3319 68.3949 49.5728C68.5956 50.7435 68.7127 51.9308 68.8465 53.1182C69.0973 55.5096 67.8932 57.5666 65.669 58.57C64.2977 59.1888 62.9264 59.7741 61.5383 60.3427C59.983 60.9782 58.7455 61.9816 57.8424 63.4198C57.0731 64.6407 56.2704 65.8447 55.4844 67.0321C53.9793 69.3065 51.7885 70.1092 49.1797 69.3399C47.7582 68.9219 46.3367 68.4871 44.9319 68.0522C43.4101 67.584 41.905 67.584 40.3664 68.0522C38.7275 68.5539 37.1053 69.1058 35.4497 69.4737C33.2589 69.9587 31.4361 69.2062 30.1316 67.4C29.1951 66.1123 28.359 64.7744 27.5061 63.4366C26.603 62.0151 25.3822 60.9782 23.8269 60.3427C22.5225 59.8076 21.218 59.239 19.9136 58.6704C17.3215 57.5499 16.1508 55.4595 16.5355 52.6499C16.7362 51.195 16.9034 49.7568 17.0539 48.3018C17.2211 46.7967 16.9703 45.3585 16.2512 43.9872C15.5655 42.666 14.9133 41.3449 14.2444 40.0237C13.0068 37.5654 13.4249 35.2575 15.4317 33.3678C16.502 32.3644 17.5556 31.361 18.6259 30.3576C19.8467 29.2371 20.5993 27.849 20.9505 26.2269C21.2682 24.8054 21.6027 23.3839 21.9539 21.9624C22.5726 19.4371 24.4958 17.8986 27.0713 17.7815C28.8272 17.6979 30.5832 17.5976 32.3224 17.4471C33.5767 17.33 34.6804 16.7948 35.6838 16.0423C36.8879 15.1392 38.092 14.2361 39.2961 13.3331C40.3162 12.614 41.42 12.1624 42.5906 12.1792ZM63.1939 40.8766C63.1605 29.5716 53.9793 20.4071 42.6742 20.3904C31.3859 20.3737 22.1211 29.6385 22.1546 40.9268C22.188 52.2319 31.3692 61.413 42.6575 61.4298C53.9626 61.4465 63.2274 52.165 63.1939 40.8766Z" fill="#EC9F57"></path><path d="M11.7449 52.6809C11.9289 51.0588 12.1128 49.353 12.3469 47.6639C12.5309 46.3595 12.3804 45.1386 11.7616 43.968C11.0258 42.5465 10.29 41.125 9.60429 39.6701C8.26641 36.8271 8.83501 33.6329 11.0592 31.4087C12.1797 30.2882 13.3503 29.2179 14.521 28.1309C15.4408 27.278 16.0428 26.2746 16.3104 25.0538C16.6449 23.4818 17.0128 21.9265 17.4309 20.3712C18.2503 17.2272 21.0264 15.0531 24.254 14.9361C25.8428 14.8692 27.4315 14.7856 29.0035 14.6685C30.0236 14.6016 30.9434 14.2337 31.7796 13.6149C33.0171 12.6951 34.2547 11.7586 35.4922 10.8388C38.3185 8.7484 41.6632 8.73168 44.4894 10.8054C45.7103 11.6917 46.8976 12.5948 48.1017 13.4979C49.1051 14.2504 50.2089 14.6351 51.4631 14.6685C53.0017 14.7187 54.557 14.8023 56.0955 14.9361C59.39 15.2037 61.932 17.4613 62.7013 20.7726C63.0525 22.2275 63.3869 23.6992 63.7214 25.1541C63.9723 26.2579 64.5241 27.1944 65.3603 27.9804C66.4641 29.0005 67.5678 30.0374 68.6548 31.0742C71.247 33.566 71.8156 36.8438 70.2269 40.0547C69.7084 41.0748 69.2569 42.1451 68.6548 43.1151C67.5845 44.8543 67.4508 46.6939 67.7852 48.6673C68.0194 50.0219 68.2535 51.3932 68.2368 52.7813C68.2033 55.8584 66.7651 58.116 63.989 59.4707C62.5842 60.1563 61.1293 60.7416 59.6911 61.327C58.487 61.8119 57.5505 62.5979 56.8648 63.685C56.0788 64.9225 55.2761 66.1433 54.4733 67.3474C52.5501 70.2406 49.4061 71.3778 46.0614 70.3911C44.5898 69.9563 43.1014 69.5215 41.6297 69.0699C40.5594 68.7355 39.5058 68.7689 38.4188 69.0699C36.596 69.5883 34.8233 70.3242 32.9502 70.6252C30.0069 71.0935 27.5987 70.0733 25.8428 67.6819C24.8728 66.3774 24.0199 64.9894 23.1503 63.6181C22.4814 62.5812 21.6117 61.8287 20.4745 61.3604C19.0865 60.7918 17.6984 60.2065 16.3438 59.5877C13.3671 58.2666 11.8954 55.9587 11.7449 52.6809ZM39.9239 11.2904C38.7533 11.2736 37.6495 11.7419 36.6629 12.4945C35.4588 13.3975 34.2547 14.3006 33.0506 15.2037C32.0472 15.9562 30.9434 16.5081 29.6892 16.6084C27.9499 16.7589 26.194 16.876 24.438 16.9429C21.8626 17.06 19.9227 18.5985 19.3206 21.1238C18.9694 22.5453 18.635 23.9667 18.3172 25.3882C17.966 27.0104 17.2135 28.3985 15.9927 29.5189C14.9224 30.5056 13.8521 31.5258 12.7985 32.5292C10.7917 34.4189 10.3736 36.71 11.6111 39.1851C12.28 40.5062 12.9323 41.8274 13.6179 43.1486C14.3203 44.5032 14.5712 45.9414 14.4206 47.4632C14.2701 48.9181 14.0862 50.3731 13.9022 51.8113C13.5343 54.6376 14.6882 56.7113 17.2804 57.8318C18.5848 58.4004 19.8892 58.9522 21.1937 59.5041C22.7489 60.1396 23.9697 61.1764 24.8728 62.5979C25.7257 63.9358 26.5619 65.2904 27.4984 66.5614C28.8196 68.3675 30.6424 69.1201 32.8165 68.6351C34.4888 68.2672 36.111 67.7153 37.7332 67.2136C39.255 66.7454 40.7768 66.7286 42.2987 67.2136C43.7202 67.6484 45.1249 68.0832 46.5464 68.5013C49.1553 69.2706 51.3461 68.4679 52.8512 66.1935C53.6372 64.9894 54.4399 63.7853 55.2092 62.5812C56.1122 61.1597 57.3498 60.1563 58.9051 59.5041C60.2931 58.9355 61.6812 58.3502 63.0358 57.7314C65.26 56.728 66.4641 54.671 66.2132 52.2796C66.0962 51.0922 65.9624 49.9048 65.7617 48.7342C65.377 46.4932 65.6112 44.3861 66.7985 42.396C67.4173 41.3591 67.9023 40.2554 68.4542 39.1684C69.6415 36.7602 69.2402 34.4691 67.3002 32.6128C66.1463 31.5258 64.9924 30.4387 63.8385 29.335C62.8351 28.3817 62.1661 27.2111 61.8484 25.8565C61.4805 24.2678 61.1293 22.679 60.7279 21.107C60.1426 18.8828 58.7378 17.4279 56.43 17.0934C54.8078 16.8593 53.1355 16.8091 51.4966 16.7589C49.7573 16.7088 48.2355 16.1736 46.8642 15.12C45.6768 14.2002 44.456 13.3139 43.2519 12.4276C42.2652 11.675 41.2116 11.2736 39.9239 11.2904Z" fill="#333133"></path><path d="M60.5273 39.9877C60.5607 51.2761 51.2959 60.5409 40.0076 60.5242C28.7025 60.5242 19.5213 51.3597 19.4879 40.0379C19.4544 28.7496 28.7192 19.4848 40.0076 19.5015C51.3126 19.5182 60.4938 28.6827 60.5273 39.9877ZM32.482 56.8784C35.927 58.4672 39.5226 58.8685 43.2352 58.2163C54.9249 56.176 61.7982 43.5833 56.9986 32.7465C54.1222 26.241 49.0048 22.5117 41.9308 21.6254C38.6697 21.224 35.4755 21.7257 32.482 23.1472C32.3148 23.2141 32.1308 23.2643 31.9636 23.3479C21.2438 28.5322 18.1333 42.3792 25.6421 51.644C27.4817 53.9351 29.7394 55.7245 32.482 56.8784Z" fill="#333133"></path><path d="M32.482 23.1472C32.0305 23.7493 31.3448 24.0168 30.7762 24.4516C26.9633 27.3783 24.4882 31.1578 23.4848 35.8403C22.6152 39.8874 22.9664 43.8509 24.6052 47.6805C26.2107 51.4433 28.8028 54.3532 32.2144 56.544C32.3482 56.6276 32.4653 56.6945 32.482 56.8617C29.7393 55.7078 27.4817 53.9184 25.6421 51.6273C18.15 42.3625 21.2438 28.5154 31.9636 23.3312C32.1308 23.281 32.298 23.2308 32.482 23.1472Z" fill="#EC9F57"></path><path d="M37.499 40.155C38.7199 38.9676 39.924 37.8137 41.1113 36.6264C42.6666 35.0711 44.2052 33.4991 45.7437 31.9605C47.3324 30.3718 49.657 30.3049 51.1788 31.81C52.7007 33.3151 52.684 35.6229 51.0952 37.2451C47.5331 40.8574 43.9543 44.4697 40.3755 48.0819C38.6864 49.771 36.4622 49.771 34.7564 48.0819C32.7496 46.0918 30.7428 44.1185 28.7694 42.0949C26.7459 40.0045 27.6824 36.6096 30.4752 35.8571C31.8465 35.4892 33.0841 35.8236 34.1042 36.827C35.1076 37.8137 36.0943 38.8004 37.081 39.7871C37.2482 39.9042 37.3987 40.0547 37.499 40.155ZM50.2925 34.4356C50.2591 33.7499 49.9246 33.198 49.2556 32.8803C48.5365 32.5458 47.8509 32.7131 47.1652 33.3987C44.3222 36.2584 41.4792 39.1182 38.653 41.9946C37.7499 42.9144 37.4154 42.9144 36.4789 41.9779C35.2581 40.757 34.0373 39.5195 32.7998 38.2987C32.0305 37.5461 30.9769 37.5127 30.2745 38.1816C29.5387 38.884 29.5387 39.9543 30.3247 40.7403C32.2981 42.7304 34.2714 44.7205 36.2615 46.6772C37.081 47.4799 38.0844 47.4966 38.8704 46.6939C42.4994 43.0482 46.1116 39.3857 49.7239 35.74C50.0751 35.4055 50.2758 34.9875 50.2925 34.4356Z" fill="#333133"></path></svg>