<svg xmlns="http://www.w3.org/2000/svg" width="81" height="80" viewBox="0 0 81 80" fill="none"><path fill-rule="evenodd" clip-rule="evenodd" d="M27.378 9.11994C26.5278 9.11994 25.9014 9.11994 25.3645 9.0752H8.40639C5.81122 9.0752 5.54275 9.34366 5.54275 11.9836V43.1704C5.54275 44.0205 5.45325 44.6917 4.78209 45.4076C1.02356 49.4793 0.710348 54.8486 4.02143 59.3231C4.55836 59.9942 4.60313 60.4417 4.15568 61.2023C3.28523 62.6013 2.47957 64.0218 1.67869 65.4339C1.32686 66.0543 0.975947 66.673 0.62087 67.2876L0.602854 67.3164C0.383218 67.6671 0.13704 68.0602 0.441882 68.4957C0.716993 68.8739 1.01854 68.7765 1.34651 68.6705C1.44527 68.6386 1.54643 68.6059 1.64998 68.5852C2.27641 68.4286 2.89164 68.2719 3.50687 68.1153C4.12211 67.9587 4.73734 67.8021 5.36376 67.6455C5.75237 68.345 5.93004 69.0951 6.10928 69.8519C6.3428 70.8379 6.579 71.8351 7.28779 72.7464C8.44025 71.2997 9.31051 69.732 10.1784 68.1686C10.8943 66.8792 11.6085 65.5926 12.4781 64.3792C13.2835 65.5489 13.9656 66.768 14.6478 67.987C15.5573 69.6124 16.4667 71.2379 17.6684 72.7464C18.3744 71.8387 18.6116 70.8457 18.8442 69.8716C19.0244 69.1171 19.2019 68.3738 19.5925 67.6903C20.3979 67.914 21.2033 68.1377 22.0087 68.2719C22.2633 68.3256 22.5261 68.4434 22.7872 68.5606C23.3977 68.8345 23.9995 69.1045 24.4696 68.5404C24.908 67.9851 24.5446 67.487 24.1774 66.9839C23.9825 66.7168 23.7865 66.4483 23.7089 66.169C23.7089 66.1242 23.7201 66.0795 23.7313 66.0347C23.7425 65.99 23.7537 65.9452 23.7537 65.9005H35.6109C35.6109 66.0702 35.6241 66.2137 35.6361 66.3451C35.6463 66.4562 35.6557 66.5587 35.6557 66.6612C35.7452 71.0014 37.356 72.5674 41.6962 72.5674C42.935 72.5674 44.178 72.5384 45.4214 72.5094C48.2645 72.4431 51.1096 72.3767 53.9113 72.6569C56.6855 72.9254 59.3254 72.8806 62.0996 72.6569C64.9581 72.4235 67.8357 72.4754 70.7199 72.5274C72.26 72.5552 73.8019 72.583 75.3439 72.5674C78.2523 72.5674 80.2658 70.7329 80.2658 67.9587C80.3105 59.5915 80.3105 51.2691 80.2658 42.9467C80.2658 40.262 78.3865 38.4722 75.7018 38.338C75.0503 38.3084 74.3791 38.318 73.6883 38.3278C73.3355 38.3329 72.9776 38.338 72.6145 38.338L71.0932 38.2038C70.3195 38.4187 69.5459 38.3446 68.6533 38.2591C68.6166 38.2556 68.5798 38.252 68.5427 38.2485C68.5427 37.824 68.5479 37.4098 68.5529 37.0024C68.5628 36.2074 68.5723 35.4382 68.5427 34.669C68.4085 31.4921 66.3503 29.1654 63.2182 29.0759C62.6054 29.0626 61.9916 29.0463 61.3769 29.03C57.8628 28.9367 54.321 28.8426 50.7792 29.2996C50.5497 28.9389 50.5845 28.506 50.6195 28.0715C50.6323 27.9132 50.645 27.7547 50.645 27.5993V11.8493C50.645 9.74636 50.0186 9.11994 47.9604 9.11994H30.6891H28.7651H27.378ZM7.60089 62.5004C7.79774 62.6217 7.99147 62.741 8.18267 62.8579C8.27999 62.8811 8.37778 62.9042 8.4762 62.9275C9.32811 63.1294 10.2271 63.3424 11.27 63.6633C10.7014 64.6381 10.1511 65.6038 9.59425 66.5811C8.92423 67.757 8.24456 68.9498 7.51151 70.196C7.35208 69.7032 7.20203 69.2479 7.05985 68.8166C6.76311 67.9163 6.50065 67.12 6.25864 66.3032C5.58854 66.2108 4.96616 66.3928 4.31141 66.5843C3.69831 66.7636 3.05681 66.9512 2.32115 66.9296C2.56752 66.5059 2.81171 66.0864 3.05422 65.6699C3.91278 64.1954 4.75013 62.7572 5.58748 61.2918C6.30404 61.7013 6.96857 62.1108 7.60089 62.5004ZM17.8604 45.2952C18.2661 45.5549 18.7126 45.8408 18.7871 46.4367C21.6059 48.2265 22.5008 52.6562 21.2928 55.9225C19.9504 59.5468 17.3552 61.7393 13.5072 62.1867C9.52498 62.6342 5.94545 60.7549 4.28991 57.5333C2.14218 53.3273 2.90283 48.8082 6.21391 45.8998C9.4355 43.0361 14.0889 42.7229 17.6237 45.1391C17.6987 45.1916 17.7787 45.2429 17.8604 45.2952ZM10.1056 42.4384C9.97195 42.442 9.83795 42.4455 9.70396 42.4545C9.18226 42.6632 8.64535 42.887 8.09323 43.1173C7.69829 43.282 7.29557 43.4499 6.88508 43.6178V10.5518H11.6727V13.2364V42.0518C11.1714 42.4099 10.6413 42.4241 10.1056 42.4384ZM39.3943 55.6938C39.5497 55.756 39.705 55.8181 39.8616 55.8778C39.9511 55.8778 40.0854 55.8778 40.2196 55.833C40.7471 55.9718 41.2961 56.0762 41.8466 56.1808C43.0706 56.4135 44.302 56.6476 45.3205 57.2648C46.2783 57.8564 46.5621 58.9447 46.8531 60.0605C47.0243 60.7169 47.198 61.3829 47.5129 61.963C47.5862 62.1018 47.6594 62.241 47.7328 62.3803C48.5109 63.8581 49.3019 65.3604 50.2423 66.7506C51.3162 68.2719 52.5243 69.659 54.0903 71.1803H42.0989C40.7118 71.3146 39.28 71.4041 38.1166 70.4197C37.356 69.7933 36.9085 68.9431 36.9085 67.9587V55.0724C37.8407 55.0724 38.6175 55.3831 39.3943 55.6938ZM40.7505 54.6876C40.44 54.5913 40.1291 54.4949 39.8169 54.4012C39.6688 54.3589 39.5185 54.3177 39.3665 54.276C38.554 54.0533 37.693 53.8173 36.8638 53.3273C36.8638 52.4561 36.861 51.5821 36.8582 50.7067C36.8498 48.0753 36.8414 45.4313 36.9085 42.8124C36.9533 40.7989 38.4298 39.6356 40.667 39.6356H65.2764C66.395 39.6356 67.5136 39.6306 68.6322 39.6256C70.8695 39.6157 73.1067 39.6057 75.3439 39.6356C77.3574 39.6356 78.3865 40.5752 78.7892 42.4992L78.9234 52.5667C78.9682 53.3721 78.5655 53.5958 77.8943 53.8195C75.5676 54.5354 73.2409 55.2513 70.6457 55.7883C70.9141 54.0887 71.1824 52.4785 71.4508 50.8684L71.4511 50.8664C71.6301 49.7925 71.2722 49.3898 70.1536 49.3003C66.0818 48.8976 62.3233 47.6001 58.9675 45.2286C58.2963 44.7812 57.7594 44.6469 57.0435 45.1839C53.6429 47.6448 49.7949 48.9424 45.6784 49.3451C44.5151 49.4793 44.2466 49.9268 44.4703 50.9559C44.6796 52.0022 44.8289 53.0285 44.9851 54.1016C45.0626 54.6347 45.1419 55.1792 45.231 55.7435C43.6796 55.5958 42.2197 55.1431 40.7505 54.6876ZM13.1045 42.0965V13.1917C13.1045 12.3863 13.1045 11.5361 13.1493 10.686C13.5526 10.3499 14.0065 10.3925 14.4539 10.4345C14.6021 10.4484 14.7496 10.4623 14.8943 10.4623H46.3496C47.8998 10.4623 48.6716 10.4623 49.0332 10.8474C49.3918 11.2293 49.3471 11.99 49.258 13.5049C49.258 16.1895 49.2691 18.8742 49.2803 21.5589C49.2915 24.2435 49.3027 26.9282 49.3027 29.6128C49.3027 29.9261 49.3027 30.3735 49.1237 30.5525C47.1818 32.3677 47.2314 34.7008 47.2807 37.0256C47.2837 37.1648 47.2867 37.304 47.2892 37.4431C47.2892 37.6668 47.2892 37.8905 47.2445 38.3827H41.1145C37.4007 38.3827 35.6109 40.1725 35.6109 43.931V62.5447V64.5134H23.0825C22.5978 64.5134 22.4238 64.2027 22.2498 63.892C22.215 63.8298 22.1802 63.7677 22.1429 63.708C21.4717 62.5894 20.8453 61.5156 20.2189 60.397C26.2594 53.2379 22.2324 43.3046 13.1045 42.0965ZM46.618 55.4303C46.2153 53.9538 45.8574 52.4325 45.8126 50.6427C50.0633 50.24 53.8666 48.8977 57.3567 46.5262C57.8489 46.1682 58.2516 46.2577 58.699 46.5709C62.1443 48.8082 65.8581 50.1952 70.0641 50.5979C70.1437 52.3494 69.6921 53.9592 69.2449 55.5534C69.1894 55.7512 69.134 55.9487 69.0797 56.1462C67.4689 61.9182 64.7842 67.0191 60.0861 70.9119C57.9884 72.6525 57.9386 72.6124 55.8958 70.9692L55.8801 70.9566C50.8687 66.9296 48.2288 61.4708 46.618 55.4303ZM66.5881 71.28C65.0085 71.275 63.3983 71.2698 61.7416 71.2698C65.7686 67.3771 68.2743 63.0369 69.8403 58.1597C69.9746 57.757 70.1088 57.3543 70.6457 57.2201C72.6895 56.7092 74.7333 56.1723 76.8758 55.6095C77.5476 55.433 78.2291 55.2539 78.9234 55.0724V61.0234C78.9234 61.784 78.9284 62.5447 78.9334 63.3053C78.9433 64.8266 78.9533 66.3479 78.9234 67.8692C78.8787 69.9275 77.6258 71.2251 75.5676 71.2698C72.6131 71.2994 69.6585 71.2899 66.5881 71.28ZM51.1836 35.9526C51.2009 36.7115 51.2187 37.4918 51.003 38.2932C50.2871 38.2932 49.5712 38.2932 48.6763 38.2485C48.4973 36.7719 48.4526 35.2954 48.6763 33.8188C48.9895 31.8948 50.645 30.4182 52.6585 30.3735C56.1038 30.284 59.5939 30.284 63.0392 30.3735C65.1422 30.4182 66.7082 31.8948 67.1109 33.953C67.3287 35.042 67.2815 36.1604 67.232 37.3321C67.2205 37.6048 67.2089 37.8803 67.2004 38.159C66.647 38.3869 66.0935 38.3542 65.5056 38.3195C65.2855 38.3065 65.0605 38.2932 64.829 38.2932C64.6497 37.5462 64.67 36.7991 64.6899 36.0653C64.6998 35.7004 64.7096 35.3388 64.6947 34.9822C64.65 33.6398 64.0236 32.9239 62.6365 32.9239H53.106C51.8084 32.9687 51.2267 33.6398 51.182 34.9374C51.168 35.2715 51.1758 35.6098 51.1836 35.9526ZM63.3076 34.1768V38.2932C59.6386 38.2932 56.1038 38.2932 52.6138 38.2485C52.5796 38.1801 52.5454 38.1248 52.5162 38.0776C52.469 38.0012 52.4348 37.9458 52.4348 37.8905C52.1663 34.1768 52.1663 34.1768 55.8801 34.1768H63.3076ZM17.975 67.9268C17.8248 68.597 17.6687 69.2937 17.221 70.017C16.2845 68.4116 15.3981 66.8562 14.4868 65.2574C14.179 64.7173 13.8684 64.1722 13.552 63.6185C15.655 63.1263 17.4895 62.4999 19.1898 61.1576C19.7491 62.1196 20.2972 63.0704 20.8453 64.0212C21.3934 64.9721 21.9416 65.9229 22.5009 66.8849C21.6044 67.0343 20.895 66.7783 20.2165 66.5335C20.0822 66.485 19.9492 66.437 19.8162 66.3927C18.7871 66.0795 18.3396 66.3927 18.1159 67.3323C18.0644 67.5281 18.02 67.7263 17.975 67.9268Z" fill="#333133"></path><path d="M49.2131 13.5049C49.2131 18.8742 49.2579 24.2435 49.2579 29.6128C49.2579 29.926 49.2579 30.3735 49.0789 30.5524C47.0206 32.4765 47.2444 34.9821 47.2444 37.4431C47.2444 37.6668 47.1996 37.8905 47.1996 38.3827C45.1861 38.3827 43.1279 38.3827 41.0697 38.3827C37.3111 38.3827 35.5661 40.1725 35.5661 43.931C35.5661 50.1505 35.5661 56.3252 35.5661 62.5446C35.5661 63.1263 35.5661 63.7527 35.5661 64.5134C31.2706 64.5134 27.1542 64.5134 23.0377 64.5134C22.456 64.5134 22.3218 64.0659 22.0981 63.708C21.4716 62.5894 20.8005 61.4708 20.1741 60.3969C26.2145 53.2378 22.1428 43.3493 13.0597 42.0965C13.0597 32.4765 13.0597 22.8117 13.0597 13.1917C24.38 13.1917 35.7451 13.1917 47.0654 13.1917C47.826 13.2364 48.5867 13.1022 49.2131 13.5049ZM30.331 22.6774C33.1052 22.6774 35.924 22.6774 38.6982 22.6774C39.2351 22.6774 39.9511 22.8564 39.9511 22.0063C39.9511 21.3351 39.2799 21.3799 38.7877 21.3799C33.1499 21.3799 27.5121 21.3799 21.8743 21.3799C21.3821 21.3799 20.7557 21.3799 20.7557 22.051C20.8005 22.7669 21.4269 22.6327 21.9191 22.6327C24.738 22.6774 27.5121 22.6774 30.331 22.6774ZM34.6712 28.002C36.103 28.002 37.5796 28.002 39.0114 28.002C39.4588 28.002 39.9511 28.002 39.9511 27.3756C39.9511 26.8834 39.5483 26.7492 39.1456 26.7492C36.1925 26.7492 33.2394 26.7492 30.2863 26.7492C29.7941 26.7492 29.3466 26.9282 29.4361 27.5098C29.4809 28.002 29.9283 28.0468 30.331 28.0468C31.7628 28.002 33.2394 28.002 34.6712 28.002ZM23.3956 28.002C23.9326 28.002 24.5142 28.002 25.0512 28.002C25.4539 28.002 25.8566 27.9125 25.9013 27.4203C25.9461 26.9729 25.5881 26.7044 25.1407 26.7044C23.8878 26.7044 22.5902 26.7044 21.3374 26.7492C20.9794 26.7492 20.711 26.9729 20.711 27.3756C20.711 27.7783 21.0242 27.9573 21.3822 27.9573C22.0981 28.0468 22.7245 28.002 23.3956 28.002Z" fill="#88ABDA"></path><path d="M45.8127 50.6426C50.0635 50.1952 53.8667 48.8529 57.312 46.5709C57.849 46.213 58.2069 46.3024 58.6544 46.6157C62.0549 48.8529 65.8134 50.1952 70.0194 50.6426C70.1536 52.6114 69.5272 54.4012 69.0351 56.1909C67.4243 61.963 64.7843 67.0638 60.0414 70.9566C57.9384 72.7016 57.8937 72.6569 55.8355 71.0013C50.8689 66.9296 48.1842 61.5155 46.5734 55.475C46.2154 53.9537 45.8575 52.4324 45.8127 50.6426ZM48.9001 53.8195C50.2872 59.5468 52.5691 64.7819 57.1778 68.7641C57.8937 69.3458 58.3412 69.0773 58.8781 68.5851C63.3525 64.6476 65.545 59.502 66.9768 53.8642C67.2453 52.8799 66.5294 52.7009 65.8582 52.5667C63.3973 51.985 61.0706 51.0901 58.8781 49.7925C58.2517 49.4346 57.67 49.3451 56.9988 49.7478C54.7616 51.0453 52.3901 51.985 49.8845 52.5667C49.3028 52.7009 48.6764 52.9246 48.9001 53.8195Z" fill="#88ABDA"></path><path d="M51.003 38.2932C50.2423 38.2932 49.5712 38.2932 48.721 38.2932C48.4973 36.8166 48.4973 35.2953 48.721 33.8635C49.0342 31.8948 50.6898 30.4629 52.7033 30.4182C56.1486 30.3287 59.6386 30.3287 63.0839 30.4182C65.1869 30.4629 66.753 31.9395 67.1557 33.9977C67.4242 35.3848 67.2899 36.7719 67.2452 38.2037C66.4845 38.5169 65.6791 38.3379 64.8737 38.3379C64.5605 37.2193 64.7842 36.1007 64.7395 35.0269C64.6947 33.6845 64.0236 32.9686 62.6813 32.9686C59.5044 32.9686 56.3276 32.9686 53.1507 32.9686C51.8531 32.9686 51.2714 33.6845 51.2267 34.9821C51.1372 36.0112 51.3162 37.1298 51.003 38.2932Z" fill="#88ABDA"></path><path d="M18.7871 46.4369C21.5613 48.2714 22.5009 52.7011 21.248 55.9674C19.9057 59.547 17.3106 61.7842 13.4625 62.2316C9.4803 62.679 5.90074 60.755 4.2452 57.5782C4.2452 56.8623 4.20046 56.1464 4.20046 55.4305C4.20046 53.7749 4.11098 52.1194 5.31907 50.7771C5.27433 51.314 5.18485 51.8957 5.18485 52.4326C5.05061 55.4305 6.25871 57.7572 8.85389 59.2785C11.4938 60.7551 14.1337 60.6208 16.5947 58.8758C19.0556 57.086 20.0847 54.6251 19.503 51.5377C18.9661 48.6741 17.0421 47.0185 14.5364 45.8999C16.0577 45.2735 17.3553 46.3921 18.7871 46.4369Z" fill="#88ABDA"></path><path d="M17.2211 70.017C15.9683 67.8692 14.805 65.811 13.5521 63.6185C15.6551 63.1263 17.4896 62.5447 19.1899 61.1576C20.3085 63.0816 21.3824 64.9161 22.501 66.8849C21.4271 67.0639 20.6217 66.6611 19.8163 66.3927C18.7872 66.0795 18.3397 66.3927 18.116 67.3323C17.8923 68.1825 17.8028 69.0773 17.2211 70.017Z" fill="#88ABDA"></path><path d="M8.1827 62.8577C9.16707 63.0814 10.1067 63.3498 11.27 63.6183C10.0172 65.766 8.80912 67.869 7.51153 70.151C7.01934 68.6744 6.66137 67.4663 6.25867 66.2582C6.92983 65.1396 7.55627 63.9763 8.1827 62.8577Z" fill="#88ABDA"></path><path d="M30.3312 22.6774C27.557 22.6774 24.7381 22.6774 21.964 22.6774C21.4718 22.6774 20.8006 22.8116 20.8006 22.0957C20.7558 21.3798 21.427 21.4246 21.9192 21.4246C27.557 21.4246 33.1948 21.4246 38.8326 21.4246C39.3248 21.4246 39.9959 21.3798 39.9959 22.051C39.9959 22.9011 39.2353 22.7222 38.7431 22.7222C35.9242 22.6774 33.1053 22.6774 30.3312 22.6774Z" fill="#333133"></path><path d="M34.6713 28.0022C33.2395 28.0022 31.763 28.0022 30.3312 28.0022C29.9285 28.0022 29.481 28.0022 29.4363 27.4652C29.3915 26.8836 29.7942 26.7046 30.2864 26.7046C33.2395 26.7046 36.1926 26.7046 39.1458 26.7046C39.5485 26.7046 39.9512 26.8388 39.9512 27.331C39.9512 27.9574 39.459 27.9574 39.0115 27.9574C37.5797 28.0022 36.1031 28.0022 34.6713 28.0022Z" fill="#333133"></path><path d="M23.3958 28.0017C22.7246 28.0017 22.0534 28.0017 21.427 28.0017C21.0691 28.0017 20.8006 27.8228 20.7559 27.4201C20.7559 27.0174 21.0243 26.7936 21.3823 26.7936C22.6351 26.7489 23.9327 26.7489 25.1856 26.7489C25.5883 26.7489 25.9462 26.9726 25.9462 27.4648C25.9014 27.957 25.4988 28.0465 25.0961 28.0465C24.5144 28.0017 23.9775 28.0017 23.3958 28.0017Z" fill="#333133"></path><path d="M48.9 53.8197C48.7211 52.9248 49.3027 52.7459 49.9292 52.5669C52.4348 51.9852 54.8063 51.0456 57.0435 49.748C57.7147 49.3453 58.2963 49.4348 58.9228 49.7927C61.1152 51.0456 63.4419 51.9405 65.9029 52.5669C66.5293 52.7011 67.2452 52.8801 67.0215 53.8645C65.5897 59.4575 63.3972 64.6478 58.9228 68.5853C58.3858 69.0775 57.8936 69.346 57.2225 68.7643C52.5243 64.7821 50.2871 59.547 48.9 53.8197ZM57.9384 67.6905C62.1443 63.9319 64.2921 59.189 65.6344 53.9092C63.084 53.1486 60.6678 52.3432 58.4306 51.0456C58.1174 50.8666 57.8489 50.8218 57.4909 51.0008C55.209 52.2984 52.748 53.1486 50.1976 53.9092C51.5847 59.189 53.6877 63.9319 57.9384 67.6905Z" fill="#333133"></path><path d="M5.36383 50.7323C6.88513 47.2422 9.48033 45.4524 13.3283 45.6762C13.731 45.7209 14.089 45.7657 14.4917 45.8104L14.5364 45.8551C17.0421 46.9738 18.9661 48.6293 19.5031 51.4929C20.0847 54.5803 19.0556 57.0412 16.5947 58.831C14.1785 60.576 11.4938 60.755 8.85391 59.2337C6.25874 57.7571 5.05063 55.4304 5.18487 52.3878C5.22961 51.8061 5.27434 51.2692 5.36383 50.7323ZM12.2992 58.8757C15.6103 58.9205 18.295 56.2806 18.3844 53.0142C18.4292 49.7479 15.7893 47.0185 12.4782 46.9738C9.21185 46.929 6.43771 49.5689 6.39297 52.8353C6.34822 56.0569 9.03286 58.831 12.2992 58.8757Z" fill="#333133"></path><path d="M14.4922 45.8106C14.0893 45.7658 13.7311 45.721 13.3282 45.6763C13.7311 45.4077 14.134 45.3629 14.4922 45.8106Z" fill="#88ABDA"></path></svg>