<svg xmlns="http://www.w3.org/2000/svg" width="80" height="80" viewBox="0 0 80 80" fill="none"><path d="M57.3117 77.5C53.5045 77.5 49.6706 77.5 45.8634 77.5C43.7454 77.5 42.6997 76.4007 43.4773 74.4435C44.6033 71.548 44.3888 68.5988 44.3888 65.6496C44.4156 61.0649 44.3084 56.4802 44.4156 51.8956C44.5765 45.1393 49.9655 39.643 56.5342 39.3481C63.3709 39.0264 69.1889 43.7987 70.1005 50.555C70.2881 51.976 70.2077 53.4238 70.2077 54.8716C70.2077 60.2338 70.2077 65.5959 70.2077 70.9581C70.2077 71.4675 70.2881 71.9501 70.5026 72.4059C70.8243 73.103 71.0656 73.8269 71.2265 74.5776C71.6019 76.4543 70.7975 77.4731 68.8672 77.4731C65.0332 77.5 61.1724 77.5 57.3117 77.5ZM48.8931 67.2582C50.0459 66.7488 51.2792 66.3735 52.6734 66.0785C51.7886 65.4619 51.0379 64.9793 50.4749 64.309C49.9119 63.6387 49.4293 62.9417 48.8931 62.2446C47.6061 59.8048 47.8206 57.1237 47.8206 54.4962C47.0431 54.2549 46.346 54.0405 45.6489 53.826C45.6489 59.1613 45.6489 64.4163 45.6489 69.8589C46.6946 68.7596 47.7402 67.9821 48.8931 67.2582ZM57.8747 40.5814C52.3248 40.2329 47.1503 44.0132 45.917 49.5362C45.1932 52.8072 45.1127 52.5659 48.5713 53.397C48.6518 53.4238 48.759 53.397 48.8662 53.397C55.14 54.4158 60.9311 48.5442 59.8587 42.1901C59.5906 40.5814 59.5638 40.5546 57.8747 40.5814ZM48.2228 76.2667C48.7858 76.2935 49.3488 76.3203 49.9119 76.3203C56.2124 76.3203 62.4862 76.3203 68.7867 76.3203C70.0468 76.3203 70.3686 75.9449 70.02 74.7384C68.9476 70.7436 66.4274 68.2234 62.3253 67.4727C59.9123 67.0169 57.4457 67.3386 55.0327 67.3386C54.6306 67.3118 54.2284 67.285 53.8263 67.285C49.3488 67.3118 45.4881 70.4487 44.5229 74.8189C44.2816 75.9449 44.5497 76.3203 45.7026 76.3203C46.5337 76.2935 47.3648 76.2667 48.2228 76.2667ZM49.0271 54.6839C49.0271 55.8368 49.0003 56.936 49.0271 58.0353C49.1612 62.2446 52.3785 65.6496 56.561 66.0249C60.6362 66.4003 64.4702 63.6119 65.3549 59.5367C65.7303 57.794 65.489 55.9976 65.5694 54.2013C62.9419 53.3702 60.9311 51.8152 59.4297 49.563C56.9095 53.2093 53.4509 54.8984 49.0271 54.6839ZM68.894 53.4238C69.9396 48.6515 65.4085 41.6806 60.9043 41.2517C61.1456 42.3777 61.1992 43.5306 61.092 44.6567C60.9848 45.8363 60.6898 46.9624 60.2072 48.0348C60.1 48.2761 60.1804 48.4638 60.2877 48.6783C61.6818 51.5202 65.7571 53.7723 68.894 53.4238ZM68.9744 69.9393C68.9744 64.7648 68.9744 59.8048 68.9744 54.7643C68.2505 54.7107 67.5802 54.6571 66.8027 54.5767C66.6955 56.802 66.9904 58.9737 66.1861 61.0649C65.3549 63.1561 63.9876 64.7916 61.8695 66.1053C64.7919 66.5611 67.044 67.7676 68.9744 69.9393Z" fill="#333133"></path><path d="M17.9801 65.9718C13.6099 63.3175 12.8324 59.135 13.315 54.5235C12.2694 54.2018 11.3578 53.9069 10.4731 53.5047C9.99046 53.2634 9.77597 53.0221 9.77597 52.4591C9.74916 44.1209 17.2026 37.9812 25.3799 39.5631C30.9029 40.6355 35.3803 45.8368 35.6216 51.4671C35.6485 52.0569 35.6485 52.6736 35.6485 53.2634C35.6485 54.6844 35.6485 54.7112 34.2007 54.6844C33.5572 54.6844 32.9406 54.6039 32.1362 54.5771C32.6188 59.2154 31.8145 63.3175 27.5248 65.9449C27.6588 66.2935 27.9269 66.2131 28.1414 66.2667C32.4848 67.0978 35.9434 70.5564 36.7477 74.8998C37.0158 76.2939 36.2115 77.3396 34.7905 77.4736C34.4152 77.5004 34.0666 77.4736 33.6913 77.4736C26.2646 77.4736 18.8112 77.4736 11.3846 77.4736C9.13251 77.4736 8.27456 76.4548 8.8644 74.3099C10.0441 69.9398 12.886 67.2587 17.3098 66.2667C17.4707 66.2399 17.6316 66.213 17.7924 66.1594C17.8192 66.1594 17.846 66.1326 17.9801 65.9718ZM14.2802 53.3975C20.6612 54.4431 26.4791 48.357 25.2458 41.9224C25.0582 40.984 24.7364 40.4478 23.7176 40.5819C17.0953 40.0456 11.3042 45.0861 11.0093 51.6011C10.9825 52.2446 11.1433 52.5931 11.76 52.7808C12.5911 53.0489 13.3954 53.4243 14.2802 53.3975ZM13.6367 76.2671C20.6076 76.2939 27.5516 76.2939 34.5224 76.2939C35.4608 76.2939 35.7557 75.865 35.5412 74.8998C34.6833 71.3071 32.5384 68.7869 28.9725 67.7145C26.077 66.8565 23.101 67.2051 20.1518 67.4464C20.0982 67.3927 20.0713 67.3123 20.0177 67.3123C15.4867 66.9101 10.768 70.1274 9.91002 75.2215C9.77597 75.9454 10.1781 76.2939 10.8752 76.2939C11.76 76.2939 12.6984 76.2671 13.6367 76.2671ZM14.4679 54.6844C14.4679 55.8104 14.4411 56.9097 14.4679 57.9821C14.5751 62.1914 17.7388 65.5964 21.9481 66.0254C26.0502 66.4543 29.9109 63.6392 30.8225 59.5103C31.171 57.9017 30.9566 56.2394 31.0102 54.6039C31.037 54.2554 30.7957 54.1482 30.5276 54.0677C28.1414 53.2366 26.2915 51.7084 24.8705 49.5903C22.3235 53.183 18.9185 54.8989 14.4679 54.6844ZM34.3615 53.5315C35.0854 48.1961 31.3587 42.4586 26.3987 41.1717C26.3719 41.2789 26.3451 41.3594 26.3451 41.4666C26.7741 43.6919 26.5328 45.8636 25.6748 47.9548C25.5139 48.3302 25.6212 48.5983 25.8089 48.8664C27.8197 51.9229 30.6616 53.4511 34.3615 53.5315Z" fill="#333133"></path><path d="M29.1601 26.7204C30.8492 26.7204 32.3238 26.9081 33.7448 26.5328C36.3186 25.8625 38.0613 23.6908 38.1686 20.9829C38.2222 19.133 38.1686 17.3098 38.1954 15.4599C38.1954 14.8968 37.8737 14.6287 37.5519 14.2802C34.6564 11.0093 34.8172 6.04926 37.8737 2.99282C38.5171 2.34936 38.9461 2.32255 39.6164 2.99282C42.646 6.02245 42.8605 10.902 40.0185 14.1998C39.5359 14.736 39.3483 15.2722 39.3483 15.9961C39.3483 17.9265 39.5091 19.8837 39.2678 21.8141C38.812 25.2995 36.0505 27.8465 32.5115 27.9269C28.892 28.0074 25.2726 27.9537 21.6531 27.9537C21.2241 27.9537 20.6879 27.9805 20.7147 27.3371C20.7415 26.8009 21.1973 26.7741 21.6263 26.7741C22.4574 26.7741 23.2886 26.7741 24.1733 26.7741C24.3074 26.1574 24.3878 25.5944 24.5487 25.0582C25.353 22.3771 27.9 20.5271 30.6615 20.5808C31.3854 20.6076 31.6535 20.8757 31.6535 21.5996C31.6535 23.5836 30.7956 25.219 29.1601 26.7204ZM38.7584 13.7172C41.5468 11.2506 41.5468 6.04926 38.7584 3.9312C35.9701 6.21013 35.9701 11.331 38.7584 13.7172ZM25.487 26.64C28.1949 26.7472 30.5275 24.3879 30.3666 21.7872C27.6319 21.8677 25.6479 23.8249 25.487 26.64Z" fill="#333133"></path><path d="M44.5497 28.4093C43.4237 27.2296 42.807 25.8355 42.7802 24.2C42.7802 23.9587 42.4317 23.7442 42.244 23.5029C40.3404 21.1436 40.3672 17.819 42.3512 15.5669C43.2896 14.4945 43.5845 14.4945 44.5229 15.6205C46.4265 17.8995 46.4801 21.1704 44.5765 23.4761C44.0135 24.1732 43.9331 24.8167 44.1744 25.5942C44.7106 27.3101 46.0243 28.4093 47.8206 28.5434C50.8771 28.731 53.9067 28.5702 56.9631 28.6238C57.2581 28.6238 57.5798 28.6238 57.8747 28.6506C58.1964 28.6774 58.3573 28.8919 58.3573 29.2136C58.3573 29.5354 58.1964 29.723 57.8747 29.7499C57.5798 29.7767 57.2849 29.8035 56.9631 29.8035C52.5394 29.8035 48.1156 29.8035 43.6918 29.8035C41.3592 29.8035 39.7774 31.0636 39.3216 33.1548C39.1875 33.7983 39.268 34.2541 39.7238 34.7903C41.815 37.2569 41.7078 40.7423 39.5361 43.0212C38.7854 43.8256 38.5173 43.8256 37.7666 42.9944C35.6753 40.7423 35.5681 37.3105 37.4716 34.8975C37.7666 34.5222 38.0079 34.2005 38.0883 33.6911C38.4368 30.5274 40.4476 28.7042 43.6113 28.597C43.8794 28.597 44.2012 28.6774 44.5497 28.4093ZM43.4505 16.2104C41.5469 18.0335 41.5737 21.1704 43.4237 22.9131C45.2736 21.1436 45.3004 18.2748 43.4505 16.2104ZM38.6781 42.1633C40.5281 40.2061 40.5013 37.4178 38.7049 35.4338C36.8014 37.0692 36.7746 40.2597 38.6781 42.1633Z" fill="#333133"></path><path d="M17.2291 37.525C18.3015 36.4526 19.2667 35.5947 20.0978 34.6295C20.8486 33.7447 21.6797 33.5034 22.8057 33.5034C26.4788 33.5838 30.1787 33.5302 33.8518 33.5302C34.1467 33.5302 34.4685 33.5034 34.7634 33.5839C35.0315 33.6375 35.2192 33.852 35.2192 34.1737C35.1924 34.4954 35.0315 34.6831 34.7366 34.7099C34.4685 34.7367 34.2004 34.7367 33.9323 34.7367C30.1251 34.7367 26.2912 34.7367 22.484 34.7367C21.9478 34.7367 21.5456 34.8976 21.1703 35.2729C20.3391 36.1577 19.4812 36.9888 18.6232 37.8468C18.087 38.383 17.4972 38.7047 16.7465 38.3562C16.0226 38.0345 15.8349 37.4446 15.8617 36.7207C15.8885 36.1041 15.8617 35.4606 15.8617 34.7903C15.3791 34.6831 14.977 34.5759 14.548 34.4686C11.9742 33.6643 10.1242 31.2781 10.0706 28.5434C10.0438 26.7471 10.0438 24.9239 10.0706 23.1276C10.0974 19.5618 12.7249 16.7466 16.2907 16.693C22.4304 16.6126 28.5433 16.6662 34.683 16.6662C35.1387 16.6662 35.6213 16.693 35.5945 17.3097C35.5677 17.9531 35.0315 17.8727 34.6025 17.8727C28.7309 17.8727 22.8862 17.8727 17.0146 17.8727C13.3147 17.8727 11.2503 19.9639 11.2503 23.6638C11.2503 25.2457 11.2234 26.8007 11.2503 28.3825C11.2771 31.1709 13.2343 33.3157 15.9958 33.5302C16.7733 33.5839 17.0414 33.9056 17.0414 34.6563C17.0414 35.4874 16.9074 36.399 17.2291 37.525Z" fill="#333133"></path><path d="M64.1753 34.7637C64.1753 35.4876 64.1753 36.1579 64.1753 36.8282C64.1753 37.5253 63.9072 38.0615 63.2637 38.3564C62.5666 38.6513 62.0304 38.41 61.521 37.9274C60.6631 37.0695 59.7783 36.2383 58.974 35.3536C58.5182 34.871 58.0624 34.6833 57.3921 34.6833C52.8343 34.7101 48.2764 34.7101 43.7186 34.7101C43.4505 34.7101 43.1824 34.7101 42.9143 34.6833C42.6193 34.6565 42.4317 34.442 42.4049 34.1471C42.378 33.8254 42.5925 33.6377 42.8606 33.5573C43.1019 33.5036 43.3969 33.5036 43.665 33.5036C48.3837 33.5036 53.1024 33.5036 57.8479 33.4768C58.545 33.4768 59.0544 33.6913 59.5102 34.2007C60.5022 35.2732 61.5478 36.292 62.7007 37.4985C63.1565 36.5065 62.9956 35.7021 62.942 34.9514C62.9152 33.9862 63.1297 33.5305 64.2557 33.45C66.6687 33.2623 68.6527 31.1175 68.7331 28.6777C68.7868 26.6937 68.7868 24.7097 68.7331 22.7525C68.6527 19.9641 66.347 17.8461 63.4246 17.8193C58.5986 17.7925 53.7727 17.8193 48.9467 17.8193C48.7054 17.8193 48.4641 17.8193 48.2496 17.8193C47.8475 17.8193 47.5525 17.6584 47.5525 17.2563C47.5257 16.8005 47.8743 16.6128 48.2764 16.6128C49.3221 16.6128 50.3409 16.6128 51.3865 16.6128C55.2741 16.6128 59.1616 16.6128 63.0492 16.6128C67.2853 16.6128 69.9396 19.2939 69.9664 23.5032C69.9664 24.7633 69.886 26.0502 69.9932 27.3103C70.2345 30.8226 68.4382 33.9862 64.1753 34.7637Z" fill="#333133"></path><path d="M55.0329 67.3117C57.4727 67.3117 59.9393 66.9899 62.3255 67.4457C66.4007 68.1964 68.9478 70.7166 70.0202 74.7115C70.3419 75.9448 70.047 76.2933 68.7869 76.2933C62.4863 76.2933 56.2126 76.2933 49.912 76.2933C49.349 76.2933 48.786 76.2665 48.223 76.2397C47.5527 75.6766 47.794 74.9528 47.9817 74.2825C48.9737 70.6094 51.2258 68.1964 55.0329 67.3117Z" fill="#BED173"></path><path d="M57.8746 40.5818C59.5637 40.555 59.6173 40.5818 59.8854 42.1905C60.9311 48.5446 55.1667 54.4162 48.893 53.3974C48.893 53.1025 48.893 52.8076 48.893 52.4858C48.8126 47.3382 51.9494 41.7079 57.8746 40.5818Z" fill="#BED173"></path><path d="M68.894 53.424C65.7571 53.7457 61.6819 51.4936 60.2877 48.7053C60.1805 48.4908 60.1 48.3031 60.2073 48.0618C60.6899 46.9894 60.9848 45.8365 61.092 44.6837C61.1993 43.5576 61.1456 42.4047 60.9043 41.2787C65.4086 41.7077 69.9664 48.6517 68.894 53.424Z" fill="#BED173"></path><path d="M68.9743 69.9396C67.0439 67.768 64.765 66.5615 61.8426 66.1057C63.9606 64.792 65.3548 63.1833 66.1591 61.0653C66.9903 58.974 66.6685 56.7755 66.7758 54.577C67.5533 54.6306 68.2236 54.6843 68.9475 54.7647C68.9743 59.8051 68.9743 64.7652 68.9743 69.9396Z" fill="#BED173"></path><path d="M48.8927 67.2581C48.8927 65.5959 48.8927 63.9336 48.9195 62.2445C49.4557 62.9416 49.9383 63.6387 50.5014 64.3089C51.0644 64.9792 51.7883 65.4618 52.6998 66.0785C51.2521 66.3734 50.0456 66.7487 48.8927 67.2581Z" fill="#BED173"></path><path d="M20.1247 67.4459C23.0739 67.2046 26.0767 66.8561 28.9455 67.7141C32.5113 68.7865 34.6562 71.3067 35.5141 74.8994C35.7554 75.8377 35.4337 76.2935 34.4953 76.2935C27.5245 76.2935 20.5805 76.2667 13.6096 76.2667C13.127 75.9182 13.1807 75.4088 13.2343 74.8994C13.6365 71.4408 16.6929 68.143 20.1247 67.4459Z" fill="#BED173"></path><path d="M23.7174 40.5814C24.7362 40.4474 25.0847 40.9836 25.2456 41.922C26.4789 48.3298 20.661 54.4426 14.28 53.397C14.3336 47.3378 17.9531 42.4314 23.7174 40.5814Z" fill="#BED173"></path><path d="M34.3617 53.5311C30.6618 53.4238 27.8199 51.9224 25.8359 48.866C25.6482 48.5711 25.541 48.3298 25.7018 47.9544C26.5866 45.8632 26.8011 43.6915 26.3721 41.4662C26.3453 41.3857 26.3989 41.2785 26.4257 41.1713C31.3589 42.4582 35.0856 48.1957 34.3617 53.5311Z" fill="#BED173"></path><path d="M38.7588 13.7172C35.9705 11.3043 35.9705 6.2102 38.7588 3.93127C41.5471 6.04933 41.5471 11.2775 38.7588 13.7172Z" fill="#BED173"></path><path d="M25.487 26.6401C25.6479 23.825 27.6319 21.8678 30.3666 21.7874C30.5274 24.388 28.1949 26.7474 25.487 26.6401Z" fill="#BED173"></path><path d="M43.4503 16.2102C45.3003 18.2746 45.2735 21.1434 43.4235 22.9129C41.5468 21.1702 41.5468 18.0333 43.4503 16.2102Z" fill="#BED173"></path><path d="M38.678 42.1634C36.7744 40.2598 36.8012 37.0961 38.7048 35.4338C40.5011 37.4178 40.5011 40.2062 38.678 42.1634Z" fill="#BED173"></path></svg>