<svg xmlns="http://www.w3.org/2000/svg" width="165" height="56" viewBox="0 0 165 56" fill="none"><path d="M5.07414 34.55V31.68H11.6891C12.5991 31.68 13.4041 31.4933 14.1041 31.12C14.8275 30.7466 15.3875 30.2216 15.7841 29.545C16.2041 28.8683 16.4141 28.0633 16.4141 27.13C16.4141 26.1966 16.2041 25.3916 15.7841 24.715C15.3875 24.0383 14.8275 23.5133 14.1041 23.14C13.4041 22.7666 12.5991 22.58 11.6891 22.58H5.07414V19.71H11.8991C13.3925 19.71 14.7225 20.0133 15.8891 20.62C17.0791 21.2266 18.0125 22.09 18.6891 23.21C19.3891 24.3066 19.7391 25.6133 19.7391 27.13C19.7391 28.6233 19.3891 29.93 18.6891 31.05C18.0125 32.1466 17.0791 33.01 15.8891 33.64C14.7225 34.2466 13.3925 34.55 11.8991 34.55H5.07414ZM2.86914 44V19.71H6.15914V44H2.86914Z" fill="#333133"></path><path d="M21.5347 44V27.375H24.6847V44H21.5347ZM24.6847 34.515L23.4947 33.99C23.4947 31.8666 23.9847 30.175 24.9647 28.915C25.9447 27.655 27.3564 27.025 29.1997 27.025C30.0397 27.025 30.7981 27.1766 31.4747 27.48C32.1514 27.76 32.7814 28.2383 33.3647 28.915L31.2997 31.05C30.9497 30.6766 30.5647 30.4083 30.1447 30.245C29.7247 30.0816 29.2347 30 28.6747 30C27.5081 30 26.5514 30.3733 25.8047 31.12C25.0581 31.8666 24.6847 32.9983 24.6847 34.515Z" fill="#333133"></path><path d="M40.1057 44.35C38.589 44.35 37.2124 43.9766 35.9757 43.23C34.739 42.46 33.759 41.4216 33.0357 40.115C32.3357 38.8083 31.9857 37.3383 31.9857 35.705C31.9857 34.0716 32.3357 32.6016 33.0357 31.295C33.759 29.9883 34.7274 28.95 35.9407 28.18C37.1774 27.41 38.5657 27.025 40.1057 27.025C41.3657 27.025 42.4857 27.2933 43.4657 27.83C44.469 28.3433 45.274 29.0666 45.8807 30C46.4874 30.91 46.8257 31.9716 46.8957 33.185V38.19C46.8257 39.38 46.4874 40.4416 45.8807 41.375C45.2974 42.3083 44.504 43.0433 43.5007 43.58C42.5207 44.0933 41.389 44.35 40.1057 44.35ZM40.6307 41.375C42.194 41.375 43.454 40.85 44.4107 39.8C45.3674 38.7266 45.8457 37.3616 45.8457 35.705C45.8457 34.5616 45.624 33.57 45.1807 32.73C44.7607 31.8666 44.154 31.2016 43.3607 30.735C42.5674 30.245 41.6457 30 40.5957 30C39.5457 30 38.6124 30.245 37.7957 30.735C37.0024 31.225 36.3724 31.9016 35.9057 32.765C35.4624 33.605 35.2407 34.5733 35.2407 35.67C35.2407 36.79 35.4624 37.7816 35.9057 38.645C36.3724 39.485 37.014 40.15 37.8307 40.64C38.6474 41.13 39.5807 41.375 40.6307 41.375ZM45.6357 44V39.52L46.2307 35.46L45.6357 31.435V27.375H48.8207V44H45.6357Z" fill="#333133"></path><path d="M59.0018 44.35C57.3685 44.35 55.8868 43.965 54.5568 43.195C53.2501 42.425 52.2118 41.3866 51.4418 40.08C50.6951 38.75 50.3218 37.28 50.3218 35.67C50.3218 34.0366 50.6951 32.5666 51.4418 31.26C52.2118 29.9533 53.2501 28.9266 54.5568 28.18C55.8868 27.41 57.3685 27.025 59.0018 27.025C60.2851 27.025 61.4751 27.27 62.5718 27.76C63.6685 28.2266 64.6135 28.915 65.4068 29.825L63.3068 31.925C62.7935 31.3183 62.1635 30.8633 61.4168 30.56C60.6935 30.2333 59.8885 30.07 59.0018 30.07C57.9518 30.07 57.0185 30.315 56.2018 30.805C55.3851 31.2716 54.7435 31.925 54.2768 32.765C53.8101 33.605 53.5768 34.5733 53.5768 35.67C53.5768 36.7666 53.8101 37.735 54.2768 38.575C54.7435 39.415 55.3851 40.08 56.2018 40.57C57.0185 41.06 57.9518 41.305 59.0018 41.305C59.8885 41.305 60.6935 41.1533 61.4168 40.85C62.1635 40.5233 62.8051 40.0566 63.3418 39.45L65.4068 41.55C64.6368 42.4366 63.6918 43.125 62.5718 43.615C61.4751 44.105 60.2851 44.35 59.0018 44.35Z" fill="#333133"></path><path d="M69.0858 44V20.41H72.2358V44H69.0858ZM64.9908 30.245V27.375H76.3308V30.245H64.9908Z" fill="#333133"></path><path d="M77.4516 44V27.375H80.6016V44H77.4516ZM79.0266 24.05C78.4432 24.05 77.9649 23.8633 77.5916 23.49C77.2182 23.0933 77.0316 22.6033 77.0316 22.02C77.0316 21.46 77.2182 20.9933 77.5916 20.62C77.9649 20.2233 78.4432 20.025 79.0266 20.025C79.6099 20.025 80.0882 20.2233 80.4616 20.62C80.8349 20.9933 81.0216 21.46 81.0216 22.02C81.0216 22.6033 80.8349 23.0933 80.4616 23.49C80.0882 23.8633 79.6099 24.05 79.0266 24.05Z" fill="#333133"></path><path d="M85.7987 44V20.41H88.9487V44H85.7987ZM81.7037 30.245V27.375H93.0437V30.245H81.7037Z" fill="#333133"></path><path d="M94.1645 44V27.375H97.3145V44H94.1645ZM95.7395 24.05C95.1561 24.05 94.6778 23.8633 94.3045 23.49C93.9311 23.0933 93.7445 22.6033 93.7445 22.02C93.7445 21.46 93.9311 20.9933 94.3045 20.62C94.6778 20.2233 95.1561 20.025 95.7395 20.025C96.3228 20.025 96.8011 20.2233 97.1745 20.62C97.5478 20.9933 97.7345 21.46 97.7345 22.02C97.7345 22.6033 97.5478 23.0933 97.1745 23.49C96.8011 23.8633 96.3228 24.05 95.7395 24.05Z" fill="#333133"></path><path d="M107.552 44.35C105.918 44.35 104.448 43.965 103.142 43.195C101.835 42.425 100.797 41.3866 100.027 40.08C99.2566 38.75 98.8716 37.2683 98.8716 35.635C98.8716 34.025 99.2566 32.5783 100.027 31.295C100.797 29.9883 101.835 28.95 103.142 28.18C104.448 27.41 105.918 27.025 107.552 27.025C109.162 27.025 110.62 27.41 111.927 28.18C113.257 28.9266 114.307 29.9533 115.077 31.26C115.847 32.5666 116.232 34.025 116.232 35.635C116.232 37.2683 115.847 38.75 115.077 40.08C114.307 41.3866 113.257 42.425 111.927 43.195C110.62 43.965 109.162 44.35 107.552 44.35ZM107.552 41.305C108.602 41.305 109.535 41.06 110.352 40.57C111.168 40.08 111.81 39.415 112.277 38.575C112.743 37.7116 112.977 36.7316 112.977 35.635C112.977 34.5616 112.732 33.605 112.242 32.765C111.775 31.925 111.133 31.2716 110.317 30.805C109.523 30.315 108.602 30.07 107.552 30.07C106.502 30.07 105.568 30.315 104.752 30.805C103.935 31.2716 103.293 31.925 102.827 32.765C102.36 33.605 102.127 34.5616 102.127 35.635C102.127 36.7316 102.36 37.7116 102.827 38.575C103.293 39.415 103.935 40.08 104.752 40.57C105.568 41.06 106.502 41.305 107.552 41.305Z" fill="#333133"></path><path d="M129.541 44V34.305C129.541 33.045 129.144 32.0066 128.351 31.19C127.557 30.3733 126.531 29.965 125.271 29.965C124.431 29.965 123.684 30.1516 123.031 30.525C122.377 30.8983 121.864 31.4116 121.491 32.065C121.117 32.7183 120.931 33.465 120.931 34.305L119.636 33.57C119.636 32.31 119.916 31.19 120.476 30.21C121.036 29.23 121.817 28.46 122.821 27.9C123.824 27.3166 124.956 27.025 126.216 27.025C127.476 27.025 128.584 27.34 129.541 27.97C130.521 28.6 131.291 29.4283 131.851 30.455C132.411 31.4583 132.691 32.5316 132.691 33.675V44H129.541ZM117.781 44V27.375H120.931V44H117.781Z" fill="#333133"></path><path d="M142.656 44.35C140.999 44.35 139.506 43.9766 138.176 43.23C136.846 42.46 135.796 41.4216 135.026 40.115C134.256 38.8083 133.871 37.3266 133.871 35.67C133.871 34.0366 134.244 32.5666 134.991 31.26C135.761 29.9533 136.787 28.9266 138.071 28.18C139.377 27.41 140.836 27.025 142.446 27.025C143.986 27.025 145.339 27.375 146.506 28.075C147.696 28.775 148.617 29.7433 149.271 30.98C149.947 32.2166 150.286 33.6166 150.286 35.18C150.286 35.4133 150.274 35.67 150.251 35.95C150.227 36.2066 150.181 36.51 150.111 36.86H136.076V34.235H148.431L147.276 35.25C147.276 34.13 147.077 33.185 146.681 32.415C146.284 31.6216 145.724 31.015 145.001 30.595C144.277 30.1516 143.402 29.93 142.376 29.93C141.302 29.93 140.357 30.1633 139.541 30.63C138.724 31.0966 138.094 31.75 137.651 32.59C137.207 33.43 136.986 34.4216 136.986 35.565C136.986 36.7316 137.219 37.7583 137.686 38.645C138.152 39.5083 138.817 40.185 139.681 40.675C140.544 41.1416 141.536 41.375 142.656 41.375C143.589 41.375 144.441 41.2116 145.211 40.885C146.004 40.5583 146.681 40.0683 147.241 39.415L149.271 41.48C148.477 42.4133 147.497 43.125 146.331 43.615C145.187 44.105 143.962 44.35 142.656 44.35Z" fill="#333133"></path><path d="M151.72 44V27.375H154.87V44H151.72ZM154.87 34.515L153.68 33.99C153.68 31.8666 154.17 30.175 155.15 28.915C156.13 27.655 157.542 27.025 159.385 27.025C160.225 27.025 160.984 27.1766 161.66 27.48C162.337 27.76 162.967 28.2383 163.55 28.915L161.485 31.05C161.135 30.6766 160.75 30.4083 160.33 30.245C159.91 30.0816 159.42 30 158.86 30C157.694 30 156.737 30.3733 155.99 31.12C155.244 31.8666 154.87 32.9983 154.87 34.515Z" fill="#333133"></path><path d="M37.709 10.541C37.9023 10.541 38.0342 10.6436 38.1045 10.8486C38.1748 11.0537 38.2334 11.3584 38.2803 11.7627C38.3213 12.1201 38.3682 12.3867 38.4209 12.5625C38.4795 12.7383 38.582 12.8262 38.7285 12.8262C38.957 12.8262 39.1797 12.7236 39.3965 12.5186L39.959 9.89062H30.0449L29.4297 12.6152C29.4883 12.6855 29.5586 12.7412 29.6406 12.7822C29.7227 12.8174 29.8076 12.835 29.8955 12.835C30.0713 12.835 30.2295 12.7441 30.3701 12.5625C30.5107 12.375 30.6865 12.0879 30.8975 11.7012C31.0967 11.3203 31.2725 11.0332 31.4248 10.8398C31.5771 10.6406 31.7441 10.541 31.9258 10.541H34.0615L32.207 19.1104C32.1074 19.5791 31.8965 19.9014 31.5742 20.0771C31.252 20.2529 30.8271 20.3408 30.2998 20.3408L30.1152 20.833L30.1855 21H35.0898C35.207 20.9004 35.2656 20.7686 35.2656 20.6045C35.2656 20.5693 35.2598 20.5254 35.248 20.4727C35.2422 20.4199 35.2363 20.3789 35.2305 20.3496C34.8379 20.3379 34.4951 20.2793 34.2021 20.1738C33.915 20.0684 33.7715 19.8633 33.7715 19.5586C33.7715 19.1074 33.8857 18.3545 34.1143 17.2998C34.3428 16.2451 34.6621 14.874 35.0723 13.1865C35.3594 12.0439 35.5703 11.1621 35.7051 10.541H37.709Z" fill="#989898"></path><path d="M43.0267 9.5918C43.1029 9.29297 43.141 9.05273 43.141 8.87109C43.141 8.74805 43.1234 8.66895 43.0882 8.63379C43.0531 8.59863 42.974 8.58105 42.8509 8.58105C42.7806 8.58105 42.725 8.58398 42.6839 8.58984L40.0648 8.90625C40.0238 8.91211 39.974 8.99414 39.9154 9.15234C39.8568 9.30469 39.8275 9.4248 39.8275 9.5127C39.8275 9.54785 39.8392 9.57422 39.8627 9.5918C39.892 9.60938 39.9593 9.61816 40.0648 9.61816H41.6293L38.9838 19.3916C38.9252 19.5967 38.8812 19.7637 38.8519 19.8926C38.8285 20.0215 38.8168 20.1504 38.8168 20.2793C38.8168 20.5723 38.8812 20.7949 39.0101 20.9473C39.1449 21.0938 39.3148 21.167 39.5199 21.167C39.6781 21.167 39.8363 21.1201 39.9945 21.0264C40.1586 20.9326 40.2963 20.8037 40.4076 20.6396C41.3099 19.2803 41.8607 18.4424 42.0599 18.126L42.1566 17.9766C42.766 17.0039 43.3783 16.1279 43.9935 15.3486C44.6088 14.5693 45.1361 14.1797 45.5755 14.1797C45.7162 14.1797 45.8246 14.2295 45.9007 14.3291C45.9769 14.4229 46.015 14.5342 46.015 14.6631C46.015 14.8271 45.9711 15.0352 45.8832 15.2871C45.7953 15.5391 45.6605 15.8877 45.4789 16.333C45.18 17.0479 44.9457 17.6748 44.7757 18.2139C44.6117 18.7529 44.5296 19.2744 44.5296 19.7783C44.5296 20.2002 44.6322 20.5371 44.8373 20.7891C45.0423 21.041 45.3324 21.167 45.7074 21.167C46.0765 21.167 46.4105 21.0879 46.7093 20.9297C47.0082 20.7656 47.2953 20.5371 47.5707 20.2441C47.8461 19.9512 48.1712 19.5469 48.5462 19.0312L48.7396 18.7676C48.5814 18.627 48.4144 18.4834 48.2386 18.3369L48.1244 18.5039C47.8431 18.9141 47.6146 19.2305 47.4388 19.4531C47.2689 19.6699 47.0931 19.8486 46.9115 19.9893C46.7357 20.1299 46.557 20.2002 46.3754 20.2002C46.1293 20.2002 46.0062 20.0039 46.0062 19.6113C46.0062 19.3125 46.056 18.9961 46.1556 18.6621C46.2611 18.3281 46.4252 17.874 46.6478 17.2998C46.8822 16.7021 47.0609 16.1953 47.1839 15.7793C47.3129 15.3633 47.3773 14.9648 47.3773 14.584C47.3773 14.1973 47.2543 13.8662 47.0082 13.5908C46.7679 13.3096 46.3929 13.1689 45.8832 13.1689C45.3148 13.1689 44.7347 13.4355 44.1429 13.9688C43.557 14.4961 43.0355 15.0908 42.5785 15.7529C42.1214 16.415 41.6293 17.1826 41.1019 18.0557C41.0316 18.1846 40.9203 18.3721 40.7679 18.6182L40.6449 18.5566L43.0267 9.5918Z" fill="#989898"></path><path d="M53.24 13.1689C52.5134 13.1689 51.8308 13.3652 51.1921 13.7578C50.5534 14.1445 50.0407 14.6719 49.654 15.3398C49.2732 16.002 49.0827 16.7256 49.0827 17.5107C49.0827 18.1729 49.2321 18.7852 49.531 19.3477C49.8298 19.9043 50.2341 20.3467 50.7439 20.6748C51.2595 21.0029 51.8161 21.167 52.4138 21.167C53.0818 21.167 53.7175 20.959 54.321 20.543C54.9245 20.1211 55.4636 19.5791 55.9382 18.917L55.323 18.5215C55.0241 18.8906 54.7517 19.1982 54.5056 19.4443C54.2595 19.6904 53.9724 19.8955 53.6443 20.0596C53.3161 20.2236 52.9499 20.3057 52.5456 20.3057C52.1941 20.3057 51.8718 20.209 51.5788 20.0156C51.2859 19.8164 51.0544 19.5615 50.8845 19.251C50.7146 18.9346 50.6296 18.6094 50.6296 18.2754L50.6384 17.9414C51.406 17.8887 52.1501 17.7979 52.8708 17.6689C53.5915 17.5342 54.2448 17.2822 54.8308 16.9131C55.4226 16.5439 55.7185 16.0283 55.7185 15.3662C55.7185 14.8975 55.5925 14.499 55.3405 14.1709C55.0945 13.8369 54.781 13.5879 54.4001 13.4238C54.0193 13.2539 53.6325 13.1689 53.24 13.1689ZM53.2488 13.8105C53.4597 13.8105 53.6589 13.8691 53.8464 13.9863C54.0398 14.0977 54.195 14.2559 54.3122 14.4609C54.4294 14.6602 54.488 14.8828 54.488 15.1289C54.488 15.5918 54.28 15.9873 53.864 16.3154C53.4538 16.6436 52.9704 16.8926 52.4138 17.0625C51.863 17.2266 51.3884 17.3086 50.99 17.3086C50.9372 17.3086 50.823 17.3027 50.6472 17.291C50.6765 16.7812 50.7966 16.2568 51.0075 15.7178C51.2243 15.1787 51.5232 14.7275 51.904 14.3643C52.2849 13.9951 52.7331 13.8105 53.2488 13.8105Z" fill="#989898"></path></svg>