<svg xmlns="http://www.w3.org/2000/svg" width="165" height="57" viewBox="0 0 165 57" fill="none"><path d="M5.075 35.05V32.18H11.69C12.6 32.18 13.405 31.9933 14.105 31.62C14.8283 31.2467 15.3883 30.7217 15.785 30.045C16.205 29.3683 16.415 28.5633 16.415 27.63C16.415 26.6967 16.205 25.8917 15.785 25.215C15.3883 24.5383 14.8283 24.0133 14.105 23.64C13.405 23.2667 12.6 23.08 11.69 23.08H5.075V20.21H11.9C13.3933 20.21 14.7233 20.5133 15.89 21.12C17.08 21.7267 18.0133 22.59 18.69 23.71C19.39 24.8067 19.74 26.1133 19.74 27.63C19.74 29.1233 19.39 30.43 18.69 31.55C18.0133 32.6467 17.08 33.51 15.89 34.14C14.7233 34.7467 13.3933 35.05 11.9 35.05H5.075ZM2.87 44.5V20.21H6.16V44.5H2.87ZM21.5356 44.5V27.875H24.6856V44.5H21.5356ZM24.6856 35.015L23.4956 34.49C23.4956 32.3667 23.9856 30.675 24.9656 29.415C25.9456 28.155 27.3573 27.525 29.2006 27.525C30.0406 27.525 30.7989 27.6767 31.4756 27.98C32.1523 28.26 32.7823 28.7383 33.3656 29.415L31.3006 31.55C30.9506 31.1767 30.5656 30.9083 30.1456 30.745C29.7256 30.5817 29.2356 30.5 28.6756 30.5C27.5089 30.5 26.5523 30.8733 25.8056 31.62C25.0589 32.3667 24.6856 33.4983 24.6856 35.015ZM40.1066 44.85C38.5899 44.85 37.2132 44.4767 35.9766 43.73C34.7399 42.96 33.7599 41.9217 33.0366 40.615C32.3366 39.3083 31.9866 37.8383 31.9866 36.205C31.9866 34.5717 32.3366 33.1017 33.0366 31.795C33.7599 30.4883 34.7282 29.45 35.9416 28.68C37.1782 27.91 38.5666 27.525 40.1066 27.525C41.3666 27.525 42.4866 27.7933 43.4666 28.33C44.4699 28.8433 45.2749 29.5667 45.8816 30.5C46.4882 31.41 46.8266 32.4717 46.8966 33.685V38.69C46.8266 39.88 46.4882 40.9417 45.8816 41.875C45.2982 42.8083 44.5049 43.5433 43.5016 44.08C42.5216 44.5933 41.3899 44.85 40.1066 44.85ZM40.6316 41.875C42.1949 41.875 43.4549 41.35 44.4116 40.3C45.3682 39.2267 45.8466 37.8617 45.8466 36.205C45.8466 35.0617 45.6249 34.07 45.1816 33.23C44.7616 32.3667 44.1549 31.7017 43.3616 31.235C42.5682 30.745 41.6466 30.5 40.5966 30.5C39.5466 30.5 38.6132 30.745 37.7966 31.235C37.0032 31.725 36.3732 32.4017 35.9066 33.265C35.4632 34.105 35.2416 35.0733 35.2416 36.17C35.2416 37.29 35.4632 38.2817 35.9066 39.145C36.3732 39.985 37.0149 40.65 37.8316 41.14C38.6482 41.63 39.5816 41.875 40.6316 41.875ZM45.6366 44.5V40.02L46.2316 35.96L45.6366 31.935V27.875H48.8216V44.5H45.6366ZM59.0027 44.85C57.3693 44.85 55.8877 44.465 54.5577 43.695C53.251 42.925 52.2127 41.8867 51.4427 40.58C50.696 39.25 50.3227 37.78 50.3227 36.17C50.3227 34.5367 50.696 33.0667 51.4427 31.76C52.2127 30.4533 53.251 29.4267 54.5577 28.68C55.8877 27.91 57.3693 27.525 59.0027 27.525C60.286 27.525 61.476 27.77 62.5727 28.26C63.6693 28.7267 64.6143 29.415 65.4077 30.325L63.3077 32.425C62.7943 31.8183 62.1643 31.3633 61.4177 31.06C60.6943 30.7333 59.8893 30.57 59.0027 30.57C57.9527 30.57 57.0193 30.815 56.2027 31.305C55.386 31.7717 54.7443 32.425 54.2777 33.265C53.811 34.105 53.5777 35.0733 53.5777 36.17C53.5777 37.2667 53.811 38.235 54.2777 39.075C54.7443 39.915 55.386 40.58 56.2027 41.07C57.0193 41.56 57.9527 41.805 59.0027 41.805C59.8893 41.805 60.6943 41.6533 61.4177 41.35C62.1643 41.0233 62.806 40.5567 63.3427 39.95L65.4077 42.05C64.6377 42.9367 63.6927 43.625 62.5727 44.115C61.476 44.605 60.286 44.85 59.0027 44.85ZM69.0867 44.5V20.91H72.2367V44.5H69.0867ZM64.9917 30.745V27.875H76.3317V30.745H64.9917ZM77.4524 44.5V27.875H80.6024V44.5H77.4524ZM79.0274 24.55C78.4441 24.55 77.9658 24.3633 77.5924 23.99C77.2191 23.5933 77.0324 23.1033 77.0324 22.52C77.0324 21.96 77.2191 21.4933 77.5924 21.12C77.9658 20.7233 78.4441 20.525 79.0274 20.525C79.6108 20.525 80.0891 20.7233 80.4624 21.12C80.8358 21.4933 81.0224 21.96 81.0224 22.52C81.0224 23.1033 80.8358 23.5933 80.4624 23.99C80.0891 24.3633 79.6108 24.55 79.0274 24.55ZM85.7996 44.5V20.91H88.9496V44.5H85.7996ZM81.7046 30.745V27.875H93.0446V30.745H81.7046ZM94.1653 44.5V27.875H97.3153V44.5H94.1653ZM95.7403 24.55C95.157 24.55 94.6786 24.3633 94.3053 23.99C93.932 23.5933 93.7453 23.1033 93.7453 22.52C93.7453 21.96 93.932 21.4933 94.3053 21.12C94.6786 20.7233 95.157 20.525 95.7403 20.525C96.3236 20.525 96.802 20.7233 97.1753 21.12C97.5486 21.4933 97.7353 21.96 97.7353 22.52C97.7353 23.1033 97.5486 23.5933 97.1753 23.99C96.802 24.3633 96.3236 24.55 95.7403 24.55ZM107.552 44.85C105.919 44.85 104.449 44.465 103.142 43.695C101.836 42.925 100.797 41.8867 100.027 40.58C99.2575 39.25 98.8725 37.7683 98.8725 36.135C98.8725 34.525 99.2575 33.0783 100.027 31.795C100.797 30.4883 101.836 29.45 103.142 28.68C104.449 27.91 105.919 27.525 107.552 27.525C109.162 27.525 110.621 27.91 111.927 28.68C113.257 29.4267 114.307 30.4533 115.077 31.76C115.847 33.0667 116.232 34.525 116.232 36.135C116.232 37.7683 115.847 39.25 115.077 40.58C114.307 41.8867 113.257 42.925 111.927 43.695C110.621 44.465 109.162 44.85 107.552 44.85ZM107.552 41.805C108.602 41.805 109.536 41.56 110.352 41.07C111.169 40.58 111.811 39.915 112.277 39.075C112.744 38.2117 112.977 37.2317 112.977 36.135C112.977 35.0617 112.732 34.105 112.242 33.265C111.776 32.425 111.134 31.7717 110.317 31.305C109.524 30.815 108.602 30.57 107.552 30.57C106.502 30.57 105.569 30.815 104.752 31.305C103.936 31.7717 103.294 32.425 102.827 33.265C102.361 34.105 102.127 35.0617 102.127 36.135C102.127 37.2317 102.361 38.2117 102.827 39.075C103.294 39.915 103.936 40.58 104.752 41.07C105.569 41.56 106.502 41.805 107.552 41.805ZM129.542 44.5V34.805C129.542 33.545 129.145 32.5067 128.352 31.69C127.558 30.8733 126.532 30.465 125.272 30.465C124.432 30.465 123.685 30.6517 123.032 31.025C122.378 31.3983 121.865 31.9117 121.492 32.565C121.118 33.2183 120.932 33.965 120.932 34.805L119.637 34.07C119.637 32.81 119.917 31.69 120.477 30.71C121.037 29.73 121.818 28.96 122.822 28.4C123.825 27.8167 124.957 27.525 126.217 27.525C127.477 27.525 128.585 27.84 129.542 28.47C130.522 29.1 131.292 29.9283 131.852 30.955C132.412 31.9583 132.692 33.0317 132.692 34.175V44.5H129.542ZM117.782 44.5V27.875H120.932V44.5H117.782ZM142.656 44.85C141 44.85 139.506 44.4767 138.176 43.73C136.846 42.96 135.796 41.9217 135.026 40.615C134.256 39.3083 133.871 37.8267 133.871 36.17C133.871 34.5367 134.245 33.0667 134.991 31.76C135.761 30.4533 136.788 29.4267 138.071 28.68C139.378 27.91 140.836 27.525 142.446 27.525C143.986 27.525 145.34 27.875 146.506 28.575C147.696 29.275 148.618 30.2433 149.271 31.48C149.948 32.7167 150.286 34.1167 150.286 35.68C150.286 35.9133 150.275 36.17 150.251 36.45C150.228 36.7067 150.181 37.01 150.111 37.36H136.076V34.735H148.431L147.276 35.75C147.276 34.63 147.078 33.685 146.681 32.915C146.285 32.1217 145.725 31.515 145.001 31.095C144.278 30.6517 143.403 30.43 142.376 30.43C141.303 30.43 140.358 30.6633 139.541 31.13C138.725 31.5967 138.095 32.25 137.651 33.09C137.208 33.93 136.986 34.9217 136.986 36.065C136.986 37.2317 137.22 38.2583 137.686 39.145C138.153 40.0083 138.818 40.685 139.681 41.175C140.545 41.6417 141.536 41.875 142.656 41.875C143.59 41.875 144.441 41.7117 145.211 41.385C146.005 41.0583 146.681 40.5683 147.241 39.915L149.271 41.98C148.478 42.9133 147.498 43.625 146.331 44.115C145.188 44.605 143.963 44.85 142.656 44.85ZM151.721 44.5V27.875H154.871V44.5H151.721ZM154.871 35.015L153.681 34.49C153.681 32.3667 154.171 30.675 155.151 29.415C156.131 28.155 157.543 27.525 159.386 27.525C160.226 27.525 160.984 27.6767 161.661 27.98C162.338 28.26 162.968 28.7383 163.551 29.415L161.486 31.55C161.136 31.1767 160.751 30.9083 160.331 30.745C159.911 30.5817 159.421 30.5 158.861 30.5C157.694 30.5 156.738 30.8733 155.991 31.62C155.244 32.3667 154.871 33.4983 154.871 35.015Z" fill="white"></path><path opacity="0.8" d="M37.71 11.041C37.9033 11.041 38.0352 11.1436 38.1055 11.3486C38.1758 11.5537 38.2344 11.8584 38.2812 12.2627C38.3223 12.6201 38.3691 12.8867 38.4219 13.0625C38.4805 13.2383 38.583 13.3262 38.7295 13.3262C38.958 13.3262 39.1807 13.2236 39.3975 13.0186L39.96 10.3906H30.0459L29.4307 13.1152C29.4893 13.1855 29.5596 13.2412 29.6416 13.2822C29.7236 13.3174 29.8086 13.335 29.8965 13.335C30.0723 13.335 30.2305 13.2441 30.3711 13.0625C30.5117 12.875 30.6875 12.5879 30.8984 12.2012C31.0977 11.8203 31.2734 11.5332 31.4258 11.3398C31.5781 11.1406 31.7451 11.041 31.9268 11.041H34.0625L32.208 19.6104C32.1084 20.0791 31.8975 20.4014 31.5752 20.5771C31.2529 20.7529 30.8281 20.8408 30.3008 20.8408L30.1162 21.333L30.1865 21.5H35.0908C35.208 21.4004 35.2666 21.2686 35.2666 21.1045C35.2666 21.0693 35.2607 21.0254 35.249 20.9727C35.2432 20.9199 35.2373 20.8789 35.2314 20.8496C34.8389 20.8379 34.4961 20.7793 34.2031 20.6738C33.916 20.5684 33.7725 20.3633 33.7725 20.0586C33.7725 19.6074 33.8867 18.8545 34.1152 17.7998C34.3438 16.7451 34.6631 15.374 35.0732 13.6865C35.3604 12.5439 35.5713 11.6621 35.7061 11.041H37.71ZM43.0277 10.0918C43.1039 9.79297 43.142 9.55273 43.142 9.37109C43.142 9.24805 43.1244 9.16895 43.0892 9.13379C43.0541 9.09863 42.975 9.08105 42.8519 9.08105C42.7816 9.08105 42.7259 9.08398 42.6849 9.08984L40.0658 9.40625C40.0248 9.41211 39.975 9.49414 39.9164 9.65234C39.8578 9.80469 39.8285 9.9248 39.8285 10.0127C39.8285 10.0479 39.8402 10.0742 39.8636 10.0918C39.8929 10.1094 39.9603 10.1182 40.0658 10.1182H41.6302L38.9847 19.8916C38.9261 20.0967 38.8822 20.2637 38.8529 20.3926C38.8295 20.5215 38.8177 20.6504 38.8177 20.7793C38.8177 21.0723 38.8822 21.2949 39.0111 21.4473C39.1459 21.5938 39.3158 21.667 39.5209 21.667C39.6791 21.667 39.8373 21.6201 39.9955 21.5264C40.1595 21.4326 40.2972 21.3037 40.4086 21.1396C41.3109 19.7803 41.8617 18.9424 42.0609 18.626L42.1576 18.4766C42.767 17.5039 43.3793 16.6279 43.9945 15.8486C44.6097 15.0693 45.1371 14.6797 45.5765 14.6797C45.7171 14.6797 45.8255 14.7295 45.9017 14.8291C45.9779 14.9229 46.016 15.0342 46.016 15.1631C46.016 15.3271 45.972 15.5352 45.8841 15.7871C45.7963 16.0391 45.6615 16.3877 45.4798 16.833C45.181 17.5479 44.9466 18.1748 44.7767 18.7139C44.6127 19.2529 44.5306 19.7744 44.5306 20.2783C44.5306 20.7002 44.6332 21.0371 44.8382 21.2891C45.0433 21.541 45.3334 21.667 45.7084 21.667C46.0775 21.667 46.4115 21.5879 46.7103 21.4297C47.0091 21.2656 47.2963 21.0371 47.5716 20.7441C47.847 20.4512 48.1722 20.0469 48.5472 19.5312L48.7406 19.2676C48.5824 19.127 48.4154 18.9834 48.2396 18.8369L48.1254 19.0039C47.8441 19.4141 47.6156 19.7305 47.4398 19.9531C47.2699 20.1699 47.0941 20.3486 46.9125 20.4893C46.7367 20.6299 46.558 20.7002 46.3763 20.7002C46.1302 20.7002 46.0072 20.5039 46.0072 20.1113C46.0072 19.8125 46.057 19.4961 46.1566 19.1621C46.2621 18.8281 46.4261 18.374 46.6488 17.7998C46.8832 17.2021 47.0619 16.6953 47.1849 16.2793C47.3138 15.8633 47.3783 15.4648 47.3783 15.084C47.3783 14.6973 47.2552 14.3662 47.0091 14.0908C46.7689 13.8096 46.3939 13.6689 45.8841 13.6689C45.3158 13.6689 44.7357 13.9355 44.1439 14.4688C43.558 14.9961 43.0365 15.5908 42.5795 16.2529C42.1224 16.915 41.6302 17.6826 41.1029 18.5557C41.0326 18.6846 40.9213 18.8721 40.7689 19.1182L40.6459 19.0566L43.0277 10.0918ZM53.2409 13.6689C52.5144 13.6689 51.8318 13.8652 51.1931 14.2578C50.5544 14.6445 50.0417 15.1719 49.655 15.8398C49.2741 16.502 49.0837 17.2256 49.0837 18.0107C49.0837 18.6729 49.2331 19.2852 49.532 19.8477C49.8308 20.4043 50.2351 20.8467 50.7448 21.1748C51.2605 21.5029 51.8171 21.667 52.4148 21.667C53.0827 21.667 53.7185 21.459 54.322 21.043C54.9255 20.6211 55.4646 20.0791 55.9392 19.417L55.3239 19.0215C55.0251 19.3906 54.7527 19.6982 54.5066 19.9443C54.2605 20.1904 53.9734 20.3955 53.6452 20.5596C53.3171 20.7236 52.9509 20.8057 52.5466 20.8057C52.195 20.8057 51.8728 20.709 51.5798 20.5156C51.2868 20.3164 51.0554 20.0615 50.8855 19.751C50.7155 19.4346 50.6306 19.1094 50.6306 18.7754L50.6394 18.4414C51.407 18.3887 52.1511 18.2979 52.8718 18.1689C53.5925 18.0342 54.2458 17.7822 54.8318 17.4131C55.4236 17.0439 55.7195 16.5283 55.7195 15.8662C55.7195 15.3975 55.5935 14.999 55.3415 14.6709C55.0954 14.3369 54.782 14.0879 54.4011 13.9238C54.0202 13.7539 53.6335 13.6689 53.2409 13.6689ZM53.2497 14.3105C53.4607 14.3105 53.6599 14.3691 53.8474 14.4863C54.0407 14.5977 54.196 14.7559 54.3132 14.9609C54.4304 15.1602 54.489 15.3828 54.489 15.6289C54.489 16.0918 54.281 16.4873 53.865 16.8154C53.4548 17.1436 52.9714 17.3926 52.4148 17.5625C51.864 17.7266 51.3894 17.8086 50.9909 17.8086C50.9382 17.8086 50.8239 17.8027 50.6482 17.791C50.6775 17.2812 50.7976 16.7568 51.0085 16.2178C51.2253 15.6787 51.5241 15.2275 51.905 14.8643C52.2859 14.4951 52.7341 14.3105 53.2497 14.3105Z" fill="white"></path></svg>