<svg xmlns="http://www.w3.org/2000/svg" width="768" height="1080" viewBox="0 0 768 1080" fill="none"><rect width="768" height="1080" fill="white"></rect><path d="M572 939.034C574.255 937.124 576.337 934.866 578.852 933.304C582.496 930.96 586.312 931.307 589.782 933.824C591.256 934.866 592.471 936.255 593.945 937.471C597.762 940.509 602.446 940.423 606.089 937.21C606.87 936.516 607.65 935.648 608.431 934.953C612.508 931.046 617.625 930.873 621.962 934.345C631.07 941.725 631.504 941.725 640.438 934.259C643.994 931.307 648.505 930.786 652.148 933.304C654.75 935.127 657.005 937.471 659.261 939.728C657.179 939.641 655.878 938.165 654.577 936.863C649.025 931.567 645.035 931.567 639.484 936.863C633.672 942.419 628.555 942.333 622.83 936.689C617.799 931.741 613.549 931.828 608.518 936.689C602.88 942.159 597.502 942.333 591.777 936.95C585.965 931.654 582.062 931.654 576.337 936.95C575.036 937.992 574.082 939.207 572 939.034Z" fill="#EC9F57"></path><path d="M573.041 947.02C579.199 937.731 587.093 938.512 592.297 943.808C597.502 949.191 602.359 948.93 607.737 943.548C612.594 938.599 618.059 938.512 623.177 943.374C629.335 949.104 633.065 949.104 639.05 943.461C644.168 938.512 649.719 938.512 654.837 943.461C655.964 944.59 656.919 945.892 658.046 947.368C656.658 947.281 655.791 946.152 654.924 945.284C648.852 939.467 645.122 939.467 639.05 945.284C633.932 950.233 628.555 950.233 623.35 945.284C617.278 939.641 613.635 939.641 607.824 945.458C603.313 949.972 597.502 950.146 592.644 946.065C591.777 945.284 590.909 944.416 590.042 943.635C586.052 940.249 581.628 940.422 577.725 943.808C576.25 944.763 575.383 946.326 573.041 947.02Z" fill="#EC9F57"></path><path d="M574.863 922.104C577.205 916.461 583.276 914.291 588.394 916.895C589.175 917.329 589.869 917.763 590.563 918.371C599.497 925.664 600.538 925.664 609.125 918.197C612.768 914.985 617.712 914.898 621.616 918.024C622.917 918.979 623.958 920.281 625.259 921.323C628.902 924.448 633.412 924.448 637.055 921.323C637.749 920.802 638.27 920.107 638.964 919.5C645.122 913.509 652.755 914.811 657.439 922.885C655.704 922.451 654.924 921.236 654.056 920.368C649.372 915.853 644.775 915.853 640.091 920.281C639.831 920.541 639.658 920.715 639.397 920.976C633.846 926.358 628.728 926.358 623.177 921.149C617.279 915.593 613.549 915.68 607.911 921.323C603.14 926.098 597.328 926.271 592.297 921.67C591.17 920.628 590.042 919.586 588.828 918.718C585.445 916.374 581.455 916.635 578.245 919.152C577.031 920.021 575.99 921.062 574.863 922.104Z" fill="#EC9F57"></path><path d="M659.261 931.307C656.572 931.307 655.271 929.397 653.623 927.921C649.112 923.754 644.602 923.754 640.091 928.008C633.239 934.519 629.075 934.519 622.223 928.182C617.365 923.667 613.115 923.754 608.344 928.529C602.706 934.172 597.502 934.346 591.603 928.963C585.532 923.493 581.802 923.493 575.903 929.05C574.949 930.005 574.169 931.307 572.521 931.394C577.551 923.841 584.751 920.889 591.43 927.053C591.95 927.487 592.384 927.921 592.818 928.355C597.762 932.696 602.446 932.609 607.13 927.921C612.941 922.191 617.712 922.191 623.697 927.834C628.902 932.783 633.152 932.783 638.356 927.747C644.255 922.104 649.286 922.104 655.271 927.834C656.659 929.137 657.96 930.178 659.261 931.307Z" fill="#EC9F57"></path><path d="M575.123 953.011C579.026 947.281 585.271 946.24 590.389 950.32C590.996 950.754 591.516 951.362 592.037 951.883C597.762 957.265 602.359 957.178 607.737 951.622C612.508 946.76 617.885 946.674 622.83 951.275C623.524 951.969 624.218 952.664 624.998 953.272C628.988 956.658 633.412 956.571 637.315 953.098C638.356 952.143 639.31 951.101 640.438 950.233C645.556 945.979 652.321 947.368 655.964 953.532C654.663 953.619 654.23 952.664 653.536 952.056C648.938 947.889 644.601 947.889 640.091 952.23C639.224 953.011 638.443 953.966 637.489 954.661C633.759 957.613 628.641 957.613 624.825 954.661C624.131 954.14 623.524 953.532 622.916 952.924C617.192 947.542 613.375 947.629 607.91 953.098C603.14 957.873 597.328 958.133 592.297 953.706C585.271 947.542 583.71 947.455 576.077 952.838C575.99 953.011 575.73 952.924 575.123 953.011Z" fill="#EC9F57"></path><path d="M577.812 958.654C580.674 955.616 585.358 955.095 588.828 957.178C590.389 958.133 591.69 959.436 593.078 960.651C597.762 964.732 602.532 964.645 606.869 960.304C609.298 957.873 611.727 955.703 615.544 955.876C617.886 955.963 619.967 956.658 621.789 958.133C630.983 965.6 631.07 965.6 640.525 957.96C643.474 955.616 646.77 955.268 650.326 956.31C651.454 956.658 652.408 957.178 652.929 958.307C652.321 958.828 651.974 958.481 651.627 958.307C646.597 956.05 643.734 956.571 639.831 960.217C633.239 966.468 629.075 966.468 622.483 960.391C617.452 955.789 613.202 955.789 608.344 960.564C602.706 966.121 597.415 966.207 591.516 960.912C586.746 956.571 585.011 956.31 577.812 958.654Z" fill="#EC9F57"></path><path d="M649.632 908.995C644.601 907.953 641.392 910.731 638.183 913.856C633.846 917.937 628.381 917.763 623.87 913.77C623.177 913.075 622.483 912.38 621.789 911.773C617.625 908.126 613.028 908.213 609.038 912.033C602.359 918.544 597.675 918.631 590.909 912.207C588.394 909.863 585.531 908.821 581.281 909.168C584.143 907.605 585.531 907.605 587.787 908.56C590.042 909.515 591.69 911.339 593.425 912.901C597.675 916.635 603.14 916.808 606.696 912.467C611.814 906.303 619.013 906.564 624.304 912.294C628.641 917.069 633.585 916.721 638.183 912.12C640.264 910.036 642.433 908.04 645.556 907.779C646.943 907.605 648.331 907.345 649.632 908.995Z" fill="#EC9F57"></path><path d="M582.148 964.818C585.271 963.429 587.787 964.297 590.129 966.034C591.083 966.728 591.863 967.596 592.731 968.465C597.848 973.066 602.446 972.892 607.216 968.117C607.563 967.77 607.91 967.336 608.344 966.902C612.334 962.995 617.885 962.821 622.049 966.468C622.743 967.076 623.437 967.857 624.131 968.465C628.988 972.892 633.325 972.892 638.096 968.204C641.132 965.166 644.341 962.908 648.938 964.124C648.852 964.384 648.852 964.731 648.765 964.731C644.168 964.558 640.958 966.989 637.836 970.114C634.019 973.934 628.468 973.847 624.304 970.288C623.35 969.506 622.569 968.638 621.702 967.857C617.365 964.037 612.941 964.124 608.778 968.204C608.171 968.812 607.563 969.506 606.956 970.027C603.226 973.5 597.675 973.847 593.598 970.722C590.129 968.117 587.526 964.037 582.148 964.818Z" fill="#EC9F57"></path><path d="M588.481 902.136C590.649 901.876 591.517 903.265 592.731 904.307C597.675 908.821 602.619 908.647 607.303 903.873C612.768 898.316 617.799 898.229 623.611 903.612C629.249 908.908 633.152 908.821 638.703 903.525C639.657 902.57 640.438 901.268 642.086 901.181C637.402 908.908 630.029 911.252 623.871 905.522C623.09 904.828 622.309 904.046 621.529 903.265C617.539 899.792 613.115 899.966 609.298 903.525C608.604 904.22 607.911 904.914 607.217 905.609C603.4 909.168 598.022 909.689 593.859 906.651C591.864 905.435 590.302 903.699 588.481 902.136Z" fill="#EC9F57"></path><path d="M593.859 898.403C594.726 897.969 595.16 898.229 595.68 898.49C600.104 900.66 603.834 899.532 607.13 896.146C612.681 890.676 618.233 890.589 623.784 896.059C627.687 899.966 631.938 900.573 636.969 897.708C635.754 899.966 633.586 900.921 630.723 900.747C627.601 900.573 625.259 899.098 623.003 897.014C617.105 891.458 613.462 891.544 607.737 897.188C603.487 901.528 598.022 902.049 593.859 898.403Z" fill="#EC9F57"></path><path d="M604.875 978.97C610.513 970.896 617.712 968.291 625.952 978.796C623.871 978.536 622.743 976.626 621.268 975.41C619.62 974.108 617.799 973.24 615.717 973.153C613.462 973.066 611.554 973.848 609.819 975.324C608.257 976.539 607.39 978.536 604.875 978.97Z" fill="#EC9F57"></path><path d="M659.348 931.741C657.699 930.699 656.138 929.571 654.75 928.182C649.112 922.712 644.515 922.799 638.877 928.529C635.32 932.175 630.897 933.304 626.473 930.873C624.912 930.005 623.871 928.616 622.57 927.574C616.932 922.886 612.334 923.32 608.258 927.921C603.227 933.651 596.548 933.477 591.256 927.921C586.746 923.146 581.368 923.059 576.684 927.574C575.209 929.05 573.648 930.439 572.174 931.828" stroke="#EC9F57" stroke-width="2" stroke-miterlimit="10" stroke-linecap="round" stroke-linejoin="round"></path><path d="M658.046 947.368C656.745 946.066 655.357 944.764 654.143 943.461C650.673 939.728 643.04 939.12 639.397 943.722C636.621 947.281 632.978 949.365 628.034 947.715C625.866 947.021 624.391 945.458 622.83 944.069C617.365 939.12 613.028 939.12 607.65 944.503C604.614 947.542 601.318 949.365 596.894 947.802C595.593 947.368 594.205 946.847 593.338 945.805C586.659 937.992 579.72 939.207 573.822 946.5" stroke="#EC9F57" stroke-width="2" stroke-miterlimit="10" stroke-linecap="round" stroke-linejoin="round"></path><path d="M657.352 922.625C656.051 921.41 654.577 920.368 653.449 918.979C650.587 915.593 643.821 915.159 640.091 918.979C639.484 919.673 638.79 920.281 638.183 920.976C633.672 925.49 628.555 925.317 623.871 920.976C621.702 918.979 619.881 916.548 616.411 916.374C612.941 916.201 609.992 917.416 607.997 920.021C603.92 925.317 597.241 925.751 591.95 920.368C586.486 914.898 581.021 914.204 574.082 921.931" stroke="#EC9F57" stroke-width="2" stroke-miterlimit="10" stroke-linecap="round" stroke-linejoin="round"></path><path d="M656.051 953.272C653.623 951.709 651.975 948.931 648.852 948.41C645.035 947.802 641.566 948.844 639.137 951.969C634.973 957.439 627.861 957.613 623.09 952.317C618.926 947.629 612.941 946.239 607.477 952.577C603.487 957.265 597.068 957.439 592.818 953.272C591.43 951.883 589.955 950.667 588.307 949.712C583.276 946.76 578.766 948.67 575.296 953.272" stroke="#EC9F57" stroke-width="2" stroke-miterlimit="10" stroke-linecap="round" stroke-linejoin="round"></path><path d="M652.495 958.133C647.291 955.095 644.081 955.703 639.831 959.436C637.749 961.259 636.014 963.69 632.978 963.95C629.682 964.211 626.733 963.863 624.131 961.085C621.442 958.22 618.406 955.703 613.809 956.658C611.9 957.092 610.426 957.613 609.298 959.088C604.181 965.6 596.374 965.687 590.649 959.436C587.353 955.789 582.496 955.529 578.332 958.133" stroke="#EC9F57" stroke-width="2" stroke-miterlimit="10" stroke-linecap="round" stroke-linejoin="round"></path><path d="M581.888 964.298C586.572 964.298 589.955 966.555 593.425 969.68C597.849 973.761 602.533 973.327 606.956 969.159C609.038 967.163 610.686 964.732 614.069 964.558C617.452 964.384 620.141 965.253 622.57 967.857C625.606 971.069 629.075 973.587 633.933 971.851C635.407 971.33 636.882 970.809 637.836 969.507C640.785 965.513 644.775 964.037 649.546 964.298" stroke="#EC9F57" stroke-width="2" stroke-miterlimit="10" stroke-linecap="round" stroke-linejoin="round"></path><path d="M641.739 901.789C640.265 903.091 638.703 904.393 637.142 905.696C633.065 909.082 628.381 908.908 624.478 905.435C622.656 903.786 621.095 901.789 618.666 900.834C614.503 899.271 611.033 900.573 608.257 903.786C605.829 906.564 603.14 908.3 599.15 908.127C596.808 908.04 595.073 906.998 593.338 905.696C591.69 904.48 590.389 902.657 588.481 901.789" stroke="#EC9F57" stroke-width="2" stroke-miterlimit="10" stroke-linecap="round" stroke-linejoin="round"></path><path d="M659.348 939.554C656.919 938.86 655.531 936.95 653.796 935.3C649.633 931.48 645.035 930.786 640.438 934.953C637.316 937.818 634.366 940.856 629.336 939.901C626.647 939.381 624.912 937.818 623.177 936.168C617.626 931.046 613.028 930.786 607.911 936.255C603.053 941.551 595.507 941.03 591.603 936.168C587.613 931.133 579.72 931.046 575.904 936.168C575.036 937.384 573.562 938.165 572.347 939.12" stroke="#EC9F57" stroke-width="2" stroke-miterlimit="10" stroke-linecap="round" stroke-linejoin="round"></path><path d="M636.882 898.23C632.284 901.268 627.6 900.747 623.177 896.32C619.36 892.5 614.503 891.458 610.86 893.715C609.212 894.757 607.65 896.146 606.349 897.622C603.573 900.747 597.502 901.182 594.292 898.23" stroke="#EC9F57" stroke-width="2" stroke-miterlimit="10" stroke-linecap="round" stroke-linejoin="round"></path><path d="M649.546 908.647C645.556 907.779 642.26 908.821 639.484 911.86C634.453 917.503 627.774 917.329 623.177 912.207C618.58 907.085 611.467 907.172 607.564 912.554C604.007 917.416 596.114 917.329 592.037 912.554C589.261 909.342 585.965 908.127 581.888 908.647" stroke="#EC9F57" stroke-width="2" stroke-miterlimit="10" stroke-linecap="round" stroke-linejoin="round"></path><path d="M626.126 978.622C624.305 978.101 623.524 976.452 622.223 975.323C617.799 971.33 612.942 971.33 608.518 975.323C607.303 976.452 606.436 978.101 604.615 978.622" stroke="#EC9F57" stroke-width="2" stroke-miterlimit="10" stroke-linecap="round" stroke-linejoin="round"></path><path d="M103.244 111.847C110.84 102.892 120.715 96.153 130.857 90.4135C135.791 87.6274 140.881 85.0258 145.979 82.4205C162.959 73.7425 180.02 65.0225 191.65 49.299C202.113 35.1507 207.584 17.5258 207.164 0H207.967C208.55 19.974 201.397 40.1209 188.135 55.1107C176.791 67.9293 161.717 75.5921 146.664 83.2433C139.368 86.9521 132.077 90.6582 125.219 94.9474C115.005 101.336 105.336 109.188 98.9355 119.544C92.5187 129.925 90.3095 142.016 88.1446 153.864L88.1446 153.864C87.9866 154.729 87.8288 155.593 87.6696 156.454C86.5152 162.709 85.268 168.964 83.2993 175.023C81.5059 180.515 79.1455 185.822 76.2698 190.83C70.5904 200.753 62.9321 209.522 53.8617 216.488C38.9971 227.89 19.8811 234.229 0.999985 233.994V232.771C22.9117 232.987 44.5295 224.675 60.4068 209.378C68.7763 201.32 75.507 191.541 79.9701 180.814C83.6542 171.959 85.389 162.591 87.1239 153.223L87.124 153.223C87.6703 150.273 88.2168 147.322 88.8241 144.388C90.0816 138.349 91.638 132.342 94.0602 126.644C96.3587 121.265 99.4612 116.308 103.244 111.847Z" fill="#E1DFDB"></path><path d="M22.4729 128.175L31.9549 118.693C30.2715 119.655 28.7083 120.806 27.2941 122.111L25.8912 123.514C24.5857 124.928 23.4348 126.491 22.4729 128.175Z" fill="#88ABDA"></path><path d="M19.6443 135.71L39.4901 115.864C38.9404 115.973 38.4022 116.105 37.8639 116.248L20.0279 134.084C19.8848 134.622 19.7531 135.16 19.6443 135.71Z" fill="#88ABDA"></path><path d="M19.1396 140.755C19.1396 140.806 19.1396 140.863 19.1396 140.915L44.6941 115.366C44.6426 115.366 44.5854 115.366 44.5338 115.366C44.1616 115.366 43.7952 115.378 43.4345 115.389L19.1683 139.655C19.1511 140.022 19.1396 140.388 19.1396 140.755Z" fill="#88ABDA"></path><path d="M19.535 145.232L49.0059 115.761C48.6509 115.698 48.2902 115.641 47.9352 115.595L19.3689 144.162C19.4147 144.517 19.472 144.877 19.535 145.232Z" fill="#88ABDA"></path><path d="M20.4962 148.971L52.7443 116.723C52.4351 116.614 52.1201 116.517 51.8052 116.426L20.1985 148.032C20.2958 148.347 20.3932 148.662 20.4962 148.971Z" fill="#88ABDA"></path><path d="M21.899 152.275L56.0537 118.12C55.7789 117.983 55.4983 117.846 55.2177 117.714L21.4924 151.439C21.6241 151.72 21.7558 152 21.899 152.275Z" fill="#88ABDA"></path><path d="M23.6642 155.218L58.9984 119.884C58.7522 119.712 58.506 119.546 58.2541 119.386L23.166 154.474C23.3263 154.726 23.4924 154.972 23.6642 155.218Z" fill="#88ABDA"></path><path d="M25.7478 157.841L61.6145 121.974C61.3969 121.779 61.1793 121.585 60.956 121.396L25.1694 157.182C25.3584 157.4 25.5531 157.623 25.7478 157.841Z" fill="#88ABDA"></path><path d="M28.1466 160.148L63.9275 124.367C63.7385 124.144 63.5439 123.921 63.3492 123.703L27.4824 159.57C27.7 159.765 27.9176 159.959 28.1466 160.148Z" fill="#88ABDA"></path><path d="M30.8498 162.147L65.9264 127.07C65.7661 126.818 65.6001 126.572 65.4283 126.326L30.1055 161.654C30.3517 161.82 30.5979 161.986 30.8498 162.147Z" fill="#88ABDA"></path><path d="M33.8893 163.813L67.586 130.116C67.4543 129.835 67.3226 129.555 67.1794 129.28L33.0476 163.412C33.3282 163.549 33.6087 163.681 33.8893 163.813Z" fill="#88ABDA"></path><path d="M37.3079 165.101L68.8803 133.529C68.7887 133.214 68.6856 132.899 68.5826 132.59L36.3689 164.804C36.6781 164.912 36.993 165.01 37.3079 165.101Z" fill="#88ABDA"></path><path d="M41.1902 165.925L69.705 137.411C69.6592 137.05 69.6019 136.689 69.5389 136.334L40.1138 165.759C40.4688 165.822 40.8295 165.88 41.1902 165.925Z" fill="#88ABDA"></path><path d="M44.5344 166.149C44.9294 166.149 45.3188 166.137 45.7024 166.12L69.8942 141.928C69.9113 141.539 69.9228 141.15 69.9228 140.76C69.9228 140.726 69.9228 140.697 69.9228 140.663L44.437 166.149C44.4656 166.143 44.5 166.149 44.5344 166.149Z" fill="#88ABDA"></path><path d="M51.2896 165.233L69.0111 147.511C69.16 146.973 69.2917 146.429 69.4062 145.879L49.6577 165.628C50.2074 165.513 50.7514 165.382 51.2896 165.233Z" fill="#88ABDA"></path><path d="M66.4987 153.489L57.2629 162.725C61.0878 160.503 64.2771 157.314 66.4987 153.489Z" fill="#88ABDA"></path></svg>