<svg xmlns="http://www.w3.org/2000/svg" width="326" height="369" viewBox="0 0 326 369" fill="none"><path d="M161.022 176.195C172.986 162.089 188.537 151.473 204.51 142.431C212.28 138.042 220.296 133.944 228.324 129.84C255.066 116.169 281.936 102.432 300.251 77.6623C316.729 55.3739 325.345 27.6089 324.684 0H325.949C326.866 31.4656 315.602 63.2037 294.716 86.8175C276.851 107.011 253.11 119.082 229.404 131.136C217.914 136.978 206.431 142.817 195.631 149.574C179.544 159.638 164.317 172.007 154.237 188.321C144.131 204.675 140.652 223.722 137.243 242.387L137.243 242.387C136.994 243.75 136.745 245.11 136.494 246.467C134.676 256.32 132.712 266.174 129.612 275.719C126.787 284.371 123.07 292.731 118.541 300.62C109.597 316.252 97.5358 330.066 83.2509 341.039C59.841 359.002 29.7356 368.989 0 368.617V366.691C34.5084 367.031 68.5539 353.937 93.5587 329.839C106.74 317.145 117.34 301.74 124.369 284.842C130.171 270.892 132.903 256.135 135.635 241.377L135.635 241.377C136.496 236.729 137.356 232.081 138.313 227.459C140.293 217.946 142.744 208.482 146.559 199.506C150.179 191.032 155.065 183.224 161.022 176.195Z" fill="#E1DFDB"></path></svg>